<svg width="16" height="16" viewBox="0 0 16 16" fill="none" xmlns="http://www.w3.org/2000/svg">
<path d="M6.30127 1.53345H12.3657C12.8532 1.53412 13.3231 1.70363 13.6968 2.01001L13.8501 2.14966C14.2441 2.54364 14.4666 3.07784 14.4673 3.63501V10.3655L14.4565 10.5725C14.4083 11.0535 14.1949 11.5051 13.8501 11.8499C13.4562 12.2437 12.9227 12.4663 12.3657 12.467H11.7944L11.771 12.6399C11.6345 13.6688 10.7608 14.467 9.69873 14.467H3.63525L3.42725 14.4563C3.01512 14.4149 2.62455 14.2521 2.3042 13.9895L2.1499 13.8499C1.75613 13.456 1.53446 12.9224 1.53369 12.3655V6.30103L1.54443 6.09399C1.58577 5.68168 1.74754 5.29043 2.01025 4.96997L2.1499 4.81665C2.4946 4.47196 2.94641 4.25847 3.42725 4.21021L3.63525 4.19946H4.19971V3.63501L4.21045 3.427C4.25182 3.01488 4.41469 2.62431 4.67725 2.30396L4.81689 2.14966C5.16163 1.805 5.61339 1.5924 6.09424 1.54419L6.30127 1.53345ZM3.63525 5.13306C2.99078 5.13306 2.46741 5.65743 2.46729 6.30103V12.3655C2.46741 13.0099 2.99163 13.5334 3.63525 13.5334H9.69873C10.3432 13.5334 10.8666 13.0091 10.8667 12.3655V6.30103C10.8666 5.65658 10.3424 5.13306 9.69873 5.13306H3.63525ZM6.30127 2.46704C5.65683 2.46716 5.1333 2.99138 5.1333 3.63501V4.19946H9.69873C10.2559 4.20014 10.7901 4.4227 11.1841 4.81665C11.5778 5.21049 11.7995 5.74417 11.8003 6.30103V11.5334H12.3657C13.0101 11.5333 13.5336 11.009 13.5337 10.3655V3.63501C13.5337 2.99054 13.0093 2.46716 12.3657 2.46704H6.30127Z" fill="black" stroke="#F5F5F5" stroke-width="0.4"/>
</svg>
