<svg width="10" height="8" viewBox="0 0 10 8" fill="none" xmlns="http://www.w3.org/2000/svg">
<path d="M8.34277 0.900391C8.5784 0.666661 8.94231 0.637152 9.20996 0.8125L9.31836 0.900391C9.5534 1.134 9.58267 1.49453 9.40625 1.75977L9.31836 1.86719L3.57227 7.57617C3.48404 7.66373 3.3781 7.72276 3.26562 7.75293L3.15137 7.77344C3.12916 7.77552 3.10698 7.77636 3.08496 7.77637C2.96872 7.77637 2.85277 7.74788 2.74902 7.69043L2.64941 7.62305L2.59668 7.57617L0.401367 5.39453C0.166321 5.16091 0.137083 4.80039 0.313477 4.53516L0.401367 4.42773C0.637006 4.1936 1.00174 4.16411 1.26953 4.33984L1.37695 4.42773L2.94434 5.98438L3.08496 6.125L3.22559 5.98438L8.34277 0.900391Z" fill="white" stroke="#3CDAD3" stroke-width="0.4"/>
</svg>
