<svg width="16" height="16" viewBox="0 0 16 16" fill="none" xmlns="http://www.w3.org/2000/svg">
<path d="M13.0991 1.93335C13.3237 1.93342 13.5399 2.01222 13.7124 2.15308L13.7837 2.21655C13.9648 2.39823 14.0669 2.64459 14.0669 2.90112C14.0668 3.12571 13.9881 3.34208 13.8472 3.5144L13.7827 3.58569L9.29346 8.07495L9.26709 8.09155L7.36279 8.72632L7.32373 8.72827L7.29053 8.70874L7.271 8.67554C7.26796 8.66297 7.26908 8.64979 7.27295 8.63745L7.27197 8.63647L7.90771 6.73315L7.90674 6.73218L7.92334 6.70776L12.4136 2.21655C12.5955 2.03531 12.8423 1.93335 13.0991 1.93335Z" fill="black" stroke="#F5F5F5" stroke-width="1.2"/>
<path d="M9.3335 1.48364C9.43631 1.48364 9.53632 1.51335 9.62061 1.56958L9.69873 1.63501C9.79552 1.73189 9.8501 1.86329 9.8501 2.00024C9.85003 2.10288 9.81929 2.20222 9.76318 2.28638L9.69873 2.36548C9.60185 2.46227 9.47045 2.51685 9.3335 2.51685H4.6665C4.09641 2.51693 3.5501 2.7436 3.14697 3.14673C2.74385 3.54985 2.51718 4.09616 2.51709 4.66626V11.3333C2.51709 11.9035 2.74377 12.4506 3.14697 12.8538C3.55007 13.2567 4.09656 13.4836 4.6665 13.4836H11.3335C11.9037 13.4836 12.4508 13.257 12.854 12.8538C13.2572 12.4506 13.4839 11.9035 13.4839 11.3333V6.66626C13.484 6.52935 13.5384 6.39784 13.6353 6.30103C13.7321 6.20434 13.8636 6.14966 14.0005 6.14966C14.1031 6.14972 14.2025 6.18053 14.2866 6.23657L14.3657 6.30103C14.4625 6.39784 14.517 6.52935 14.5171 6.66626V11.3333L14.5132 11.4905C14.476 12.2248 14.1855 12.924 13.6919 13.469L13.5835 13.5833C12.9867 14.18 12.1774 14.5158 11.3335 14.5168H4.66748C3.87626 14.5159 3.11547 14.2202 2.53174 13.6917L2.41748 13.5833C1.82072 12.9865 1.48495 12.1772 1.48389 11.3333V4.66724C1.48483 3.87609 1.77961 3.1152 2.30811 2.53149L2.41748 2.41724C2.977 1.85772 3.72273 1.52744 4.50928 1.48755L4.66748 1.48364H9.3335Z" fill="black" stroke="#F5F5F5" stroke-width="0.3"/>
</svg>
