<svg width="10" height="10" viewBox="0 0 10 10" fill="none" xmlns="http://www.w3.org/2000/svg">
<g clip-path="url(#clip0_1784_2089)">
<path d="M6.17551 1.67959L0.6734 7.18212C0.645693 7.2099 0.625948 7.2446 0.616221 7.28261L0.00634441 9.73046C-0.00262534 9.76679 -0.00207564 9.80482 0.0079404 9.84087C0.0179564 9.87692 0.0371003 9.90978 0.0635229 9.93627C0.104108 9.97672 0.159058 9.99945 0.216358 9.9995C0.234034 9.9995 0.251642 9.99732 0.268785 9.993L2.71664 9.38305C2.7547 9.37348 2.78944 9.35375 2.81715 9.32595L8.31976 3.8238L6.17551 1.67959ZM9.68287 0.929322L9.07039 0.316867C8.66105 -0.092479 7.9476 -0.0920729 7.53872 0.316867L6.78847 1.06713L8.93262 3.21126L9.68287 2.46102C9.88734 2.25663 9.99997 1.98457 9.99997 1.69522C9.99997 1.40588 9.88734 1.13381 9.68287 0.929322Z" fill="white"/>
</g>
<defs>
<clipPath id="clip0_1784_2089">
<rect width="10" height="10" fill="white"/>
</clipPath>
</defs>
</svg>
