<svg width="92" height="92" viewBox="0 0 92 92" fill="none" xmlns="[http://www.w3.org/2000/svg">](http://www.w3.org/2000/svg%22%3E)
    <g clip-path="url(#clip0_472_6523)">
        <path d="M46 91.5C71.129 91.5 91.5 71.129 91.5 46C91.5 20.871 71.129 0.5 46 0.5C20.871 0.5 0.5 20.871 0.5 46C0.5 71.129 20.871 91.5 46 91.5Z" fill="#3CDAD3" stroke="white"/>
        <path d="M91.5 46C91.5 20.871 71.129 0.5 46 0.5C20.871 0.5 0.5 20.871 0.5 46C0.5 71.129 20.871 91.5 46 91.5C71.129 91.5 91.5 71.129 91.5 46Z" stroke="white"/>
        <path d="M71.4558 66.5441C67.5348 62.6232 62.8677 59.7205 57.7757 57.9634C63.2294 54.2072 66.8124 47.9208 66.8124 40.8125C66.8124 29.3365 57.4759 20 45.9999 20C34.5239 20 25.1874 29.3365 25.1874 40.8125C25.1874 47.9208 28.7704 54.2072 34.2242 57.9634C29.1322 59.7205 24.4652 62.6232 20.5441 66.5441C17.3897 69.6986 14.8927 73.3353 13.1221 77.2881L17.6851 81C22.101 69.6723 33.1285 61.625 45.9999 61.625C62.7488 61.625 76.3749 75.2511 76.3749 92L82 90C82 89.3458 81.9825 90.6943 81.9481 90.0459C81.4762 81.1644 77.7926 72.8811 71.4558 66.5441ZM45.9999 56C37.6255 56 30.8124 49.187 30.8124 40.8125C30.8124 32.438 37.6255 25.625 45.9999 25.625C54.3743 25.625 61.1874 32.438 61.1874 40.8125C61.1874 49.187 54.3743 56 45.9999 56Z" fill="white"/>
        <path d="M77 90C84.1797 90 90 84.1797 90 77C90 69.8203 84.1797 64 77 64C69.8203 64 64 69.8203 64 77C64 84.1797 69.8203 90 77 90Z" fill="#3CDAD3" stroke="white" stroke-width="4"/>
        <path d="M77 73V81" stroke="white" stroke-width="2" stroke-linecap="round"/>
        <path d="M81 77H73" stroke="white" stroke-width="2" stroke-linecap="round"/>
    </g>
    <defs>
        <clipPath id="clip0_472_6523">
            <rect width="92" height="92" fill="white"/>
        </clipPath>
    </defs>
</svg>