<svg width="22" height="20" viewBox="0 0 22 20" fill="none" xmlns="http://www.w3.org/2000/svg">
<path d="M18.6182 10.8296C18.5691 10.8053 18.52 10.7933 18.4704 10.7933C18.3637 10.7933 18.2697 10.8333 18.1878 10.9136L17.401 11.6832C17.3274 11.7555 17.2905 11.8435 17.2905 11.9479V15.0023C17.2905 15.5316 17.0983 15.9844 16.7128 16.3614C16.3277 16.7382 15.8645 16.9266 15.3236 16.9266H5.09525C4.55426 16.9266 4.09116 16.7382 3.706 16.3614C3.32075 15.9844 3.12823 15.5317 3.12823 15.0023V4.99659C3.12823 4.46744 3.32075 4.01445 3.706 3.63754C4.09116 3.26071 4.55426 3.07233 5.09525 3.07233H15.3237C15.504 3.07233 15.6884 3.09638 15.8768 3.14453C15.9261 3.16045 15.9629 3.16858 15.9872 3.16858C16.0939 3.16858 16.1882 3.12861 16.2701 3.04845L16.8725 2.45915C16.9707 2.36307 17.0078 2.24672 16.983 2.11054C16.9584 1.98223 16.8845 1.88998 16.7616 1.83392C16.3193 1.63375 15.8396 1.5332 15.3233 1.5332H5.09525C4.11997 1.5332 3.286 1.87196 2.59344 2.54946C1.90097 3.22705 1.55469 4.04276 1.55469 4.99689V15.0029C1.55469 15.9568 1.90097 16.7726 2.59349 17.4501C3.28605 18.1278 4.12001 18.4666 5.0953 18.4666H15.3236C16.2987 18.4666 17.1328 18.1278 17.8253 17.4501C18.5179 16.7726 18.8645 15.9569 18.8645 15.0029V11.1783C18.8644 11.01 18.7821 10.8938 18.6182 10.8296Z" fill="#3CDAD3"/>
<path d="M21.3552 4.28349L21.3553 4.28353C21.46 4.38597 21.4999 4.48734 21.4999 4.61154C21.4999 4.73542 21.46 4.83695 21.3551 4.93963C21.3551 4.93966 21.3551 4.93968 21.355 4.93971L11.348 14.7291L11.348 14.7292C11.243 14.8319 11.1343 14.8751 10.9969 14.8751C10.8596 14.8751 10.7509 14.8319 10.6459 14.7292L10.6458 14.7291L5.3597 9.5579C5.35967 9.55787 5.35964 9.55785 5.35962 9.55782C5.25464 9.45505 5.21484 9.35366 5.21484 9.22973C5.21484 9.10555 5.25473 9.00412 5.35962 8.90151L6.71188 7.57864C6.81697 7.47584 6.92569 7.43264 7.06298 7.43264C7.20027 7.43264 7.30904 7.47587 7.41403 7.5786L7.41406 7.57863L10.6471 10.7416L10.9967 11.0837L11.3464 10.7416L19.3005 2.96046L19.3006 2.96034C19.4054 2.8578 19.5144 2.81445 19.6515 2.81445C19.7889 2.81445 19.8978 2.85777 20.0028 2.96045C20.0028 2.96047 20.0028 2.96048 20.0028 2.96049L21.3552 4.28349Z" fill="#3CDAD3" stroke="white"/>
</svg>
