<svg width="16" height="16" viewBox="0 0 16 16" fill="none" xmlns="http://www.w3.org/2000/svg">
<path fill-rule="evenodd" clip-rule="evenodd" d="M5.98272 13.3941C5.91927 13.4585 5.84338 13.51 5.75946 13.5453C5.67555 13.5807 5.58529 13.5993 5.49397 13.6001C5.40264 13.6009 5.31208 13.5838 5.22755 13.5499C5.14302 13.5159 5.06623 13.4658 5.00165 13.4025C4.93707 13.3391 4.886 13.2638 4.85141 13.1808C4.81683 13.0979 4.79943 13.0091 4.80022 12.9195C4.80102 12.8299 4.81999 12.7413 4.85604 12.659C4.89208 12.5767 4.94448 12.5022 5.01017 12.44L9.05373 8.47308C9.18267 8.34654 9.25511 8.17494 9.25511 7.99602C9.25511 7.8171 9.18267 7.6455 9.05373 7.51896L5.00948 3.55205C4.88052 3.42544 4.8081 3.25375 4.80816 3.07476C4.80823 2.89576 4.88077 2.72412 5.00983 2.5976C5.13889 2.47108 5.31389 2.40003 5.49634 2.4001C5.67879 2.40016 5.85375 2.47133 5.98272 2.59794L10.9988 7.51896C11.1278 7.6455 11.2002 7.8171 11.2002 7.99602C11.2002 8.17494 11.1278 8.34654 10.9988 8.47307L5.98272 13.3941Z" fill="black"/>
</svg>
