<svg width="512" height="512" viewBox="0 0 512 512" fill="none" xmlns="http://www.w3.org/2000/svg">
<path d="M196.069 263.953C197.362 263.953 198.634 263.619 199.759 262.982C200.885 262.346 201.827 261.429 202.494 260.321L216.025 237.846L233.955 266.338C234.644 267.434 235.606 268.333 236.746 268.948C237.885 269.562 239.165 269.871 240.46 269.844C241.754 269.817 243.02 269.455 244.133 268.793C245.246 268.132 246.169 267.193 246.812 266.069L275.677 215.633L314.445 286.283C315.081 287.442 316.012 288.412 317.143 289.095C318.274 289.778 319.566 290.15 320.887 290.174L321.02 290.175C322.319 290.175 323.596 289.837 324.725 289.195C325.855 288.553 326.798 287.629 327.463 286.513L351.616 245.967H409.858C411.847 245.967 413.755 245.177 415.161 243.77C416.568 242.364 417.358 240.456 417.358 238.467C417.358 236.478 416.568 234.57 415.161 233.164C413.755 231.757 411.847 230.967 409.858 230.967H347.354C346.055 230.967 344.778 231.304 343.649 231.946C342.519 232.588 341.576 233.513 340.911 234.629L321.287 267.571L282.39 196.685C281.749 195.517 280.808 194.54 279.664 193.856C278.52 193.172 277.215 192.805 275.882 192.793H275.814C274.493 192.793 273.195 193.142 272.052 193.805C270.909 194.467 269.961 195.42 269.305 196.567L239.997 247.777L222.231 219.546C221.556 218.473 220.619 217.588 219.509 216.975C218.399 216.362 217.151 216.041 215.883 216.041H215.809C214.528 216.053 213.272 216.394 212.161 217.029C211.049 217.665 210.118 218.575 209.458 219.672L191.83 248.953H149.205C147.216 248.953 145.308 249.743 143.902 251.15C142.495 252.556 141.705 254.464 141.705 256.453C141.705 258.442 142.495 260.35 143.902 261.756C145.308 263.163 147.216 263.953 149.205 263.953H196.069ZM423.096 55.795C421.107 55.795 419.199 56.5852 417.793 57.9917C416.386 59.3983 415.596 61.3059 415.596 63.295V85.419H393.474C391.485 85.419 389.577 86.2092 388.171 87.6157C386.764 89.0223 385.974 90.9299 385.974 92.919C385.974 94.9082 386.764 96.8158 388.171 98.2223C389.577 99.6289 391.485 100.419 393.474 100.419H415.596V122.544C415.596 124.533 416.386 126.441 417.793 127.847C419.199 129.254 421.107 130.044 423.096 130.044C425.085 130.044 426.993 129.254 428.399 127.847C429.806 126.441 430.596 124.533 430.596 122.544V100.419H452.718C454.707 100.419 456.615 99.6289 458.021 98.2223C459.428 96.8158 460.218 94.9082 460.218 92.919C460.218 90.9299 459.428 89.0223 458.021 87.6157C456.615 86.2092 454.707 85.419 452.718 85.419H430.596V63.295C430.596 61.3059 429.806 59.3983 428.399 57.9917C426.993 56.5852 425.085 55.795 423.096 55.795Z" fill="#A702F8"/>
<path d="M449.56 312.76C486.099 273.697 496.571 214.628 476.486 163.988C498.039 147.744 512 121.933 512 92.919C512 43.894 472.118 4.01001 423.096 4.01001C402.959 4.01001 383.24 10.921 367.57 23.47C366.035 24.719 365.055 26.5242 364.845 28.4921C364.635 30.46 365.212 32.4312 366.449 33.976C367.686 35.5208 369.484 36.514 371.45 36.7392C373.416 36.9643 375.392 36.4032 376.946 35.178C390.154 24.6 406.112 19.01 423.095 19.01C463.845 19.01 496.999 52.166 496.999 92.919C496.999 133.689 463.846 166.857 423.095 166.857C385.152 166.857 353.809 138.119 349.647 101.268C349.639 101.183 349.625 101.097 349.614 101.011C349.316 98.3239 349.165 95.6226 349.162 92.919C349.162 81.343 351.763 70.273 356.891 60.015C357.78 58.2357 357.926 56.1761 357.298 54.2891C356.669 52.402 355.316 50.842 353.537 49.952C351.758 49.0628 349.698 48.9166 347.811 49.5455C345.924 50.1745 344.364 51.5271 343.474 53.306C337.295 65.665 334.162 78.993 334.162 92.918C334.162 94.178 334.195 95.43 334.247 96.678C315.309 103.447 297.632 114.58 282.818 129.149L274.528 137.299L274.418 137.189L266.268 129.159C239.898 103.159 205.378 88.629 171.548 89.329C143.398 89.909 118.488 100.939 99.518 121.219C98.8449 121.939 98.3203 122.785 97.9741 123.708C97.6279 124.631 97.4669 125.613 97.5003 126.599C97.5337 127.584 97.7609 128.553 98.1689 129.45C98.5769 130.348 99.1576 131.156 99.878 131.829C102.908 134.649 107.648 134.499 110.478 131.469C126.618 114.209 147.838 104.819 171.858 104.329C201.658 103.719 232.228 116.669 255.738 139.839L263.898 147.879C267.838 151.759 271.198 153.689 274.548 153.689C277.868 153.689 281.178 151.789 285.048 147.989L293.338 139.839C305.795 127.595 320.488 118.061 336.218 111.946C344.955 151.874 380.586 181.856 423.094 181.856C437.647 181.856 451.394 178.34 463.531 172.112C480.15 216.813 470.608 268.238 438.658 302.448L330.99 412.66L322.08 414.4C319.92 414.82 318.01 415.2 316.27 415.55C304.97 417.84 302.27 418.38 289.04 416.34L224.89 404.61C216.15 401.59 217.03 394.63 217.52 392.54C218.29 389.29 221.31 384.04 227.8 385.02L227.98 385.05C230.87 385.42 233.97 385.82 237.21 386.23C249.36 387.8 263.12 389.57 275.34 390.82C300.34 393.35 314.48 380.23 317.42 366.09C320.41 351.68 312.2 332.52 287.1 324.51C286.8 324.42 286.49 324.34 286.17 324.28L244.86 316.7C222.44 312.59 205 315.76 178.6 320.56C171.62 321.83 163.7 323.26 154.88 324.71L135.3 327.93L129.27 321.76L110.42 302.46C75.19 264.69 67.38 205.53 91.46 158.56C93.35 154.88 91.89 150.36 88.21 148.47C84.52 146.58 80 148.03 78.11 151.72C51.19 204.24 59.99 270.46 99.52 312.76C99.56 312.8 99.6 312.84 99.63 312.88L117.23 330.9L84.452 336.288V335.432C84.452 329.641 79.343 324.93 73.063 324.93H11.36C5.096 324.93 0 329.641 0 335.432V467.397C0 473.188 5.096 477.899 11.36 477.899H73.064C79.344 477.899 84.453 473.188 84.453 467.397V466.488L151.9 484.84L214.16 501.76C228.37 506.17 239.82 507.99 250.27 507.99C266.81 507.99 280.86 503.45 299.42 497.45C301.07 496.92 302.76 496.37 304.5 495.81L427.19 456.47C441.41 451.91 451.53 441.67 454.25 429.08C456.36 419.32 453.42 409.68 446.38 403.29C440.68 398.12 427.28 390.7 401.45 398.87L356.91 407.58L449.45 312.88C449.49 312.84 449.52 312.8 449.56 312.76ZM15 462.899V339.929H69.452V345.082L69.45 345.129V456.669L69.452 456.695V462.899H15ZM405.6 413.29C419.44 408.85 430.63 409.25 436.31 414.4C439.37 417.18 440.57 421.38 439.59 425.9C438.01 433.19 431.66 439.28 422.61 442.18L299.91 481.53C298.16 482.09 296.46 482.64 294.8 483.18C265.45 492.66 250.72 497.43 218.48 487.4C218.4 487.37 218.31 487.35 218.22 487.32L84.452 450.941V351.49L157.31 339.52C166.25 338.05 174.24 336.59 181.29 335.31C206.94 330.65 222.43 327.84 242.15 331.46L282.98 338.95C298.9 344.18 304.39 355.07 302.73 363.04C300.82 372.25 290.66 377.3 276.86 375.9C264.84 374.67 251.18 372.91 239.13 371.36C235.91 370.94 232.82 370.54 229.95 370.18C215.61 368.06 205.5 378.09 202.92 389.12C202.37 391.47 202.15 393.97 202.31 396.49C202.86 405.61 208.31 415.07 220.75 419.04C221.06 419.14 225.2 419.91 225.2 419.91L286.45 431.11L286.65 431.14C299.29 433.11 304.76 432.94 312.51 431.57C314.54 431.21 322.82 429.53 324.95 429.12L338.45 426.48C338.45 426.48 405.32 413.38 405.6 413.29Z" fill="#A702F8"/>
</svg>
