<svg width="24" height="24" viewBox="0 0 24 24" fill="none" xmlns="http://www.w3.org/2000/svg">
<g clip-path="url(#clip0_1946_287)">
<path d="M11.9635 24C11.2806 23.9742 11.2804 22.9939 11.9635 22.9688C26.4973 22.4162 26.489 1.57969 11.9634 1.03125C11.6787 1.03125 11.4479 0.800438 11.4479 0.515625C11.4479 0.230812 11.6787 0 11.9635 0C15.1688 0 18.1823 1.24819 20.4488 3.51473C27.9787 11.0185 22.5917 24.0193 11.9635 24Z" fill="black"/>
<path d="M17.7057 18.2577C17.5737 18.2577 17.4418 18.2074 17.3411 18.1067L11.5989 12.3645C11.5023 12.2678 11.4479 12.1366 11.4479 11.9999V4.82216C11.4732 4.13877 12.454 4.13929 12.4791 4.82216V11.7863L18.0703 17.3775C18.2717 17.5789 18.2717 17.9054 18.0703 18.1067C17.9696 18.2074 17.8376 18.2577 17.7057 18.2577Z" fill="black"/>
<path d="M7.81032 1.80603C7.60566 1.80603 7.41202 1.68341 7.33135 1.4818C7.2256 1.21742 7.35403 0.917422 7.61836 0.811625C7.63046 0.806797 7.9178 0.692094 8.23941 0.591594C8.54869 0.494938 8.89932 0.395797 8.91413 0.391625C9.18816 0.314188 9.47307 0.473657 9.55046 0.747688C9.62785 1.02177 9.46842 1.30663 9.19435 1.38406C9.19088 1.38505 8.84236 1.48358 8.54696 1.57588C8.265 1.66395 8.00414 1.76797 8.00152 1.769C7.93885 1.79417 7.87407 1.80603 7.81032 1.80603Z" fill="black"/>
<path d="M4.3227 3.93864C4.18259 3.93864 4.04295 3.88187 3.94123 3.77007C3.74956 3.55951 3.76479 3.23349 3.97535 3.04182C3.98496 3.03306 4.21395 2.82498 4.48006 2.61821C4.73585 2.41937 5.02962 2.20375 5.04195 2.19465C5.27154 2.02623 5.59423 2.07573 5.7627 2.30532C5.93121 2.53492 5.88162 2.8576 5.65207 3.02607C5.64917 3.02823 5.35723 3.24259 5.11282 3.43253C4.87962 3.61374 4.67168 3.80251 4.66962 3.80443C4.57076 3.89429 4.44654 3.93864 4.3227 3.93864Z" fill="black"/>
<path d="M1.80233 7.15774C1.72307 7.15774 1.64258 7.13941 1.56716 7.10069C1.31385 6.97061 1.21396 6.65978 1.34404 6.40647C1.34999 6.39489 1.49155 6.11983 1.66827 5.83305C1.83838 5.55714 2.03793 5.25232 2.04632 5.23947C2.20232 5.00125 2.52191 4.93469 2.76018 5.09069C2.9984 5.24674 3.06501 5.56633 2.90901 5.80455C2.90699 5.80755 2.70866 6.1106 2.54624 6.37408C2.39038 6.62702 2.26269 6.87508 2.26143 6.87752C2.17002 7.0555 1.98946 7.15774 1.80233 7.15774Z" fill="black"/>
<path d="M0.570406 11.0555C0.550297 11.0555 0.530047 11.0543 0.509609 11.0519C0.226812 11.0188 0.0244528 10.7627 0.0576403 10.4799C0.0591403 10.467 0.0954685 10.1598 0.160531 9.82926C0.22325 9.51126 0.303406 9.1559 0.306781 9.1409C0.3695 8.86317 0.645406 8.68889 0.923281 8.75151C1.20106 8.81423 1.37534 9.09028 1.31267 9.36806C1.31187 9.37157 1.23219 9.72492 1.17233 10.0286C1.11528 10.3184 1.08214 10.5973 1.08181 10.6001C1.05097 10.8624 0.828218 11.0555 0.570406 11.0555Z" fill="black"/>
<path d="M0.779466 15.138C0.547716 15.138 0.337059 14.9807 0.279216 14.7455C0.276122 14.7328 0.202481 14.4324 0.147731 14.1C0.0950907 13.7802 0.0456845 13.4192 0.043622 13.404C0.00509072 13.1218 0.202575 12.8619 0.484716 12.8234C0.767091 12.7849 1.02683 12.9824 1.06536 13.2645C1.06587 13.2681 1.115 13.627 1.16525 13.9324C1.21325 14.2237 1.27995 14.4966 1.28065 14.4994C1.34848 14.7759 1.1794 15.0551 0.902888 15.1231C0.861591 15.1332 0.8202 15.138 0.779466 15.138Z" fill="black"/>
<path d="M2.40692 18.8887C2.24229 18.8887 2.08052 18.81 1.98068 18.6638C1.97337 18.653 1.79918 18.3973 1.63151 18.1051C1.47021 17.824 1.29752 17.5032 1.29026 17.4897C1.15535 17.2389 1.24934 16.9263 1.50012 16.7914C1.75099 16.6564 2.0636 16.7505 2.19846 17.0012C2.20015 17.0044 2.37181 17.3234 2.52588 17.5919C2.67293 17.848 2.8309 18.0802 2.83249 18.0825C3.06902 18.4138 2.80985 18.8974 2.40692 18.8887Z" fill="black"/>
<path d="M5.24311 21.8318C5.14045 21.8318 5.03681 21.8013 4.94653 21.7376C4.93589 21.7301 4.68323 21.5516 4.42382 21.3366C4.17431 21.1299 3.90018 20.8898 3.88865 20.8797C3.67453 20.692 3.65306 20.3662 3.8407 20.1521C4.02843 19.938 4.35412 19.9164 4.56834 20.1042C4.57106 20.1066 4.8435 20.3451 5.08181 20.5426C5.3092 20.7311 5.53851 20.8932 5.54081 20.8949C5.95176 21.1864 5.73904 21.8331 5.24311 21.8318Z" fill="black"/>
<path d="M8.9321 23.5953C8.88883 23.5953 8.84491 23.5898 8.80108 23.5783C8.78852 23.5751 8.48932 23.4963 8.17103 23.3858C7.86489 23.2795 7.52411 23.1507 7.50977 23.1452C7.24343 23.0444 7.10922 22.7468 7.21005 22.4805C7.31083 22.2141 7.60839 22.08 7.87483 22.1807C7.87821 22.182 8.21697 22.3101 8.50938 22.4116C8.78833 22.5085 9.05992 22.5801 9.06264 22.5808C9.64511 22.7474 9.53013 23.5843 8.9321 23.5953Z" fill="black"/>
</g>
<defs>
<clipPath id="clip0_1946_287">
<rect width="24" height="24" fill="white"/>
</clipPath>
</defs>
</svg>
