<svg width="20" height="20" viewBox="0 0 20 20" fill="none" xmlns="http://www.w3.org/2000/svg">
<path d="M2.00239 5.48113C2.00678 5.00464 1.9643 4.52378 2.11372 4.05749C2.4228 3.09139 3.05708 2.44587 4.02828 2.14861C4.75338 1.92712 5.50192 2.01309 6.24314 2.03349C7.02391 2.05389 7.68162 2.36427 8.21629 2.92673C8.68065 3.41634 8.94872 4.00357 8.97509 4.67386C8.99999 5.29607 9.02343 5.92265 8.95458 6.5434C8.81542 7.77762 7.71092 8.853 6.4614 8.94917C5.72751 9.006 4.98776 9.04097 4.25826 8.90983C2.99556 8.68106 2.02729 7.52261 2.00239 6.24468C1.998 5.98968 2.00239 5.73613 2.00239 5.48113ZM4.09127 5.49425C4.09127 5.71282 4.0898 5.92994 4.09127 6.14851C4.09566 6.5638 4.39596 6.87709 4.81051 6.88438C5.26022 6.89166 5.7114 6.89166 6.16257 6.88438C6.5742 6.87855 6.87449 6.57692 6.87888 6.16745C6.88474 5.72593 6.88474 5.28296 6.87888 4.84144C6.87449 4.4174 6.56541 4.11577 6.13474 4.1114C5.70261 4.10849 5.27048 4.10849 4.83834 4.1114C4.40475 4.11432 4.0942 4.42615 4.09127 4.85892C4.0898 5.07021 4.09127 5.28296 4.09127 5.49425Z" fill="#3CDAD3"/>
<path d="M17.9853 14.5156C17.9707 15.0082 18.0174 15.4891 17.8698 15.9554C17.5642 16.9231 16.9254 17.5585 15.9619 17.8733C15.6652 17.9695 15.3582 18.0045 15.0453 17.9928C14.4868 17.9724 13.9254 18.0453 13.3714 17.9476C11.9781 17.7014 11.0045 16.5398 11.0103 15.132C11.0118 14.5986 10.9738 14.0653 11.0352 13.5333C11.1784 12.2975 12.1097 11.2759 13.3626 11.0952C14.1827 10.9757 15.0278 10.9465 15.8464 11.1389C17.095 11.4333 17.9517 12.5307 17.9809 13.8044C17.9867 14.0463 18.016 14.2882 17.9882 14.5141L17.9853 14.5156ZM15.8918 14.5272C15.8918 14.3217 15.8918 14.1163 15.8918 13.9093C15.8903 13.4473 15.6008 13.134 15.1432 13.1209C14.712 13.1092 14.2807 13.1092 13.8509 13.1209C13.4357 13.1325 13.1448 13.3876 13.1082 13.8C13.0658 14.2751 13.0687 14.756 13.1053 15.2326C13.1374 15.6567 13.4532 15.9074 13.886 15.9088C14.2982 15.9088 14.712 15.9088 15.1242 15.9088C15.5789 15.9074 15.8888 15.5969 15.8918 15.1452C15.8918 14.9397 15.8918 14.7342 15.8918 14.5272Z" fill="#3CDAD3"/>
<path d="M5.49089 17.9987C5.01719 17.9914 4.53908 18.0369 4.07565 17.8916C3.07838 17.5791 2.41549 16.932 2.11044 15.9239C2.00631 15.5806 1.99751 15.2284 2.00045 14.8748C2.00338 14.5021 1.99605 14.1309 2.00925 13.7582C2.05764 12.2762 3.2617 11.0613 4.74734 11.0231C5.3853 11.007 6.02912 10.9615 6.66415 11.0715C7.96646 11.2975 8.9608 12.4582 8.98427 13.7802C8.99453 14.3348 9.02093 14.891 8.96813 15.4441C8.83468 16.8616 7.62915 17.9694 6.20511 17.9973C5.96753 18.0017 5.72994 17.9973 5.49236 17.9973L5.49089 17.9987ZM5.49969 15.9181C5.70648 15.9181 5.91473 15.9195 6.12152 15.9181C6.58055 15.9137 6.89147 15.6129 6.8988 15.1521C6.90613 14.7193 6.90613 14.2864 6.8988 13.8536C6.89147 13.4075 6.57762 13.0994 6.13178 13.095C5.70501 13.0906 5.27824 13.0906 4.85146 13.095C4.40563 13.0979 4.09178 13.406 4.08445 13.8521C4.07858 14.2908 4.07711 14.7296 4.08298 15.1697C4.08738 15.5982 4.40856 15.9107 4.8412 15.9181C5.06118 15.921 5.2797 15.9181 5.49969 15.9181Z" fill="black"/>
<path d="M14.4287 8.99869C14.0828 8.98546 13.6988 9.02222 13.3162 8.95457C12.0073 8.72074 11.0076 7.52512 11.0076 6.19126C11.0076 5.70153 10.9856 5.21181 11.0164 4.72356C11.1146 3.18381 12.2623 2.06907 13.8014 2.01172C14.2939 1.99407 14.7893 1.99701 15.2818 2.01613C16.7374 2.07054 17.9481 3.29852 17.9803 4.75886C17.9935 5.35741 18.0287 5.9589 17.9525 6.5545C17.7751 7.92366 16.5747 8.98546 15.1997 8.99869C14.9564 9.00163 14.7116 8.99869 14.4302 8.99869H14.4287ZM15.9063 5.50888C15.9063 5.28829 15.9107 5.06916 15.9063 4.84857C15.8975 4.41767 15.5809 4.10149 15.1499 4.0956C14.7292 4.08972 14.31 4.08825 13.8893 4.09119C13.4012 4.09413 13.0949 4.4015 13.089 4.89563C13.0846 5.31035 13.0846 5.72654 13.089 6.14125C13.0949 6.60156 13.3954 6.91334 13.8542 6.92363C14.2924 6.93393 14.7307 6.93393 15.169 6.92363C15.5911 6.91334 15.896 6.59421 15.9063 6.1692C15.9121 5.95007 15.9063 5.72948 15.9063 5.50888Z" fill="black"/>
</svg>
