<svg width="24" height="24" viewBox="0 0 24 24" fill="none" xmlns="http://www.w3.org/2000/svg">
<path d="M14.6309 6.25483H5.96164L6.84064 4.94758C6.95776 4.77475 7.02561 4.57329 7.03691 4.36482C7.04821 4.15635 7.00254 3.94874 6.90479 3.76426C6.80704 3.57978 6.6609 3.4254 6.48205 3.31768C6.30321 3.20996 6.09841 3.15298 5.88964 3.15283H5.88739C5.69954 3.15286 5.51411 3.19514 5.34481 3.27654C5.17552 3.35794 5.0267 3.47638 4.90939 3.62308L2.20413 7.00483C2.11893 7.11125 2.07251 7.24351 2.07251 7.37983C2.07251 7.51616 2.11893 7.64841 2.20413 7.75483L4.90939 11.1358C5.0267 11.2825 5.17552 11.401 5.34481 11.4824C5.51411 11.5638 5.69954 11.6061 5.88739 11.6061H5.88964C6.09841 11.6059 6.30321 11.549 6.48205 11.4412C6.6609 11.3335 6.80704 11.1791 6.90479 10.9947C7.00254 10.8102 7.04821 10.6026 7.03691 10.3941C7.02561 10.1856 6.95776 9.98416 6.84064 9.81133L5.96239 8.50408H14.6316C15.2943 8.50408 15.9504 8.6346 16.5627 8.88819C17.1749 9.14177 17.7311 9.51346 18.1997 9.98202C18.6683 10.4506 19.0399 11.0069 19.2935 11.6191C19.5471 12.2313 19.6776 12.8874 19.6776 13.5501C19.6776 14.2127 19.5471 14.8689 19.2935 15.4811C19.0399 16.0933 18.6683 16.6496 18.1997 17.1181C17.7311 17.5867 17.1749 17.9584 16.5627 18.212C15.9504 18.4656 15.2943 18.5961 14.6316 18.5961H12.1776C11.8793 18.5961 11.5931 18.7146 11.3821 18.9256C11.1712 19.1366 11.0526 19.4227 11.0526 19.7211C11.0526 20.0194 11.1712 20.3056 11.3821 20.5166C11.5931 20.7276 11.8793 20.8461 12.1776 20.8461H14.6316C16.5667 20.8461 18.4224 20.0774 19.7907 18.7091C21.159 17.3409 21.9276 15.4851 21.9276 13.5501C21.9276 11.6151 21.159 9.7593 19.7907 8.39103C18.4224 7.02276 16.5667 6.25408 14.6316 6.25408L14.6309 6.25483Z" fill="#828282"/>
</svg>
