<svg width="16" height="16" viewBox="0 0 16 16" fill="none" xmlns="http://www.w3.org/2000/svg">
<path fill-rule="evenodd" clip-rule="evenodd" d="M7.33436 2.66751V2.66618C7.34203 2.4947 7.41555 2.33279 7.53961 2.21416C7.66367 2.09553 7.82871 2.02932 8.00036 2.02932C8.17201 2.02932 8.33704 2.09553 8.4611 2.21416C8.58516 2.33279 8.65868 2.4947 8.66636 2.66618V2.66818C8.66668 3.90033 9.15429 5.08235 10.0228 5.95635C10.8913 6.83036 12.0702 7.32541 13.3024 7.33351L13.3337 7.33284C13.5106 7.33284 13.6802 7.40312 13.8053 7.5282C13.9304 7.65329 14.0007 7.82295 14.0007 7.99985C14.0007 8.17674 13.9304 8.3464 13.8053 8.47149C13.6802 8.59657 13.5106 8.66684 13.3337 8.66684H13.3317C12.719 8.66676 12.1124 8.78741 11.5464 9.02191C10.9803 9.25642 10.4661 9.60016 10.033 10.0335C9.59968 10.4666 9.25593 10.9808 9.02143 11.5468C8.78693 12.1128 8.66627 12.7195 8.66636 13.3322V13.3328C8.66644 13.4204 8.64929 13.5071 8.61587 13.588C8.58244 13.6689 8.53341 13.7425 8.47157 13.8044C8.40972 13.8664 8.33628 13.9156 8.25543 13.9492C8.17458 13.9828 8.08791 14.0001 8.00036 14.0002C7.91264 14.0003 7.82577 13.983 7.74472 13.9495C7.66367 13.9159 7.59004 13.8667 7.52805 13.8047C7.46606 13.7426 7.41692 13.6689 7.38345 13.5879C7.34998 13.5068 7.33285 13.4199 7.33302 13.3322C7.33311 12.7195 7.21246 12.1128 6.97795 11.5468C6.74345 10.9808 6.3997 10.4666 5.96636 10.0335C5.53327 9.60016 5.01903 9.25642 4.45303 9.02191C3.88702 8.78741 3.28035 8.66676 2.66769 8.66684C2.49088 8.66269 2.32229 8.58847 2.20021 8.46051C2.07812 8.33254 2.01187 8.16132 2.01602 7.98451C2.02018 7.8077 2.0944 7.63978 2.22236 7.5177C2.35033 7.39561 2.52155 7.32936 2.69836 7.33351C3.92504 7.32552 5.09918 6.8345 5.96636 5.96685C6.3997 5.53376 6.74345 5.01952 6.97795 4.45351C7.21246 3.88751 7.33311 3.28084 7.33302 2.66818L7.33436 2.66751ZM4.66769 13.2962V13.3335C4.66769 13.5103 4.59745 13.6799 4.47243 13.8049C4.3474 13.9299 4.17783 14.0002 4.00102 14.0002C3.82421 14.0002 3.65464 13.9299 3.52962 13.8049C3.4046 13.6799 3.33436 13.5103 3.33436 13.3335C3.33436 13.2459 3.31707 13.1591 3.28348 13.0781C3.2499 12.9971 3.20067 12.9236 3.13862 12.8616C3.07658 12.7997 3.00293 12.7506 2.92189 12.7172C2.84085 12.6838 2.75402 12.6667 2.66636 12.6668H2.66502C2.48821 12.6667 2.31871 12.5963 2.19381 12.4711C2.06892 12.346 1.99885 12.1763 1.99902 11.9995C1.9992 11.8227 2.06961 11.6532 2.19476 11.5283C2.31991 11.4034 2.48955 11.3333 2.66636 11.3335C2.75402 11.3337 2.84085 11.3166 2.92189 11.2831C3.00293 11.2497 3.07658 11.2006 3.13862 11.1387C3.20067 11.0768 3.2499 11.0032 3.28348 10.9223C3.31707 10.8413 3.33436 10.7545 3.33436 10.6668C3.33436 10.49 3.4046 10.3205 3.52962 10.1954C3.65464 10.0704 3.82421 10.0002 4.00102 10.0002C4.17783 10.0002 4.3474 10.0704 4.47243 10.1954C4.59745 10.3205 4.66769 10.49 4.66769 10.6668V10.7042C4.68702 11.0548 4.97836 11.3335 5.33436 11.3335C5.51117 11.3333 5.68081 11.4034 5.80596 11.5283C5.93111 11.6532 6.00151 11.8227 6.00169 11.9995C6.00187 12.1763 5.9318 12.346 5.8069 12.4711C5.682 12.5963 5.5125 12.6667 5.33569 12.6668H5.33436C4.97836 12.6668 4.68702 12.9455 4.66769 13.2962ZM12.6657 5.29551L12.6664 5.33285C12.6664 5.50966 12.5961 5.67923 12.4711 5.80425C12.3461 5.92927 12.1765 5.99951 11.9997 5.99951C11.8229 5.99951 11.6533 5.92927 11.5283 5.80425C11.4033 5.67923 11.333 5.50966 11.333 5.33285C11.333 5.24518 11.3157 5.15839 11.2822 5.07741C11.2486 4.99644 11.1993 4.92289 11.1373 4.86097C11.0752 4.79905 11.0016 4.74997 10.9206 4.71654C10.8395 4.68312 10.7527 4.666 10.665 4.66618H10.6637C10.4869 4.666 10.3174 4.59559 10.1925 4.47044C10.0676 4.3453 9.99751 4.17566 9.99769 3.99885C9.99787 3.82203 10.0683 3.65254 10.1934 3.52764C10.3186 3.40274 10.4882 3.33267 10.665 3.33285C11.0337 3.33285 11.333 3.03418 11.333 2.66618C11.333 2.48937 11.4033 2.3198 11.5283 2.19477C11.6533 2.06975 11.8229 1.99951 11.9997 1.99951C12.1765 1.99951 12.3461 2.06975 12.4711 2.19477C12.5961 2.3198 12.6664 2.48937 12.6664 2.66618L12.6657 2.70284C12.685 3.05418 12.977 3.33285 13.333 3.33285C13.5098 3.33267 13.6795 3.40274 13.8046 3.52764C13.9298 3.65254 14.0002 3.82203 14.0004 3.99885C14.0005 4.17566 13.9305 4.3453 13.8056 4.47044C13.6807 4.59559 13.5112 4.666 13.3344 4.66618H13.333C12.977 4.66618 12.685 4.94418 12.6657 5.29551Z" fill="#0C7C77"/>
</svg>
