<svg width="16" height="16" viewBox="0 0 16 16" fill="none" xmlns="http://www.w3.org/2000/svg">
<g clip-path="url(#clip0_954_216)">
<g filter="url(#filter0_d_954_216)">
<path fill-rule="evenodd" clip-rule="evenodd" d="M5.98687 2.9315C6.15133 2.89538 6.32225 2.90137 6.48377 2.94892C6.6453 2.99647 6.79221 3.08404 6.91087 3.2035L6.91187 3.204L12.7959 9.089L12.7969 9.0895C12.9163 9.20825 13.0038 9.35525 13.0513 9.51685C13.0987 9.67846 13.1046 9.84943 13.0684 10.0139C13.0321 10.1784 12.9549 10.331 12.8439 10.4577C12.7329 10.5844 12.5917 10.681 12.4334 10.7385L3.18037 14.1C3.00162 14.1671 2.80733 14.1813 2.62071 14.141C2.4341 14.1006 2.26306 14.0073 2.12805 13.8723C1.99304 13.7373 1.89977 13.5663 1.85939 13.3797C1.81902 13.193 1.83324 12.9987 1.90037 12.82L5.26187 3.567C5.31943 3.40865 5.41607 3.26741 5.54282 3.1564C5.66957 3.04538 5.82231 2.9677 5.98687 2.9315ZM2.36887 12.9935L2.83637 13.1725C2.83669 13.1714 2.83669 13.1701 2.83637 13.169C2.83626 13.1677 2.83573 13.1665 2.83487 13.1655C2.83389 13.1646 2.83267 13.1641 2.83137 13.164H2.82837L2.83337 13.1625L2.36887 12.9935ZM2.84087 13.1595L12.0919 9.799L12.0904 9.7975L6.20287 3.91L6.20137 3.9085L2.84087 13.1595ZM13.5004 1C13.633 1 13.7602 1.05268 13.8539 1.14645C13.9477 1.24021 14.0004 1.36739 14.0004 1.5V1.5125C14.0001 1.54171 13.9988 1.57089 13.9964 1.6C13.9752 1.90374 13.8951 2.20044 13.7604 2.4735C13.6209 2.75928 13.4088 3.00342 13.1454 3.1815C12.8424 3.383 12.4624 3.5 12.0004 3.5C11.7129 3.5 11.5304 3.57 11.4104 3.65C11.2874 3.7325 11.1994 3.845 11.1354 3.9735C11.055 4.13797 11.009 4.31714 11.0004 4.5V4.5035C10.9999 4.63611 10.9468 4.7631 10.8527 4.85654C10.7586 4.94998 10.6312 5.00221 10.4986 5.00175C10.366 5.00129 10.239 4.94816 10.1456 4.85407C10.0521 4.75997 9.9999 4.63261 10.0004 4.5H10.5004L10.0004 4.4995V4.4875C10.0006 4.45829 10.0019 4.42911 10.0044 4.4C10.0255 4.09626 10.1057 3.79956 10.2404 3.5265C10.3798 3.24072 10.5919 2.99658 10.8554 2.8185C11.1584 2.617 11.5384 2.5 12.0004 2.5C12.2879 2.5 12.4704 2.43 12.5904 2.35C12.7134 2.2675 12.8014 2.155 12.8654 2.0265C12.9458 1.86203 12.9917 1.68286 13.0004 1.5V1.4965C13.0013 1.3645 13.0544 1.23822 13.148 1.14521C13.2417 1.05219 13.3684 0.999997 13.5004 1Z" fill="#BD7826"/>
<path fill-rule="evenodd" clip-rule="evenodd" d="M3.24698 9.2465C3.34074 9.15276 3.4679 9.10011 3.60048 9.10011C3.73306 9.10011 3.86022 9.15276 3.95398 9.2465L6.75398 12.0465C6.84506 12.1408 6.89546 12.2671 6.89432 12.3982C6.89318 12.5293 6.84059 12.6547 6.74789 12.7474C6.65518 12.8401 6.52978 12.8927 6.39868 12.8938C6.26758 12.895 6.14128 12.8446 6.04698 12.7535L3.24698 9.9535C3.15324 9.85974 3.10059 9.73258 3.10059 9.6C3.10059 9.46742 3.15324 9.34026 3.24698 9.2465ZM9.00048 0.5C9.13309 0.5 9.26026 0.552678 9.35403 0.646447C9.4478 0.740215 9.50048 0.867392 9.50048 1V2.5C9.50048 2.63261 9.4478 2.75979 9.35403 2.85355C9.26026 2.94732 9.13309 3 9.00048 3C8.86787 3 8.74069 2.94732 8.64693 2.85355C8.55316 2.75979 8.50048 2.63261 8.50048 2.5V1C8.50048 0.867392 8.55316 0.740215 8.64693 0.646447C8.74069 0.552678 8.86787 0.5 9.00048 0.5ZM13.147 6.6465C13.2407 6.55276 13.3679 6.50011 13.5005 6.50011C13.6331 6.50011 13.7602 6.55276 13.854 6.6465L14.854 7.6465C14.9451 7.7408 14.9955 7.8671 14.9943 7.9982C14.9932 8.1293 14.9406 8.25471 14.8479 8.34741C14.7552 8.44011 14.6298 8.4927 14.4987 8.49384C14.3676 8.49498 14.2413 8.44458 14.147 8.3535L13.147 7.3535C13.0532 7.25974 13.0006 7.13258 13.0006 7C13.0006 6.86742 13.0532 6.74026 13.147 6.6465ZM15.475 4.342C15.4957 4.40431 15.504 4.4701 15.4994 4.53562C15.4947 4.60113 15.4772 4.66508 15.4478 4.72382C15.4184 4.78256 15.3777 4.83493 15.3281 4.87794C15.2784 4.92095 15.2208 4.95376 15.1585 4.9745L13.6585 5.4745C13.5326 5.5164 13.3953 5.5066 13.2767 5.44725C13.1581 5.38789 13.0679 5.28385 13.026 5.158C12.9841 5.03215 12.9939 4.89482 13.0532 4.7762C13.1126 4.65758 13.2166 4.5674 13.3425 4.5255L14.8425 4.0255C14.9048 4.00474 14.9706 3.99645 15.0361 4.00112C15.1016 4.00579 15.1656 4.02332 15.2243 4.05271C15.283 4.0821 15.3354 4.12278 15.3784 4.17242C15.4214 4.22205 15.4542 4.27968 15.475 4.342ZM4.44698 5.9465C4.54074 5.85276 4.6679 5.80011 4.80048 5.80011C4.93306 5.80011 5.06022 5.85276 5.15398 5.9465L10.054 10.8465C10.1451 10.9408 10.1955 11.0671 10.1943 11.1982C10.1932 11.3293 10.1406 11.4547 10.0479 11.5474C9.95518 11.6401 9.82978 11.6927 9.69868 11.6938C9.56758 11.695 9.44128 11.6446 9.34698 11.5535L4.44698 6.6535C4.35324 6.55974 4.30059 6.43258 4.30059 6.3C4.30059 6.16742 4.35324 6.04026 4.44698 5.9465Z" fill="#BD7826"/>
</g>
</g>
<defs>
<filter id="filter0_d_954_216" x="-2.16309" y="0.5" width="21.6641" height="21.6636" filterUnits="userSpaceOnUse" color-interpolation-filters="sRGB">
<feFlood flood-opacity="0" result="BackgroundImageFix"/>
<feColorMatrix in="SourceAlpha" type="matrix" values="0 0 0 0 0 0 0 0 0 0 0 0 0 0 0 0 0 0 127 0" result="hardAlpha"/>
<feOffset dy="4"/>
<feGaussianBlur stdDeviation="2"/>
<feComposite in2="hardAlpha" operator="out"/>
<feColorMatrix type="matrix" values="0 0 0 0 0 0 0 0 0 0 0 0 0 0 0 0 0 0 0.25 0"/>
<feBlend mode="normal" in2="BackgroundImageFix" result="effect1_dropShadow_954_216"/>
<feBlend mode="normal" in="SourceGraphic" in2="effect1_dropShadow_954_216" result="shape"/>
</filter>
<clipPath id="clip0_954_216">
<rect width="16" height="16" fill="white"/>
</clipPath>
</defs>
</svg>
