<svg width="16" height="16" viewBox="0 0 16 16" fill="none" xmlns="http://www.w3.org/2000/svg">
<path d="M14.5 6.56V5.92C14.5 5.38984 14.0702 4.96 13.54 4.96H12.9C12.9 4.42984 12.4702 4 11.94 4H11.3C10.7698 4 10.34 4.42984 10.34 4.96V6.56H6.12V4.96C6.12 4.42984 5.69016 4 5.16 4H4.52C3.98984 4 3.56 4.42984 3.56 4.96H2.92C2.38984 4.96 1.96 5.38984 1.96 5.92V6.56C1.42984 6.56 1 6.98984 1 7.52C1 8.05016 1.42984 8.48 1.96 8.48V9.12C1.96 9.65016 2.38984 10.08 2.92 10.08H3.56C3.56 10.6102 3.98984 11.04 4.52 11.04H5.16C5.69016 11.04 6.12 10.6102 6.12 10.08V8.48H10.34V10.08C10.34 10.6102 10.7698 11.04 11.3 11.04H11.94C12.4702 11.04 12.9 10.6102 12.9 10.08H13.54C14.0702 10.08 14.5 9.65016 14.5 9.12V8.48C15.0302 8.48 15.46 8.05016 15.46 7.52C15.46 6.98984 15.0302 6.56 14.5 6.56ZM14.5 7.84V7.2C14.5849 7.2 14.6663 7.23371 14.7263 7.29373C14.7863 7.35374 14.82 7.43513 14.82 7.52C14.82 7.60487 14.7863 7.68626 14.7263 7.74627C14.6663 7.80629 14.5849 7.84 14.5 7.84ZM13.54 9.44H12.9V5.6H13.54C13.6249 5.6 13.7063 5.63371 13.7663 5.69373C13.8263 5.75374 13.86 5.83513 13.86 5.92V9.12C13.86 9.20487 13.8263 9.28626 13.7663 9.34627C13.7063 9.40629 13.6249 9.44 13.54 9.44ZM11.94 10.4H11.3C11.2151 10.4 11.1337 10.3663 11.0737 10.3063C11.0137 10.2463 10.98 10.1649 10.98 10.08V4.96C10.98 4.87513 11.0137 4.79374 11.0737 4.73373C11.1337 4.67371 11.2151 4.64 11.3 4.64H11.94C12.0249 4.64 12.1063 4.67371 12.1663 4.73373C12.2263 4.79374 12.26 4.87513 12.26 4.96V10.08C12.26 10.1649 12.2263 10.2463 12.1663 10.3063C12.1063 10.3663 12.0249 10.4 11.94 10.4ZM5.16 10.4H4.52C4.43513 10.4 4.35374 10.3663 4.29373 10.3063C4.23371 10.2463 4.2 10.1649 4.2 10.08V4.96C4.2 4.87513 4.23371 4.79374 4.29373 4.73373C4.35374 4.67371 4.43513 4.64 4.52 4.64H5.16C5.24487 4.64 5.32626 4.67371 5.38627 4.73373C5.44629 4.79374 5.48 4.87513 5.48 4.96V10.08C5.48 10.1649 5.44629 10.2463 5.38627 10.3063C5.32626 10.3663 5.24487 10.4 5.16 10.4ZM2.6 9.12V5.92C2.6 5.83513 2.63371 5.75374 2.69373 5.69373C2.75374 5.63371 2.83513 5.6 2.92 5.6H3.56V9.44H2.92C2.83513 9.44 2.75374 9.40629 2.69373 9.34627C2.63371 9.28626 2.6 9.20487 2.6 9.12ZM1.64 7.52C1.64 7.43513 1.67371 7.35374 1.73373 7.29373C1.79374 7.23371 1.87513 7.2 1.96 7.2V7.84C1.87513 7.84 1.79374 7.80629 1.73373 7.74627C1.67371 7.68626 1.64 7.60487 1.64 7.52ZM6.12 7.2H10.34V7.84H6.12V7.2Z" fill="#006DFF"/>
</svg>
