<svg width="14" height="13" viewBox="0 0 14 13" fill="none" xmlns="http://www.w3.org/2000/svg">
<path fill-rule="evenodd" clip-rule="evenodd" d="M3.64738 0.945125C3.37238 1.236 3.19163 1.69263 3.249 2.35337C3.2546 2.41936 3.23379 2.48487 3.19115 2.53553C3.1485 2.58619 3.08749 2.61786 3.02152 2.62358C2.95555 2.62931 2.89 2.60863 2.83926 2.56608C2.78852 2.52353 2.75673 2.46259 2.75087 2.39663C2.68337 1.61975 2.89425 1.014 3.284 0.601625C3.6705 0.192875 4.209 0 4.75 0H12.4375C12.4454 0 12.4532 0.000374978 12.4611 0.00112498C12.7154 0.025375 13.0898 0.128125 13.4074 0.36525C13.7345 0.6095 14 0.997375 14 1.5625C14 2.15925 13.7859 2.56125 13.4881 2.80925C13.2004 3.04912 12.8589 3.125 12.625 3.125C12.3509 3.125 12.0472 3.02988 11.8077 2.84725C11.5634 2.661 11.375 2.37375 11.375 2C11.375 1.64462 11.5178 1.38125 11.7406 1.21412C11.9525 1.055 12.2137 1 12.4375 1C12.5038 1 12.5674 1.02634 12.6143 1.07322C12.6612 1.12011 12.6875 1.1837 12.6875 1.25C12.6875 1.3163 12.6612 1.37989 12.6143 1.42678C12.5674 1.47366 12.5038 1.5 12.4375 1.5C12.2861 1.5 12.1411 1.53875 12.0406 1.614C11.9509 1.68138 11.875 1.79275 11.875 2C11.875 2.18887 11.9657 2.339 12.1109 2.44963C12.2607 2.56387 12.4572 2.625 12.625 2.625C12.7661 2.625 12.9871 2.57588 13.1681 2.42513C13.3391 2.28263 13.5 2.02825 13.5 1.5625C13.5 1.1775 13.328 0.93 13.1082 0.766C12.8836 0.59825 12.6086 0.519625 12.4251 0.5C11.9991 0.50125 11.6651 0.56775 11.412 0.71475C11.1645 0.858375 10.969 1.0935 10.8465 1.48688C10.7215 1.888 10.6743 2.44938 10.7338 3.22625C10.7931 4.00075 10.9574 4.97425 11.2431 6.19212C11.4961 7.23588 11.7425 8.81025 11.6494 10.1346C11.603 10.7948 11.4706 11.4209 11.1897 11.8892C10.8997 12.3731 10.4494 12.6875 9.8125 12.6875H1.53125C0.6855 12.6875 0 12.0019 0 11.1562C0 10.3105 0.6855 9.625 1.53125 9.625H3.375C3.375 8.98013 3.32888 8.33325 3.28275 7.91C3.26469 7.74305 3.2436 7.57644 3.2195 7.41025C3.21075 7.3515 3.19625 7.26137 3.19125 7.231C3.17971 7.16569 3.19459 7.09847 3.23262 7.04413C3.27064 6.9898 3.32869 6.95279 3.394 6.94125C3.45931 6.92971 3.52653 6.94459 3.58087 6.98262C3.6352 7.02064 3.67221 7.07869 3.68375 7.144C3.689 7.17688 3.70513 7.2765 3.71413 7.33775C3.73213 7.46063 3.756 7.6375 3.77975 7.85575C3.82725 8.29175 3.875 8.95737 3.875 9.625H9.0625C9.249 9.625 9.52975 9.66813 9.77325 9.80838C10.0291 9.95575 10.25 10.2175 10.25 10.625C10.25 10.9789 10.1381 11.2642 9.94438 11.4624C9.75225 11.6586 9.49813 11.75 9.25 11.75C9.1837 11.75 9.12011 11.7237 9.07322 11.6768C9.02634 11.6299 9 11.5663 9 11.5C9 11.4337 9.02634 11.3701 9.07322 11.3232C9.12011 11.2763 9.1837 11.25 9.25 11.25C9.37675 11.25 9.49775 11.2039 9.58687 11.1126C9.67437 11.0233 9.75 10.8711 9.75 10.625C9.75 10.4324 9.65838 10.3193 9.52375 10.2416C9.38488 10.1616 9.20963 10.1287 9.0845 10.1254C8.53825 10.2351 8.22962 10.6832 8.21075 11.1431C8.19237 11.5901 8.4495 12.05 9.08825 12.1875H9.8125C10.2506 12.1875 10.5487 11.9862 10.761 11.6322C10.9825 11.2627 11.1064 10.7286 11.1506 10.0997C11.2388 8.84637 11.004 7.3275 10.757 6.30888L10.7566 6.30713C10.4675 5.07525 10.2974 4.07413 10.2354 3.26438C10.1734 2.457 10.2175 1.82463 10.3691 1.33812C10.479 0.985625 10.6461 0.70825 10.8679 0.5H4.75C4.3245 0.5 3.92537 0.651 3.64738 0.945125ZM8.09112 12.1875C7.82025 11.891 7.69538 11.5064 7.71113 11.1225C7.72657 10.7533 7.86932 10.4009 8.11512 10.125H1.53125C1.25775 10.125 0.995443 10.2336 0.802046 10.427C0.608649 10.6204 0.5 10.8827 0.5 11.1562C0.5 11.4298 0.608649 11.6921 0.802046 11.8855C0.995443 12.0789 1.25775 12.1875 1.53125 12.1875H8.09112Z" fill="#FF5555"/>
<path fill-rule="evenodd" clip-rule="evenodd" d="M2.60959 2.91334C2.59188 2.86541 2.55991 2.82406 2.51798 2.79486C2.47605 2.76566 2.42619 2.75 2.37509 2.75C2.324 2.75 2.27413 2.76566 2.2322 2.79486C2.19027 2.82406 2.1583 2.86541 2.14059 2.91334L1.62347 4.31084L0.225841 4.82809C0.177914 4.8458 0.136564 4.87777 0.10736 4.9197C0.0781561 4.96163 0.0625 5.0115 0.0625 5.06259C0.0625 5.11369 0.0781561 5.16355 0.10736 5.20548C0.136564 5.24741 0.177914 5.27938 0.225841 5.29709L1.62334 5.81422L2.14059 7.21184C2.1583 7.25977 2.19027 7.30112 2.2322 7.33032C2.27413 7.35953 2.324 7.37518 2.37509 7.37518C2.42619 7.37518 2.47605 7.35953 2.51798 7.33032C2.55991 7.30112 2.59188 7.25977 2.60959 7.21184L3.12672 5.81434L4.52434 5.29709C4.57227 5.27938 4.61362 5.24741 4.64282 5.20548C4.67203 5.16355 4.68768 5.11369 4.68768 5.06259C4.68768 5.0115 4.67203 4.96163 4.64282 4.9197C4.61362 4.87777 4.57227 4.8458 4.52434 4.82809L3.12684 4.31097L2.60959 2.91334ZM2.05247 4.59234L2.37509 3.72047L2.69759 4.59234C2.71012 4.62615 2.72981 4.65684 2.75531 4.68232C2.78081 4.7078 2.81153 4.72747 2.84534 4.73997L3.71722 5.06259L2.84534 5.38509C2.81154 5.39762 2.78084 5.41731 2.75536 5.44281C2.72988 5.46831 2.71021 5.49903 2.69772 5.53284L2.37509 6.40472L2.05259 5.53284C2.04006 5.49904 2.02037 5.46834 1.99487 5.44286C1.96937 5.41738 1.93866 5.39771 1.90484 5.38522L1.03297 5.06259L1.90484 4.74009C1.93865 4.72756 1.96934 4.70787 1.99482 4.68237C2.0203 4.65687 2.03997 4.62616 2.05247 4.59234ZM7.00009 4.87509C7.05118 4.87508 7.10104 4.89073 7.14296 4.91991C7.18489 4.9491 7.21686 4.99043 7.23459 5.03834L7.68422 6.25347L8.89934 6.70309C8.94727 6.7208 8.98862 6.75277 9.01782 6.7947C9.04703 6.83663 9.06268 6.8865 9.06268 6.93759C9.06268 6.98869 9.04703 7.03855 9.01782 7.08048C8.98862 7.12241 8.94727 7.15438 8.89934 7.17209L7.68422 7.62172L7.23459 8.83684C7.21688 8.88477 7.18491 8.92612 7.14298 8.95532C7.10105 8.98453 7.05119 9.00018 7.00009 9.00018C6.949 9.00018 6.89913 8.98453 6.8572 8.95532C6.81527 8.92612 6.7833 8.88477 6.76559 8.83684L6.31597 7.62172L5.10084 7.17209C5.05291 7.15438 5.01156 7.12241 4.98236 7.08048C4.95316 7.03855 4.9375 6.98869 4.9375 6.93759C4.9375 6.8865 4.95316 6.83663 4.98236 6.7947C5.01156 6.75277 5.05291 6.7208 5.10084 6.70309L6.31597 6.25347L6.76559 5.03834C6.78332 4.99043 6.8153 4.9491 6.85722 4.91991C6.89915 4.89073 6.94901 4.87508 7.00009 4.87509ZM7.00009 5.84547L6.74509 6.53484C6.73256 6.56865 6.71287 6.59934 6.68737 6.62482C6.66187 6.6503 6.63116 6.66997 6.59734 6.68247L5.90797 6.93759L6.59734 7.19259C6.63115 7.20512 6.66184 7.22481 6.68732 7.25031C6.7128 7.27581 6.73247 7.30653 6.74497 7.34034L7.00009 8.02972L7.25509 7.34034C7.26762 7.30654 7.28731 7.27584 7.31281 7.25036C7.33831 7.22488 7.36903 7.20521 7.40284 7.19272L8.09222 6.93759L7.40284 6.68259C7.36904 6.67006 7.33834 6.65037 7.31286 6.62487C7.28738 6.59937 7.26771 6.56866 7.25522 6.53484L7.00009 5.84547ZM6.10959 1.66334C6.09188 1.61541 6.05991 1.57406 6.01798 1.54486C5.97605 1.51566 5.92619 1.5 5.87509 1.5C5.824 1.5 5.77413 1.51566 5.7322 1.54486C5.69027 1.57406 5.6583 1.61541 5.64059 1.66334L5.29222 2.60472L4.35084 2.95309C4.30291 2.9708 4.26156 3.00277 4.23236 3.0447C4.20316 3.08663 4.1875 3.1365 4.1875 3.18759C4.1875 3.23869 4.20316 3.28855 4.23236 3.33048C4.26156 3.37241 4.30291 3.40438 4.35084 3.42209L5.29222 3.77047L5.64059 4.71184C5.6583 4.75977 5.69027 4.80112 5.7322 4.83032C5.77413 4.85953 5.824 4.87518 5.87509 4.87518C5.92619 4.87518 5.97605 4.85953 6.01798 4.83032C6.05991 4.80112 6.09188 4.75977 6.10959 4.71184L6.45797 3.77047L7.39934 3.42209C7.44727 3.40438 7.48862 3.37241 7.51782 3.33048C7.54703 3.28855 7.56268 3.23869 7.56268 3.18759C7.56268 3.1365 7.54703 3.08663 7.51782 3.0447C7.48862 3.00277 7.44727 2.9708 7.39934 2.95309L6.45797 2.60472L6.10959 1.66334ZM5.72134 2.88609L5.87509 2.47047L6.02884 2.88609C6.04135 2.91992 6.06104 2.95064 6.08654 2.97614C6.11204 3.00165 6.14276 3.02133 6.17659 3.03384L6.59222 3.18759L6.17659 3.34134C6.14276 3.35385 6.11204 3.37354 6.08654 3.39904C6.06104 3.42454 6.04135 3.45526 6.02884 3.48909L5.87509 3.90472L5.72134 3.48909C5.70883 3.45526 5.68915 3.42454 5.66364 3.39904C5.63814 3.37354 5.60742 3.35385 5.57359 3.34134L5.15797 3.18759L5.57359 3.03384C5.60742 3.02133 5.63814 3.00165 5.66364 2.97614C5.68915 2.95064 5.70883 2.91992 5.72134 2.88609Z" fill="#FF5555"/>
</svg>
