<svg width="24" height="24" viewBox="0 0 24 24" fill="none" xmlns="http://www.w3.org/2000/svg">
<g clip-path="url(#clip0_1595_418)">
<path d="M22.0072 5.93366H21.8015C21.681 4.90133 20.8502 4.08284 19.812 3.98267C19.6928 2.86977 18.7487 2 17.6048 2H3.43837C1.54247 2 0 3.54247 0 5.43819V15.3711C0 16.523 0.881484 17.4724 2.00498 17.581C2.12292 18.682 3.04852 19.5444 4.17591 19.5626C4.17843 19.7532 4.20839 19.9424 4.26487 20.1245C4.51739 20.9351 5.27508 21.5253 6.16772 21.5253H22.0072C23.1061 21.5253 24 20.6314 24 19.5327V7.92641C24 6.82756 23.1061 5.93366 22.0072 5.93366ZM23.0625 7.92641V15.6016L21.0234 14.0613C20.4662 13.6406 19.7128 13.634 19.1484 14.045L16.569 15.9245L11.6501 10.8531C11.0641 10.2489 10.1107 10.2117 9.47953 10.7688L5.11266 14.6214V7.92641C5.11266 7.3445 5.586 6.87116 6.16772 6.87116H22.0072C22.5892 6.87116 23.0625 7.3445 23.0625 7.92641ZM23.0625 19.5325C23.0625 20.1144 22.5892 20.5878 22.0074 20.5878H6.16772C5.69513 20.5878 5.29397 20.2752 5.16028 19.846C5.12864 19.7446 5.11258 19.6389 5.11266 19.5327V15.8715L10.0999 11.4717C10.2224 11.3633 10.382 11.3063 10.5454 11.3126C10.7088 11.319 10.8635 11.3882 10.9772 11.5057L13.1972 13.7945C13.1972 13.7947 13.1972 13.7947 13.1973 13.7947L17.6159 18.3502C17.6595 18.3954 17.7118 18.4313 17.7696 18.4558C17.8275 18.4802 17.8896 18.4928 17.9524 18.4927C18.0699 18.4927 18.1877 18.4487 18.2787 18.3605C18.4643 18.1801 18.4689 17.8835 18.2887 17.6976L17.2282 16.6041L19.7005 14.8029C19.9287 14.6367 20.2332 14.6392 20.4584 14.8093L23.0625 16.7764V19.5325ZM2.92969 17.3431V6.27547C2.92969 6.22845 2.93203 6.18172 2.93681 6.13597C3.0068 5.44812 3.58959 4.90953 4.29567 4.90953H10.0294C10.2883 4.90953 10.4982 4.69972 10.4982 4.44078C10.4982 4.18189 10.2883 3.97203 10.0294 3.97203H4.29562C3.02545 3.97203 1.99219 5.0053 1.99219 6.27547V16.6338C1.39327 16.526 0.9375 16.0008 0.9375 15.3711V5.43819C0.9375 4.05941 2.05941 2.9375 3.43837 2.9375H17.6048C18.2271 2.9375 18.7472 3.383 18.8632 3.97203H13.7794C13.5205 3.97203 13.3107 4.18189 13.3107 4.44078C13.3107 4.69972 13.5205 4.90953 13.7794 4.90953H19.597C20.2155 4.90953 20.7333 5.34992 20.8533 5.93366H6.16772C5.06911 5.93366 4.17516 6.82756 4.17516 7.92641V18.6251C3.48506 18.6055 2.92969 18.038 2.92969 17.3431Z" fill="black"/>
<path d="M18.2116 8.77888C17.1053 8.77888 16.2055 9.67888 16.2055 10.7848C16.2055 11.891 17.1055 12.7909 18.2116 12.7909C19.3175 12.7909 20.2175 11.8909 20.2175 10.7848C20.2175 9.67884 19.3175 8.77888 18.2116 8.77888ZM18.2116 11.8534C17.6224 11.8534 17.143 11.374 17.143 10.785C17.143 10.1958 17.6223 9.71638 18.2116 9.71638C18.8006 9.71638 19.28 10.1958 19.28 10.785C19.28 11.374 18.8006 11.8534 18.2116 11.8534ZM11.4716 4.62018C11.4834 4.6484 11.4979 4.67549 11.5147 4.70095C11.5317 4.72657 11.5512 4.75044 11.5729 4.7722C11.5945 4.79362 11.6183 4.8134 11.6442 4.83079C11.6954 4.86468 11.7527 4.88837 11.8129 4.90054C11.8734 4.91254 11.9357 4.91254 11.9962 4.90054C12.0261 4.89449 12.0552 4.88554 12.0838 4.87382C12.112 4.86208 12.1391 4.84767 12.1645 4.83079C12.19 4.81349 12.2139 4.79388 12.2358 4.7722C12.2576 4.75044 12.2773 4.72657 12.2944 4.70095C12.3112 4.67549 12.3257 4.6484 12.3374 4.62018C12.3491 4.59163 12.3581 4.56215 12.3641 4.53266C12.376 4.47215 12.376 4.4099 12.3641 4.34938C12.3581 4.31934 12.3491 4.28997 12.3374 4.26168C12.3141 4.20457 12.2795 4.15275 12.2357 4.10934C12.214 4.08762 12.1901 4.06812 12.1645 4.05112C12.139 4.03424 12.112 4.01983 12.0838 4.00809C12.0552 3.99637 12.0261 3.98737 11.9963 3.98137C11.9358 3.9691 11.8735 3.9691 11.813 3.98137C11.7527 3.99353 11.6954 4.01721 11.6441 4.05112C11.6184 4.06813 11.5945 4.08773 11.5729 4.10934C11.5512 4.13095 11.5317 4.15476 11.5147 4.18059C11.4977 4.20613 11.4833 4.23329 11.4716 4.26168C11.4599 4.28997 11.4509 4.31934 11.4449 4.34938C11.4388 4.37947 11.4356 4.41009 11.4355 4.44079C11.4355 4.47116 11.4389 4.5021 11.4449 4.53266C11.451 4.5622 11.4599 4.59163 11.4716 4.62018Z" fill="black"/>
</g>
<defs>
<clipPath id="clip0_1595_418">
<rect width="24" height="24" fill="white"/>
</clipPath>
</defs>
</svg>
