<svg width="26" height="26" viewBox="0 0 26 26" fill="none" xmlns="http://www.w3.org/2000/svg">
<g clip-path="url(#clip0_444_81)">
<mask id="mask0_444_81" style="mask-type:luminance" maskUnits="userSpaceOnUse" x="3" y="3" width="20" height="20">
<path d="M23 3H3V23H23V3Z" fill="white"/>
</mask>
<g mask="url(#mask0_444_81)">
<path d="M13.0001 13.39C12.93 13.39 12.86 13.3728 12.7964 13.3386L8.66641 11.1148C8.52723 11.0398 8.44043 10.8945 8.44043 10.7364V5.65351C8.44043 5.49542 8.52723 5.35011 8.66641 5.27519L12.7964 3.05136C12.9236 2.98288 13.0766 2.98288 13.2038 3.05136L17.3338 5.27519C17.473 5.35011 17.5598 5.49542 17.5598 5.65351V10.7365C17.5598 10.8946 17.473 11.0399 17.3338 11.1148L13.2038 13.3386C13.1402 13.3728 13.0702 13.39 13.0001 13.39ZM9.2998 10.4798L13.0001 12.4723L16.7004 10.4798V5.91015L13.0001 3.91769L9.2998 5.91015V10.4798Z" fill="#999999"/>
<path d="M7.55965 23.0001C7.48957 23.0001 7.41953 22.983 7.35594 22.9487L3.22598 20.7249C3.0868 20.65 3 20.5047 3 20.3466V15.2636C3 15.1055 3.0868 14.9602 3.22598 14.8853L7.35594 12.6615C7.48305 12.593 7.63617 12.593 7.76336 12.6615L11.8933 14.8853C12.0325 14.9602 12.1193 15.1055 12.1193 15.2636V20.3466C12.1193 20.5047 12.0325 20.65 11.8933 20.7249L7.76336 22.9487C7.69973 22.983 7.62973 23.0001 7.55965 23.0001ZM3.85938 20.09L7.55965 22.0824L11.2599 20.09V15.5203L7.55965 13.5278L3.85938 15.5203V20.09Z" fill="#999999"/>
<path d="M18.4403 23.0001C18.3703 23.0001 18.3002 22.983 18.2366 22.9487L14.1067 20.7249C13.9675 20.65 13.8807 20.5047 13.8807 20.3466V15.2636C13.8807 15.1055 13.9675 14.9602 14.1067 14.8853L18.2366 12.6615C18.3638 12.593 18.5169 12.593 18.6441 12.6615L22.774 14.8853C22.9132 14.9602 23 15.1055 23 15.2636V20.3466C23 20.5047 22.9132 20.65 22.774 20.7249L18.6441 22.9487C18.5805 22.9829 18.5104 23.0001 18.4403 23.0001ZM14.7402 20.0899L18.4404 22.0824L22.1406 20.0899V15.5203L18.4403 13.5278L14.7401 15.5203L14.7402 20.0899Z" fill="#999999"/>
<path d="M14.2706 7.67163H11.7292C11.1599 7.64933 11.1587 6.83507 11.7292 6.81226H14.2706C14.5079 6.81226 14.7003 7.00464 14.7003 7.24194C14.7003 7.47925 14.5079 7.67163 14.2706 7.67163Z" fill="#999999"/>
<path d="M13.6354 9.57764H12.3646C12.1273 9.57764 11.9349 9.38525 11.9349 9.14795C11.9349 8.91064 12.1273 8.71826 12.3646 8.71826H13.6354C14.205 8.74072 14.2055 9.55498 13.6354 9.57764Z" fill="#999999"/>
<path d="M8.83033 17.2817H6.28885C5.71955 17.2594 5.71842 16.4452 6.28885 16.4224H8.83029C9.0676 16.4224 9.25998 16.6147 9.25998 16.8521C9.25998 17.0894 9.06764 17.2817 8.83033 17.2817Z" fill="#999999"/>
<path d="M8.19506 19.1877H6.92432C6.68701 19.1877 6.49463 18.9954 6.49463 18.7581C6.49463 18.5208 6.68701 18.3284 6.92432 18.3284H8.19506C8.76471 18.3508 8.76518 19.165 8.19506 19.1877Z" fill="#999999"/>
<path d="M19.7111 17.2817H17.1696C16.6003 17.2594 16.5992 16.4452 17.1696 16.4224H19.7111C19.9484 16.4224 20.1408 16.6147 20.1408 16.8521C20.1408 17.0894 19.9484 17.2817 19.7111 17.2817Z" fill="#999999"/>
<path d="M19.0756 19.1877H17.8049C17.5676 19.1877 17.3752 18.9954 17.3752 18.7581C17.3752 18.5208 17.5676 18.3284 17.8049 18.3284H19.0756C19.6453 18.3508 19.6458 19.165 19.0756 19.1877Z" fill="#999999"/>
</g>
</g>
<defs>
<clipPath id="clip0_444_81">
<rect width="20" height="20" fill="white" transform="translate(3 3)"/>
</clipPath>
</defs>
</svg>
