<svg width="16" height="16" viewBox="0 0 16 16" fill="none" xmlns="http://www.w3.org/2000/svg">
<path d="M0.533333 15.9993H15.4667C15.6081 15.9993 15.7438 15.9431 15.8438 15.8431C15.9438 15.7431 16 15.6074 16 15.466V15.1993C15.9993 15.0344 15.9477 14.8738 15.8522 14.7394C15.7568 14.605 15.6221 14.5033 15.4667 14.4484V14.1326C15.466 13.9678 15.4144 13.8071 15.3189 13.6727C15.2234 13.5383 15.0888 13.4367 14.9333 13.3817V12.5326C14.9331 12.4394 14.9083 12.3479 14.8615 12.2673C14.8147 12.1867 14.7475 12.1199 14.6667 12.0734V5.79183C14.7475 5.74539 14.8147 5.67852 14.8615 5.59792C14.9083 5.51732 14.9331 5.42583 14.9333 5.33263V4.53263H15.2533C15.4268 4.52975 15.594 4.46749 15.7271 4.35622C15.8603 4.24495 15.9512 4.09141 15.9848 3.92121C16.0184 3.751 15.9926 3.57442 15.9118 3.42092C15.8309 3.26741 15.6999 3.14627 15.5405 3.0777L8.50053 0.100895C8.34206 0.0343015 8.1719 0 8 0C7.82811 0 7.65794 0.0343015 7.49947 0.100895L0.458933 3.0777C0.299534 3.14629 0.168481 3.26748 0.0876435 3.42104C0.00680577 3.57459 -0.0189269 3.75122 0.0147397 3.92146C0.0484062 4.0917 0.139435 4.24524 0.272637 4.35646C0.405839 4.46769 0.573156 4.52987 0.746667 4.53263H1.06667V5.33263C1.06695 5.42583 1.09173 5.51732 1.13854 5.59792C1.18534 5.67852 1.25252 5.74539 1.33333 5.79183V12.0734C1.25252 12.1199 1.18534 12.1867 1.13854 12.2673C1.09173 12.3479 1.06695 12.4394 1.06667 12.5326V13.3817C0.911224 13.4367 0.776558 13.5383 0.68109 13.6727C0.585622 13.8071 0.534017 13.9678 0.533333 14.1326V14.4484C0.377891 14.5033 0.243224 14.605 0.147757 14.7394C0.0522891 14.8738 0.000683458 15.0344 0 15.1993L0 15.466C0 15.6074 0.0561903 15.7431 0.15621 15.8431C0.256229 15.9431 0.391885 15.9993 0.533333 15.9993ZM9.06667 11.9993V7.73263H9.3672C9.41542 7.91643 9.51186 8.08401 9.64655 8.21805C9.78125 8.35209 9.9493 8.44771 10.1333 8.49503V11.9993H9.06667ZM8.53333 7.73263V11.9993H7.46667V7.73263H8.53333ZM10.4 7.9993C10.2586 7.9993 10.1229 7.94311 10.0229 7.84309C9.92286 7.74307 9.86667 7.60741 9.86667 7.46596V7.1993C9.86667 7.12857 9.89476 7.06074 9.94477 7.01073C9.99478 6.96072 10.0626 6.93263 10.1333 6.93263C10.2041 6.93263 10.2719 6.96072 10.3219 7.01073C10.3719 7.06074 10.4 7.12857 10.4 7.1993C10.4 7.27002 10.4281 7.33785 10.4781 7.38786C10.5281 7.43787 10.5959 7.46596 10.6667 7.46596C10.7374 7.46596 10.8052 7.43787 10.8552 7.38786C10.9052 7.33785 10.9333 7.27002 10.9333 7.1993C10.9333 6.98712 10.849 6.78364 10.699 6.63361C10.549 6.48358 10.3455 6.3993 10.1333 6.3993C9.92116 6.3993 9.71768 6.48358 9.56765 6.63361C9.41762 6.78364 9.33333 6.98712 9.33333 7.1993H6.66667C6.66667 6.98712 6.58238 6.78364 6.43235 6.63361C6.28232 6.48358 6.07884 6.3993 5.86667 6.3993C5.65449 6.3993 5.45101 6.48358 5.30098 6.63361C5.15095 6.78364 5.06667 6.98712 5.06667 7.1993C5.06667 7.27002 5.09476 7.33785 5.14477 7.38786C5.19478 7.43787 5.26261 7.46596 5.33333 7.46596C5.40406 7.46596 5.47189 7.43787 5.5219 7.38786C5.57191 7.33785 5.6 7.27002 5.6 7.1993C5.6 7.12857 5.6281 7.06074 5.6781 7.01073C5.72811 6.96072 5.79594 6.93263 5.86667 6.93263C5.93739 6.93263 6.00522 6.96072 6.05523 7.01073C6.10524 7.06074 6.13333 7.12857 6.13333 7.1993V7.46596C6.13333 7.60741 6.07714 7.74307 5.97712 7.84309C5.8771 7.94311 5.74145 7.9993 5.6 7.9993C5.3171 7.9993 5.04579 7.88692 4.84575 7.68688C4.64571 7.48684 4.53333 7.21553 4.53333 6.93263C4.53333 6.64973 4.64571 6.37842 4.84575 6.17838C5.04579 5.97834 5.3171 5.86596 5.6 5.86596H10.4C10.6829 5.86596 10.9542 5.97834 11.1542 6.17838C11.3543 6.37842 11.4667 6.64973 11.4667 6.93263C11.4667 7.21553 11.3543 7.48684 11.1542 7.68688C10.9542 7.88692 10.6829 7.9993 10.4 7.9993ZM5.86667 8.49503C6.0507 8.44771 6.21876 8.35209 6.35345 8.21805C6.48814 8.08401 6.58458 7.91643 6.6328 7.73263H6.93333V11.9993H5.86667V8.49503ZM10.6667 12.5326C10.7374 12.5326 10.8052 12.5607 10.8552 12.6107C10.9052 12.6607 10.9333 12.7286 10.9333 12.7993V13.3326H5.06667V12.7993C5.06667 12.7286 5.09476 12.6607 5.14477 12.6107C5.19478 12.5607 5.26261 12.5326 5.33333 12.5326H10.6667ZM10.6667 11.9993V8.50863C11.0603 8.43972 11.4138 8.22604 11.6578 7.90961C11.9018 7.59318 12.0186 7.1969 11.9851 6.79873C11.9517 6.40056 11.7705 6.02931 11.4771 5.75799C11.1838 5.48668 10.7996 5.33494 10.4 5.33263H5.6C5.20043 5.33494 4.81619 5.48668 4.52285 5.75799C4.22952 6.02931 4.04831 6.40056 4.01488 6.79873C3.98145 7.1969 4.09821 7.59318 4.3422 7.90961C4.58619 8.22604 4.93975 8.43972 5.33333 8.50863V11.9993C5.12116 11.9993 4.91768 12.0836 4.76765 12.2336C4.61762 12.3836 4.53333 12.5871 4.53333 12.7993V13.3326H3.73333V12.5326C3.73305 12.4394 3.70827 12.3479 3.66146 12.2673C3.61466 12.1867 3.54748 12.1199 3.46667 12.0734V5.79183C3.54748 5.74539 3.61466 5.67852 3.66146 5.59792C3.70827 5.51732 3.73305 5.42583 3.73333 5.33263V4.53263H12.2667V5.33263C12.2669 5.42583 12.2917 5.51732 12.3385 5.59792C12.3853 5.67852 12.4525 5.74539 12.5333 5.79183V12.0734C12.4525 12.1199 12.3853 12.1867 12.3385 12.2673C12.2917 12.3479 12.2669 12.4394 12.2667 12.5326V13.3326H11.4667V12.7993C11.4667 12.5871 11.3824 12.3836 11.2324 12.2336C11.0823 12.0836 10.8788 11.9993 10.6667 11.9993ZM1.6 12.5326H3.2V13.3326H1.6V12.5326ZM1.86667 5.86596H2.93333V11.9993H1.86667V5.86596ZM14.1333 11.9993H13.0667V5.86596H14.1333V11.9993ZM12.8 12.5326H14.4V13.3326H12.8V12.5326ZM14.4 5.33263H12.8V4.53263H14.4V5.33263ZM0.533333 3.7761C0.532698 3.73227 0.545011 3.68923 0.568729 3.65237C0.592447 3.61551 0.626516 3.58648 0.666667 3.5689L7.70667 0.592095C7.79936 0.552363 7.89915 0.531876 8 0.531876C8.10085 0.531876 8.20064 0.552363 8.29333 0.592095L15.3333 3.5689C15.3735 3.58648 15.4076 3.61551 15.4313 3.65237C15.455 3.68923 15.4673 3.73227 15.4667 3.7761C15.4673 3.80477 15.4624 3.83329 15.452 3.86003C15.4416 3.88677 15.4261 3.9112 15.4063 3.93193C15.3865 3.95266 15.3628 3.96928 15.3365 3.98084C15.3103 3.9924 15.282 3.99867 15.2533 3.9993H0.746667C0.717996 3.99867 0.68973 3.9924 0.663485 3.98084C0.63724 3.96928 0.613532 3.95266 0.593717 3.93193C0.573902 3.9112 0.55837 3.88677 0.548009 3.86003C0.537647 3.83329 0.53266 3.80477 0.533333 3.7761ZM3.2 4.53263V5.33263H1.6V4.53263H3.2ZM1.06667 14.1326C1.06667 14.0619 1.09476 13.9941 1.14477 13.9441C1.19478 13.8941 1.26261 13.866 1.33333 13.866H14.6667C14.7374 13.866 14.8052 13.8941 14.8552 13.9441C14.9052 13.9941 14.9333 14.0619 14.9333 14.1326V14.3993H1.06667V14.1326ZM0.533333 15.1993C0.533333 15.1286 0.561428 15.0607 0.611438 15.0107C0.661448 14.9607 0.729276 14.9326 0.8 14.9326H15.2C15.2707 14.9326 15.3386 14.9607 15.3886 15.0107C15.4386 15.0607 15.4667 15.1286 15.4667 15.1993V15.466H0.533333V15.1993Z" fill="#6DC021"/>
<path d="M8.00026 1.33252C7.78929 1.33252 7.58307 1.39508 7.40765 1.51229C7.23224 1.62949 7.09552 1.79608 7.01479 1.99099C6.93406 2.1859 6.91293 2.40037 6.95409 2.60728C6.99525 2.8142 7.09684 3.00426 7.24601 3.15343C7.39519 3.30261 7.58525 3.4042 7.79216 3.44536C7.99908 3.48652 8.21355 3.46539 8.40846 3.38466C8.60336 3.30392 8.76996 3.16721 8.88716 2.99179C9.00437 2.81638 9.06693 2.61015 9.06693 2.39919C9.06693 2.11629 8.95455 1.84498 8.75451 1.64494C8.55447 1.4449 8.28316 1.33252 8.00026 1.33252ZM8.00026 2.93252C7.89478 2.93252 7.79166 2.90124 7.70396 2.84264C7.61625 2.78403 7.54789 2.70074 7.50753 2.60328C7.46716 2.50583 7.4566 2.39859 7.47718 2.29514C7.49775 2.19168 7.54855 2.09665 7.62314 2.02206C7.69773 1.94747 7.79276 1.89668 7.89621 1.8761C7.99967 1.85552 8.10691 1.86608 8.20436 1.90645C8.30181 1.94682 8.38511 2.01518 8.44371 2.10288C8.50231 2.19059 8.53359 2.2937 8.53359 2.39919C8.53359 2.54064 8.4774 2.67629 8.37738 2.77631C8.27737 2.87633 8.14171 2.93252 8.00026 2.93252Z" fill="#6DC021"/>
</svg>
