<svg width="20" height="20" viewBox="0 0 20 20" fill="none" xmlns="http://www.w3.org/2000/svg">
<path fill-rule="evenodd" clip-rule="evenodd" d="M3.33268 9.16683C3.33303 7.76457 3.77554 6.39812 4.59727 5.26184C5.41899 4.12557 6.57808 3.27734 7.90968 2.8378C9.24128 2.39826 10.6776 2.38979 12.0143 2.81361C13.3509 3.23742 14.5199 4.07193 15.355 5.19844C16.1901 6.32495 16.6487 7.68609 16.6655 9.08825C16.6824 10.4904 16.2567 11.8622 15.449 13.0085C14.6413 14.1548 13.4927 15.0172 12.1666 15.473C10.8406 15.9289 9.40447 15.955 8.06268 15.5477C7.91831 15.5039 7.76477 15.5002 7.61845 15.5369C7.47213 15.5736 7.33851 15.6493 7.23185 15.756L5.58852 17.4002C5.54021 17.4485 5.47863 17.4815 5.41157 17.4948C5.34451 17.5081 5.27501 17.5012 5.21188 17.475C5.14875 17.4487 5.09485 17.4043 5.05701 17.3474C5.01917 17.2904 4.9991 17.2235 4.99935 17.1552V13.881C4.99925 13.6901 4.93365 13.5051 4.81352 13.3568C3.85295 12.1719 3.32998 10.6922 3.33268 9.16683ZM9.99935 0.833496C5.39685 0.833496 1.66602 4.56433 1.66602 9.16683C1.66602 11.0418 2.28685 12.7752 3.33268 14.1668V17.1552C3.33267 17.553 3.45064 17.942 3.67169 18.2728C3.89273 18.6037 4.20691 18.8615 4.57451 19.0138C4.9421 19.166 5.34659 19.2059 5.73683 19.1282C6.12706 19.0506 6.48551 18.859 6.76685 18.5777L8.06935 17.2752C8.68935 17.4227 9.33602 17.5002 9.99935 17.5002C14.6018 17.5002 18.3327 13.7693 18.3327 9.16683C18.3327 4.56433 14.6018 0.833496 9.99935 0.833496ZM10.8327 5.00016C10.8327 4.77915 10.7449 4.56719 10.5886 4.41091C10.4323 4.25463 10.2204 4.16683 9.99935 4.16683C9.77834 4.16683 9.56637 4.25463 9.41009 4.41091C9.25381 4.56719 9.16602 4.77915 9.16602 5.00016V9.16683C9.16602 9.38784 9.25381 9.5998 9.41009 9.75609C9.56637 9.91237 9.77834 10.0002 9.99935 10.0002H14.166C14.387 10.0002 14.599 9.91237 14.7553 9.75609C14.9116 9.5998 14.9993 9.38784 14.9993 9.16683C14.9993 8.94582 14.9116 8.73385 14.7553 8.57757C14.599 8.42129 14.387 8.3335 14.166 8.3335H10.8327V5.00016Z" fill="#6F6F6F"/>
</svg>
