<svg width="512" height="512" viewBox="0 0 512 512" fill="none" xmlns="http://www.w3.org/2000/svg">
<path d="M304 104H280V80C280 77.8783 279.157 75.8434 277.657 74.3431C276.156 72.8429 274.122 72 272 72H240C237.878 72 235.843 72.8429 234.343 74.3431C232.843 75.8434 232 77.8783 232 80V104H208C205.878 104 203.843 104.843 202.343 106.343C200.843 107.843 200 109.878 200 112V144C200 146.122 200.843 148.157 202.343 149.657C203.843 151.157 205.878 152 208 152H232V176C232 178.122 232.843 180.157 234.343 181.657C235.843 183.157 237.878 184 240 184H272C274.122 184 276.156 183.157 277.657 181.657C279.157 180.157 280 178.122 280 176V152H304C306.122 152 308.156 151.157 309.657 149.657C311.157 148.157 312 146.122 312 144V112C312 109.878 311.157 107.843 309.657 106.343C308.156 104.843 306.122 104 304 104ZM296 136H272C269.878 136 267.843 136.843 266.343 138.343C264.843 139.843 264 141.878 264 144V168H248V144C248 141.878 247.157 139.843 245.657 138.343C244.156 136.843 242.122 136 240 136H216V120H240C242.122 120 244.156 119.157 245.657 117.657C247.157 116.157 248 114.122 248 112V88H264V112C264 114.122 264.843 116.157 266.343 117.657C267.843 119.157 269.878 120 272 120H296V136ZM477.84 146.88C478.002 145.473 478.082 144.057 478.08 142.64C478.041 135.307 475.497 128.207 470.87 122.518C466.243 116.829 459.811 112.892 452.64 111.36C444.528 109.816 436.133 111.411 429.152 115.822C422.172 120.233 417.127 127.131 415.04 135.12L379.84 236.4C379.318 236.607 378.811 236.848 378.32 237.12L307.6 278.56C296.778 284.917 287.802 293.987 281.559 304.874C275.315 315.762 272.021 328.09 272 340.64V416C269.878 416 267.843 416.843 266.343 418.343C264.843 419.843 264 421.878 264 424V488C264 490.122 264.843 492.157 266.343 493.657C267.843 495.157 269.878 496 272 496H384C386.122 496 388.156 495.157 389.657 493.657C391.157 492.157 392 490.122 392 488V424C392 421.878 391.157 419.843 389.657 418.343C388.156 416.843 386.122 416 384 416V398.4C384.015 395.021 384.734 391.682 386.111 388.597C387.489 385.512 389.494 382.747 392 380.48L446.08 332.4C451.995 327.224 456.23 320.399 458.24 312.8L492.96 182.96C493.701 180.249 494.078 177.451 494.08 174.64C494.049 168.994 492.531 163.457 489.68 158.584C486.829 153.71 482.746 149.674 477.84 146.88ZM430.32 139.84C431.302 135.703 433.807 132.088 437.336 129.715C440.865 127.343 445.158 126.388 449.36 127.04C452.946 127.791 456.165 129.75 458.48 132.589C460.795 135.429 462.066 138.976 462.08 142.64V142.8C454.934 142.933 448.027 145.396 442.409 149.815C436.792 154.233 432.772 160.366 430.96 167.28L408.64 236.16C405.261 234.557 401.638 233.53 397.92 233.12L430.32 139.84ZM376 480H280V432H376V480ZM477.52 178.8L442.72 308.72C441.516 313.235 439.012 317.296 435.52 320.4L381.36 368.48C377.169 372.259 373.815 376.874 371.514 382.027C369.214 387.179 368.016 392.757 368 398.4V416H288V340.64C288.04 330.879 290.611 321.296 295.463 312.827C300.314 304.357 307.28 297.292 315.68 292.32L386.32 250.96C388.141 249.899 390.154 249.208 392.244 248.927C394.333 248.646 396.457 248.781 398.494 249.324C400.531 249.867 402.44 250.806 404.113 252.089C405.785 253.372 407.188 254.973 408.24 256.8C410.318 260.497 410.891 264.852 409.84 268.96C409.284 270.989 408.334 272.888 407.044 274.549C405.753 276.21 404.148 277.6 402.32 278.64L356.48 305.12C354.739 306.227 353.492 307.964 353.001 309.968C352.511 311.972 352.813 314.088 353.846 315.875C354.878 317.661 356.561 318.98 358.543 319.555C360.524 320.129 362.652 319.916 364.48 318.96L410.32 292.48C413.984 290.401 417.195 287.61 419.764 284.272C422.333 280.933 424.209 277.114 425.28 273.04C427.458 264.855 426.307 256.14 422.08 248.8L421.6 248.08L446.32 171.84C447.302 167.703 449.807 164.088 453.336 161.715C456.865 159.343 461.158 158.388 465.36 159.04C468.946 159.791 472.165 161.75 474.48 164.589C476.795 167.429 478.066 170.976 478.08 174.64C478.107 176.047 477.918 177.45 477.52 178.8ZM240 416V340.64C239.979 328.09 236.684 315.762 230.441 304.874C224.198 293.987 215.222 284.917 204.4 278.56L133.68 237.04C133.2 236.8 132.64 236.64 132.16 236.4L97.1999 135.68C95.168 127.574 90.1239 120.547 83.0942 116.029C76.0644 111.511 67.5773 109.842 59.3599 111.36C52.1887 112.892 45.7564 116.829 41.1294 122.518C36.5025 128.207 33.9587 135.307 33.9199 142.64C33.9178 144.057 33.998 145.473 34.1599 146.88C29.254 149.674 25.1703 153.71 22.3195 158.584C19.4687 163.457 17.9513 168.994 17.9199 174.64C17.9355 177.445 18.2846 180.238 18.9599 182.96L53.7599 312.72C55.7486 320.351 59.9852 327.207 65.9199 332.4L119.92 380.48C122.451 382.731 124.478 385.491 125.87 388.579C127.263 391.666 127.988 395.013 128 398.4V416C125.878 416 123.843 416.843 122.343 418.343C120.843 419.843 120 421.878 120 424V488C120 490.122 120.843 492.157 122.343 493.657C123.843 495.157 125.878 496 128 496H240C242.122 496 244.156 495.157 245.657 493.657C247.157 492.157 248 490.122 248 488V424C248 421.878 247.157 419.843 245.657 418.343C244.156 416.843 242.122 416 240 416ZM49.9199 142.64C49.9298 138.988 51.189 135.448 53.4884 132.611C55.7878 129.773 58.9889 127.807 62.5599 127.04C66.8772 126.413 71.2718 127.442 74.8623 129.92C78.4529 132.398 80.974 136.141 81.9199 140.4L114.08 233.12C110.362 233.53 106.739 234.557 103.36 236.16L81.1999 167.68C79.3965 160.698 75.3682 154.493 69.7245 150.004C64.0809 145.515 57.1288 142.986 49.9199 142.8V142.64ZM130.56 368.48L76.4799 320.4C72.9683 317.279 70.4624 313.187 69.2799 308.64L34.3999 178.8C34.0688 177.438 33.9075 176.041 33.9199 174.64C33.9298 170.988 35.189 167.448 37.4884 164.611C39.7878 161.773 42.9889 159.807 46.5599 159.04C50.8468 158.397 55.2183 159.4 58.7952 161.849C62.3722 164.298 64.8891 168.011 65.8399 172.24L90.3999 248.08L89.9199 248.8C85.6927 256.14 84.5422 264.855 86.7199 273.04C87.791 277.114 89.6664 280.933 92.2356 284.272C94.8048 287.61 98.0159 290.401 101.68 292.48L147.52 318.96C149.348 319.916 151.475 320.129 153.457 319.555C155.439 318.98 157.122 317.661 158.154 315.875C159.187 314.088 159.489 311.972 158.998 309.968C158.508 307.964 157.261 306.227 155.52 305.12L109.68 278.64C107.852 277.6 106.247 276.21 104.956 274.549C103.666 272.888 102.716 270.989 102.16 268.96C101.109 264.852 101.682 260.497 103.76 256.8C104.805 254.977 106.199 253.378 107.863 252.094C109.526 250.81 111.426 249.866 113.454 249.317C115.482 248.767 117.598 248.622 119.682 248.89C121.766 249.158 123.777 249.835 125.6 250.88L196.32 292.32C204.72 297.292 211.686 304.357 216.537 312.827C221.389 321.296 223.96 330.879 224 340.64V416H144V398.4C143.986 392.749 142.782 387.164 140.467 382.008C138.151 376.853 134.776 372.244 130.56 368.48ZM232 480H136V432H232V480Z" fill="#05FFC5"/>
<path d="M369.176 41.056C361.749 33.6163 352.928 27.7142 343.218 23.6874C333.507 19.6607 323.098 17.5884 312.586 17.5892C302.074 17.5899 291.665 19.6637 281.955 23.6918C272.245 27.7199 263.425 33.6232 256 41.064C248.575 33.623 239.755 27.7196 230.046 23.6917C220.336 19.6638 209.927 17.5905 199.416 17.5905C188.904 17.5905 178.495 19.6638 168.786 23.6917C159.076 27.7196 150.257 33.623 142.832 41.064C127.858 56.0694 119.449 76.4019 119.449 97.6C119.449 118.798 127.858 139.131 142.832 154.136L250.352 261.656C251.852 263.156 253.886 263.998 256.008 263.998C258.129 263.998 260.163 263.156 261.664 261.656L369.184 154.136C384.156 139.128 392.564 118.794 392.563 97.5943C392.561 76.3949 384.15 56.0617 369.176 41.056ZM256 244.688L154.136 142.824C145.193 133.869 139.106 122.463 136.644 110.049C134.182 97.6351 135.456 84.7698 140.305 73.0796C145.154 61.3895 153.36 51.3994 163.885 44.3722C174.411 37.3451 186.784 33.5964 199.44 33.6C207.847 33.5711 216.175 35.2165 223.94 38.4401C231.704 41.6638 238.749 46.4012 244.664 52.376L250.344 58.056C251.844 59.5558 253.878 60.3983 256 60.3983C258.121 60.3983 260.155 59.5558 261.656 58.056L267.352 52.36C273.291 46.41 280.345 41.6896 288.111 38.4689C295.876 35.2482 304.201 33.5904 312.608 33.5904C321.015 33.5904 329.339 35.2482 337.105 38.4689C344.87 41.6896 351.924 46.41 357.864 52.36C369.847 64.3598 376.578 80.6253 376.578 97.584C376.578 114.543 369.847 130.808 357.864 142.808L256 244.688Z" fill="#05FFC5"/>
</svg>
