<svg width="12" height="13" viewBox="0 0 12 13" fill="none" xmlns="http://www.w3.org/2000/svg">
<circle cx="6" cy="6.02148" r="6" fill="#3CDAD3"/>
<g clip-path="url(#clip0_1557_3136)">
<path d="M2.40147 3.99688C2.40345 3.7813 2.3843 3.56374 2.45164 3.35277C2.59094 2.91567 2.8768 2.6236 3.31451 2.48911C3.6413 2.3889 3.97865 2.4278 4.31271 2.43703C4.66459 2.44626 4.96101 2.58668 5.20198 2.84117C5.41126 3.06268 5.53207 3.32837 5.54396 3.63164C5.55518 3.91316 5.56574 4.19665 5.53472 4.4775C5.472 5.03591 4.97422 5.52246 4.41108 5.56597C4.08032 5.59168 3.74693 5.60751 3.41816 5.54817C2.84907 5.44466 2.41269 4.92054 2.40147 4.34235C2.39949 4.22697 2.40147 4.11226 2.40147 3.99688ZM3.34289 4.00282C3.34289 4.10171 3.34223 4.19994 3.34289 4.29884C3.34487 4.48673 3.48021 4.62848 3.66705 4.63177C3.86972 4.63507 4.07306 4.63507 4.2764 4.63177C4.46191 4.62914 4.59725 4.49266 4.59923 4.30741C4.60187 4.10764 4.60187 3.90722 4.59923 3.70746C4.59725 3.51561 4.45795 3.37914 4.26386 3.37716C4.0691 3.37584 3.87434 3.37584 3.67959 3.37716C3.48417 3.37848 3.34421 3.51957 3.34289 3.71537C3.34223 3.81097 3.34289 3.90722 3.34289 4.00282Z" fill="white"/>
<path d="M9.59581 8.04546C9.58921 8.26829 9.61034 8.48586 9.54366 8.69682C9.40568 9.13459 9.11718 9.42203 8.68211 9.56444C8.54809 9.60795 8.40946 9.62377 8.26818 9.6185C8.01598 9.60927 7.76247 9.64223 7.51226 9.59806C6.8831 9.48664 6.44342 8.9612 6.44606 8.32433C6.44672 8.08303 6.42955 7.84174 6.45728 7.6011C6.52198 7.04203 6.94252 6.57988 7.5083 6.49813C7.87866 6.44406 8.26025 6.43088 8.62996 6.5179C9.19376 6.65108 9.58063 7.14752 9.59383 7.72373C9.59647 7.83317 9.60967 7.94261 9.59713 8.0448L9.59581 8.04546ZM8.65042 8.05073C8.65042 7.95777 8.65042 7.86481 8.65042 7.7712C8.64976 7.5622 8.51905 7.42046 8.31241 7.41452C8.11765 7.40925 7.9229 7.40925 7.7288 7.41452C7.54131 7.4198 7.40993 7.53517 7.39343 7.72175C7.37428 7.93667 7.3756 8.15424 7.39211 8.36982C7.40663 8.56167 7.54923 8.67507 7.74465 8.67573C7.93082 8.67573 8.11765 8.67573 8.30383 8.67573C8.50914 8.67507 8.6491 8.53464 8.65042 8.33027C8.65042 8.23731 8.65042 8.14435 8.65042 8.05073Z" fill="white"/>
<path d="M3.97184 9.61384C3.7586 9.61055 3.54338 9.63098 3.33476 9.56572C2.88583 9.42529 2.58742 9.13455 2.45011 8.68162C2.40323 8.52735 2.39927 8.36912 2.40059 8.21024C2.40191 8.04278 2.39861 7.87598 2.40455 7.70852C2.42634 7.04265 2.96835 6.49677 3.63712 6.47962C3.9243 6.47237 4.21413 6.45194 4.49999 6.50138C5.08623 6.60291 5.53384 7.1244 5.5444 7.71841C5.54902 7.96762 5.56091 8.21749 5.53714 8.46604C5.47706 9.1029 4.93439 9.60066 4.29335 9.61318C4.1864 9.61516 4.07945 9.61318 3.9725 9.61318L3.97184 9.61384ZM3.9758 8.67898C4.06888 8.67898 4.16263 8.67964 4.25572 8.67898C4.46236 8.67701 4.60232 8.54185 4.60562 8.33484C4.60892 8.14035 4.60892 7.94586 4.60562 7.75138C4.60232 7.55096 4.46104 7.41251 4.26034 7.41053C4.06822 7.40855 3.87611 7.40855 3.684 7.41053C3.4833 7.41185 3.34202 7.5503 3.33872 7.75072C3.33608 7.94784 3.33542 8.14497 3.33806 8.34275C3.34004 8.53526 3.48462 8.67569 3.67937 8.67898C3.7784 8.6803 3.87677 8.67898 3.9758 8.67898Z" fill="white"/>
<path d="M7.98962 5.56914C7.83381 5.5632 7.66084 5.57968 7.48853 5.54936C6.89899 5.44453 6.44874 4.90854 6.44874 4.31057C6.44874 4.09103 6.43884 3.87149 6.4527 3.65261C6.49693 2.96234 7.01386 2.46261 7.70706 2.43689C7.92888 2.42898 8.15202 2.4303 8.37384 2.43887C9.02941 2.46327 9.57472 3.01376 9.58925 3.66843C9.59519 3.93676 9.61104 4.2064 9.57671 4.47341C9.49682 5.0872 8.95613 5.5632 8.33687 5.56914C8.22728 5.57045 8.11703 5.56914 7.99028 5.56914H7.98962ZM8.65508 4.00466C8.65508 3.90577 8.65706 3.80754 8.65508 3.70865C8.65112 3.51548 8.50852 3.37373 8.31443 3.37109C8.12495 3.36846 7.93614 3.3678 7.74667 3.36912C7.52682 3.37043 7.38885 3.50822 7.3862 3.72974C7.38422 3.91566 7.38422 4.10224 7.3862 4.28815C7.38885 4.49451 7.52418 4.63428 7.73082 4.63889C7.92822 4.64351 8.12561 4.64351 8.32301 4.63889C8.51314 4.63428 8.65046 4.49121 8.65508 4.30068C8.65773 4.20245 8.65508 4.10355 8.65508 4.00466Z" fill="white"/>
</g>
<defs>
<clipPath id="clip0_1557_3136">
<rect width="7.2" height="7.2" fill="white" transform="translate(2.40039 2.42188)"/>
</clipPath>
</defs>
</svg>
