<svg width="20" height="20" viewBox="0 0 20 20" fill="none" xmlns="http://www.w3.org/2000/svg">
<g clip-path="url(#clip0_1627_279)">
<path d="M18.3394 4.94455H18.1679C18.0675 4.08428 17.3752 3.40221 16.51 3.31873C16.4107 2.39131 15.6239 1.6665 14.6707 1.6665H2.86531C1.28539 1.6665 0 2.95189 0 4.53166V12.8091C0 13.769 0.73457 14.5602 1.67082 14.6507C1.7691 15.5682 2.54043 16.2869 3.47992 16.302C3.48202 16.4608 3.50699 16.6185 3.55406 16.7703C3.76449 17.4458 4.3959 17.9376 5.13977 17.9376H18.3394C19.2551 17.9376 20 17.1926 20 16.2771V6.60518C20 5.68947 19.2551 4.94455 18.3394 4.94455ZM19.2188 6.60518V13.0012L17.5195 11.7176C17.0552 11.367 16.4273 11.3615 15.957 11.704L13.8075 13.2702L9.7084 9.04412C9.22012 8.54061 8.42559 8.50963 7.89961 8.97381L4.26055 12.1844V6.60518C4.26055 6.12025 4.655 5.7258 5.13977 5.7258H18.3394C18.8243 5.7258 19.2188 6.12025 19.2188 6.60518ZM19.2188 16.2769C19.2188 16.7619 18.8243 17.1563 18.3395 17.1563H5.13977C4.74594 17.1563 4.41164 16.8958 4.30023 16.5382C4.27386 16.4537 4.26048 16.3656 4.26055 16.2771V13.2261L8.4166 9.55955C8.51866 9.46921 8.65164 9.42175 8.78783 9.42704C8.92402 9.43233 9.05291 9.48997 9.14766 9.58795L10.9977 11.4953C10.9977 11.4954 10.9977 11.4954 10.9978 11.4954L14.6799 15.2917C14.7162 15.3293 14.7598 15.3592 14.808 15.3796C14.8562 15.4 14.908 15.4105 14.9604 15.4104C15.0583 15.4104 15.1564 15.3738 15.2322 15.3003C15.387 15.1499 15.3908 14.9028 15.2406 14.7479L14.3568 13.8366L16.4171 12.3356C16.6072 12.1971 16.861 12.1992 17.0486 12.341L19.2188 13.9802V16.2769ZM2.44141 14.4524V5.22939C2.44141 5.19021 2.44336 5.15127 2.44734 5.11314C2.50566 4.53994 2.99133 4.09111 3.57973 4.09111H8.35785C8.57359 4.09111 8.74848 3.91627 8.74848 3.70049C8.74848 3.48475 8.57359 3.30986 8.35785 3.30986H3.57969C2.52121 3.30986 1.66016 4.17092 1.66016 5.22939V13.8613C1.16105 13.7715 0.78125 13.3338 0.78125 12.8091V4.53166C0.78125 3.38268 1.71617 2.44775 2.86531 2.44775H14.6707C15.1892 2.44775 15.6227 2.819 15.7193 3.30986H11.4829C11.2671 3.30986 11.0922 3.48475 11.0922 3.70049C11.0922 3.91627 11.2671 4.09111 11.4829 4.09111H16.3309C16.8463 4.09111 17.2778 4.45811 17.3777 4.94455H5.13977C4.22426 4.94455 3.4793 5.68947 3.4793 6.60518V15.5207C2.90422 15.5044 2.44141 15.0315 2.44141 14.4524Z" fill="black"/>
<path d="M15.176 7.31565C14.2541 7.31565 13.5043 8.06565 13.5043 8.98726C13.5043 9.90905 14.2542 10.659 15.176 10.659C16.0976 10.659 16.8476 9.90901 16.8476 8.98726C16.8476 8.06562 16.0976 7.31565 15.176 7.31565ZM15.176 9.87776C14.685 9.87776 14.2855 9.47827 14.2855 8.98741C14.2855 8.4964 14.685 8.0969 15.176 8.0969C15.6669 8.0969 16.0664 8.4964 16.0664 8.98741C16.0664 9.47827 15.6669 9.87776 15.176 9.87776ZM9.55937 3.85007C9.56914 3.87358 9.58125 3.89616 9.59523 3.91737C9.60941 3.93873 9.62568 3.95861 9.64379 3.97675C9.66176 3.9946 9.6816 4.01108 9.70316 4.02558C9.74586 4.05382 9.79361 4.07356 9.84379 4.0837C9.89421 4.0937 9.9461 4.0937 9.99652 4.0837C10.0214 4.07866 10.0457 4.0712 10.0695 4.06144C10.093 4.05165 10.1156 4.03964 10.1368 4.02558C10.158 4.01116 10.1779 3.99482 10.1962 3.97675C10.2144 3.95862 10.2307 3.93873 10.245 3.91737C10.259 3.89616 10.2711 3.87358 10.2808 3.85007C10.2906 3.82628 10.2981 3.80171 10.3031 3.77714C10.313 3.72671 10.313 3.67483 10.3031 3.6244C10.2981 3.59937 10.2906 3.57489 10.2808 3.55132C10.2614 3.50373 10.2326 3.46055 10.1961 3.42437C10.178 3.40627 10.1581 3.39002 10.1368 3.37585C10.1155 3.36179 10.093 3.34978 10.0695 3.33999C10.0457 3.33023 10.0214 3.32273 9.99656 3.31773C9.94616 3.3075 9.89423 3.3075 9.84383 3.31773C9.79362 3.32786 9.74585 3.3476 9.70312 3.37585C9.68164 3.39003 9.6618 3.40636 9.64375 3.42437C9.6257 3.44237 9.60945 3.46222 9.59523 3.48374C9.58108 3.50503 9.56906 3.52766 9.55937 3.55132C9.54957 3.57489 9.54212 3.59937 9.53711 3.6244C9.53199 3.64947 9.52937 3.67499 9.5293 3.70058C9.5293 3.72589 9.53207 3.75167 9.53711 3.77714C9.54219 3.80175 9.54961 3.82628 9.55937 3.85007Z" fill="black"/>
</g>
<defs>
<clipPath id="clip0_1627_279">
<rect width="20" height="20" fill="white"/>
</clipPath>
</defs>
</svg>
