<svg width="16" height="16" viewBox="0 0 16 16" fill="none" xmlns="http://www.w3.org/2000/svg">
<path fill-rule="evenodd" clip-rule="evenodd" d="M1.58833 15.166C1.46138 15.1839 1.33238 15.1525 1.22792 15.0781C1.12347 15.0038 1.05151 14.8922 1.0269 14.7664C1.00228 14.6405 1.02687 14.5101 1.0956 14.4018C1.16434 14.2936 1.27198 14.2159 1.39633 14.1846C1.39633 14.1846 6.26833 13.212 9.737 7.74063C9.77219 7.68517 9.81797 7.63718 9.87171 7.59941C9.92544 7.56164 9.9861 7.53482 10.0502 7.52049C10.1143 7.50616 10.1806 7.50459 10.2453 7.51589C10.31 7.52718 10.3719 7.5511 10.4273 7.5863C10.4828 7.62149 10.5308 7.66726 10.5686 7.721C10.6063 7.77474 10.6331 7.8354 10.6475 7.8995C10.6618 7.9636 10.6634 8.0299 10.6521 8.09461C10.6408 8.15932 10.6169 8.22117 10.5817 8.27663C6.853 14.1573 1.58833 15.166 1.58833 15.166ZM6.37766 6.1153C6.4375 6.23363 6.44801 6.37085 6.4069 6.49692C6.3658 6.62299 6.27642 6.72764 6.15833 6.78796C6.04 6.8478 5.90277 6.85831 5.7767 6.8172C5.65064 6.7761 5.54599 6.68672 5.48566 6.56863C5.18013 5.96832 4.91228 5.34957 4.68366 4.71596C4.63884 4.59113 4.64544 4.45361 4.70202 4.33365C4.75859 4.21369 4.8605 4.12112 4.98533 4.0763C5.11016 4.03148 5.24768 4.03808 5.36764 4.09465C5.4876 4.15122 5.58018 4.25313 5.625 4.37796C5.84366 4.9873 6.099 5.5673 6.37766 6.1153Z" fill="#188737"/>
<path fill-rule="evenodd" clip-rule="evenodd" d="M14.6419 2.54798C14.6419 2.54798 15.2585 4.87531 14.8899 7.47331C14.6385 9.24531 13.9299 11.1353 12.2992 12.5286C10.5879 13.9913 7.83585 14.924 3.44452 14.5066C3.32681 14.4954 3.21688 14.4429 3.13425 14.3583C3.05162 14.2737 3.00164 14.1626 2.99319 14.0446C2.99319 14.0446 2.60585 8.58931 6.47785 5.06331C8.12852 3.55931 10.5539 2.39531 14.1279 2.17598C14.2433 2.16894 14.3577 2.20217 14.4514 2.27C14.5451 2.33783 14.6124 2.43607 14.6419 2.54798ZM13.7639 3.20598C10.7112 3.46798 8.60185 4.48131 7.15119 5.80264C4.24985 8.44464 3.98385 12.2806 3.98052 13.5486C7.74119 13.834 10.1432 13.056 11.6499 11.7686C13.0772 10.5486 13.6792 8.88464 13.8999 7.33264C14.1505 5.56664 13.9079 3.93598 13.7639 3.20598Z" fill="#188737"/>
<path fill-rule="evenodd" clip-rule="evenodd" d="M8.65956 4.0333C8.70067 4.0849 8.73117 4.14412 8.74929 4.20756C8.76741 4.27099 8.7728 4.33739 8.76514 4.40291C8.75748 4.46844 8.73694 4.53181 8.70468 4.58936C8.67242 4.64691 8.62909 4.6975 8.57719 4.73823C8.52529 4.77896 8.46585 4.80901 8.40228 4.82666C8.33871 4.84431 8.27228 4.84921 8.20681 4.84106C8.14134 4.83292 8.07813 4.8119 8.02082 4.77922C7.96351 4.74654 7.91324 4.70283 7.87289 4.65063C7.01356 3.55597 5.68889 2.58063 3.68756 1.93063C3.35496 2.71345 3.12224 3.53502 2.99489 4.37597C2.77223 5.91597 2.92289 7.81663 4.49423 9.23197C4.54458 9.27547 4.58574 9.32859 4.6153 9.3882C4.64486 9.44782 4.66222 9.51274 4.66637 9.57915C4.67052 9.64556 4.66137 9.71214 4.63945 9.77497C4.61754 9.8378 4.58331 9.89563 4.53876 9.94506C4.49421 9.99449 4.44024 10.0345 4.38002 10.0628C4.3198 10.0911 4.25453 10.1071 4.18804 10.1099C4.12156 10.1126 4.05519 10.1021 3.99283 10.0789C3.93047 10.0556 3.87338 10.0202 3.82489 9.97463C1.96289 8.2973 1.74156 6.05863 2.00556 4.23263C2.26156 2.45997 2.97223 1.09463 2.97223 1.09463C3.02528 0.991854 3.11242 0.910715 3.21871 0.865108C3.32501 0.819501 3.44385 0.812263 3.55489 0.844634C6.04089 1.56397 7.63889 2.73263 8.65956 4.0333Z" fill="#188737"/>
</svg>
