<svg width="100" height="100" viewBox="0 0 100 100" fill="none" xmlns="http://www.w3.org/2000/svg">
<mask id="mask0_1514_495" style="mask-type:luminance" maskUnits="userSpaceOnUse" x="0" y="0" width="100" height="100">
<path d="M0 7.62939e-06H100V100H0V7.62939e-06Z" fill="white"/>
</mask>
<g mask="url(#mask0_1514_495)">
<path d="M35.1562 14.8438C35.1562 19.6979 31.2213 23.6328 26.3672 23.6328C21.5131 23.6328 17.5781 19.6979 17.5781 14.8438C17.5781 9.98965 21.5131 6.05469 26.3672 6.05469C31.2213 6.05469 35.1562 9.98965 35.1562 14.8438Z" stroke="#7FBDE7" stroke-width="5.85937" stroke-miterlimit="10"/>
<path d="M26.3672 61.7188V93.9453" stroke="#7FBDE7" stroke-width="5.85937" stroke-miterlimit="10"/>
<path d="M14.6484 38.2812V64.6484" stroke="#7FBDE7" stroke-width="5.85937" stroke-miterlimit="10"/>
<path d="M2.92969 41.2109V64.6484H14.6484V93.9453H38.0859V41.2109H61.7187V29.4922H14.6484C8.17637 29.4922 2.92969 34.7389 2.92969 41.2109Z" stroke="#7FBDE7" stroke-width="5.85937" stroke-miterlimit="10"/>
<path d="M34.6561 11.9141H97.0704V64.6484H38.086" stroke="#7FBDE7" stroke-width="5.85937" stroke-miterlimit="10"/>
<path d="M61.7188 3.125V11.9141" stroke="#7FBDE7" stroke-width="5.85937" stroke-miterlimit="10"/>
<path d="M61.7188 64.6484L73.4375 93.9453" stroke="#7FBDE7" stroke-width="5.85937" stroke-miterlimit="10"/>
<path d="M50 93.9453L61.7188 64.6484" stroke="#7FBDE7" stroke-width="5.85937" stroke-miterlimit="10"/>
</g>
</svg>
