<svg width="12" height="12" viewBox="0 0 12 12" fill="none" xmlns="http://www.w3.org/2000/svg">
<g clip-path="url(#clip0_1383_5008)">
<path fill-rule="evenodd" clip-rule="evenodd" d="M5.4 0H2.4C1.76348 0 1.15303 0.252856 0.702944 0.702944C0.252856 1.15303 0 1.76348 0 2.4V9.6C0 10.2365 0.252856 10.847 0.702944 11.2971C1.15303 11.7471 1.76348 12 2.4 12H9.6C10.2365 12 10.847 11.7471 11.2971 11.2971C11.7471 10.847 12 10.2365 12 9.6V6.6C12 6.44087 11.9368 6.28826 11.8243 6.17574C11.7117 6.06321 11.5591 6 11.4 6C11.2409 6 11.0883 6.06321 10.9757 6.17574C10.8632 6.28826 10.8 6.44087 10.8 6.6V9.6C10.8 9.91826 10.6736 10.2235 10.4485 10.4485C10.2235 10.6736 9.91826 10.8 9.6 10.8H2.4C2.08174 10.8 1.77652 10.6736 1.55147 10.4485C1.32643 10.2235 1.2 9.91826 1.2 9.6V2.4C1.2 2.08174 1.32643 1.77652 1.55147 1.55147C1.77652 1.32643 2.08174 1.2 2.4 1.2H5.4C5.55913 1.2 5.71174 1.13679 5.82426 1.02426C5.93679 0.911742 6 0.75913 6 0.6C6 0.44087 5.93679 0.288258 5.82426 0.175736C5.71174 0.0632141 5.55913 0 5.4 0ZM9.9516 1.2H7.8C7.64087 1.2 7.48826 1.13679 7.37574 1.02426C7.26321 0.911742 7.2 0.75913 7.2 0.6C7.2 0.44087 7.26321 0.288258 7.37574 0.175736C7.48826 0.0632141 7.64087 0 7.8 0H11.4C11.5591 0 11.7117 0.0632141 11.8243 0.175736C11.9368 0.288258 12 0.44087 12 0.6V4.2C12 4.35913 11.9368 4.51174 11.8243 4.62426C11.7117 4.73679 11.5591 4.8 11.4 4.8C11.2409 4.8 11.0883 4.73679 10.9757 4.62426C10.8632 4.51174 10.8 4.35913 10.8 4.2V2.0484L6.4242 6.4242C6.31104 6.53349 6.15948 6.59397 6.00216 6.5926C5.84484 6.59124 5.69435 6.52814 5.58311 6.41689C5.47186 6.30565 5.40876 6.15516 5.4074 5.99784C5.40603 5.84052 5.46651 5.68896 5.5758 5.5758L9.9516 1.2Z" fill="#3CDAD3"/>
</g>
<defs>
<clipPath id="clip0_1383_5008">
<rect width="12" height="12" fill="white"/>
</clipPath>
</defs>
</svg>
