<svg width="20" height="20" viewBox="0 0 20 20" fill="none" xmlns="http://www.w3.org/2000/svg">
<path fill-rule="evenodd" clip-rule="evenodd" d="M15.0003 10.0002C15.6237 10 16.2346 9.82503 16.7636 9.4951C17.2925 9.16518 17.7183 8.69353 17.9927 8.13374C18.267 7.57394 18.3789 6.94842 18.3156 6.32824C18.2522 5.70805 18.0163 5.11805 17.6345 4.62525C17.2526 4.13245 16.7403 3.7566 16.1555 3.54039C15.5708 3.32418 14.9372 3.27627 14.3266 3.40211C13.7161 3.52795 13.153 3.82249 12.7014 4.25228C12.2498 4.68207 11.9278 5.22988 11.772 5.8335H2.50033C2.27931 5.8335 2.06735 5.92129 1.91107 6.07757C1.75479 6.23386 1.66699 6.44582 1.66699 6.66683C1.66699 6.88784 1.75479 7.09981 1.91107 7.25609C2.06735 7.41237 2.27931 7.50016 2.50033 7.50016H11.772C12.142 8.93766 13.447 10.0002 15.0003 10.0002ZM13.3337 6.66683C13.3337 7.10886 13.5093 7.53278 13.8218 7.84534C14.1344 8.1579 14.5583 8.3335 15.0003 8.3335C15.4424 8.3335 15.8663 8.1579 16.1788 7.84534C16.4914 7.53278 16.667 7.10886 16.667 6.66683C16.667 6.2248 16.4914 5.80088 16.1788 5.48832C15.8663 5.17576 15.4424 5.00016 15.0003 5.00016C14.5583 5.00016 14.1344 5.17576 13.8218 5.48832C13.5093 5.80088 13.3337 6.2248 13.3337 6.66683ZM1.66699 13.3335C1.66619 12.5216 1.96173 11.7373 2.49814 11.1279C3.03455 10.5184 3.77495 10.1257 4.58036 10.0234C5.38578 9.92114 6.20085 10.1163 6.87257 10.5723C7.54429 11.0284 8.02649 11.7139 8.22866 12.5002H17.5003C17.7213 12.5002 17.9333 12.588 18.0896 12.7442C18.2459 12.9005 18.3337 13.1125 18.3337 13.3335C18.3337 13.5545 18.2459 13.7665 18.0896 13.9228C17.9333 14.079 17.7213 14.1668 17.5003 14.1668H8.22866C8.02389 14.9506 7.54086 15.633 6.86977 16.0867C6.19868 16.5403 5.3854 16.7343 4.58181 16.6322C3.77821 16.5301 3.03923 16.1391 2.50285 15.5321C1.96647 14.925 1.66936 14.1435 1.66699 13.3335ZM6.66699 13.3335C6.66699 12.8915 6.4914 12.4675 6.17884 12.155C5.86628 11.8424 5.44235 11.6668 5.00033 11.6668C4.5583 11.6668 4.13438 11.8424 3.82182 12.155C3.50926 12.4675 3.33366 12.8915 3.33366 13.3335C3.33366 13.7755 3.50926 14.1994 3.82182 14.512C4.13438 14.8246 4.5583 15.0002 5.00033 15.0002C5.44235 15.0002 5.86628 14.8246 6.17884 14.512C6.4914 14.1994 6.66699 13.7755 6.66699 13.3335Z" fill="black"/>
</svg>
