<svg width="20" height="20" viewBox="0 0 20 20" fill="none" xmlns="http://www.w3.org/2000/svg">
<g clip-path="url(#clip0_2062_3415)">
<path d="M11.3173 20H8.68277C8.46422 20 8.28051 19.836 8.25582 19.6188L8.03984 17.7178C7.2927 17.5333 6.57945 17.2445 5.91246 16.8564L4.43184 18.0348C4.26082 18.1709 4.01492 18.157 3.86039 18.0025L1.9975 16.1396C1.84297 15.9851 1.82906 15.7392 1.96516 15.5682L3.10152 14.1405C2.67148 13.4571 2.34867 12.7205 2.13879 11.9439L0.381172 11.7442C0.164023 11.7195 0 11.5358 0 11.3173V8.68277C0 8.46422 0.164023 8.28051 0.381172 8.25582L2.04457 8.0668C2.2268 7.23074 2.53781 6.43598 2.97203 5.69684L1.96516 4.43176C1.82906 4.26078 1.84297 4.01488 1.9975 3.86035L3.86039 1.9975C4.01492 1.84297 4.26086 1.82902 4.43184 1.96516L5.64516 2.9309C6.39961 2.45187 7.21742 2.10492 8.08363 1.89641L8.25582 0.381172C8.28047 0.164023 8.46422 0 8.68273 0H11.3172C11.5358 0 11.7195 0.164023 11.7442 0.381172L11.9164 1.89637C12.7826 2.10488 13.6004 2.45187 14.3548 2.9309L15.5682 1.96516C15.7392 1.82906 15.985 1.84297 16.1396 1.9975L18.0025 3.86035C18.157 4.01488 18.1709 4.26078 18.0348 4.43176L17.0279 5.69684C17.4621 6.43598 17.7732 7.2307 17.9554 8.0668L19.6188 8.25582C19.8359 8.28051 20 8.46422 20 8.68277V11.3173C20 11.5358 19.8359 11.7195 19.6188 11.7442L17.8612 11.9439C17.6513 12.7205 17.3285 13.4571 16.8984 14.1405L18.0348 15.5682C18.1709 15.7392 18.157 15.9851 18.0025 16.1396L16.1396 18.0025C15.985 18.157 15.7392 18.171 15.5682 18.0348L14.0875 16.8564C13.4205 17.2445 12.7073 17.5333 11.9602 17.7178L11.7442 19.6188C11.7195 19.836 11.5358 20 11.3173 20ZM9.06641 19.1406H10.9336L11.1407 17.3177C11.1617 17.1332 11.2989 16.983 11.4808 16.9454C12.3378 16.7685 13.1487 16.4405 13.8908 15.9705C14.0454 15.8727 14.245 15.8834 14.3883 15.9974L15.8032 17.1236L17.1236 15.8032L16.0324 14.4323C15.9148 14.2847 15.9074 14.0777 16.014 13.922C16.5296 13.169 16.8943 12.3387 17.098 11.4542C17.1389 11.2767 17.2872 11.1442 17.4682 11.1237L19.1406 10.9336V9.06641L17.5463 8.88523C17.3573 8.86375 17.2049 8.72055 17.1717 8.5332C17.0049 7.59125 16.6585 6.70398 16.1423 5.89609C16.0434 5.74133 16.0537 5.54082 16.1681 5.39715L17.1235 4.1968L15.8032 2.87645L14.6456 3.79777C14.4974 3.9157 14.2895 3.92273 14.1338 3.81516C13.3162 3.25047 12.4097 2.86555 11.4396 2.67113C11.2565 2.63445 11.1181 2.48379 11.097 2.29836L10.9336 0.859375H9.06641L8.90289 2.29832C8.88184 2.48379 8.7434 2.63441 8.56039 2.67109C7.5902 2.86555 6.68371 3.25047 5.86613 3.81512C5.71043 3.9227 5.5025 3.91566 5.35434 3.79773L4.19676 2.87641L2.87641 4.19676L3.8318 5.39711C3.94617 5.54082 3.95656 5.74129 3.8577 5.89605C3.34141 6.70398 2.99504 7.59121 2.82824 8.53316C2.79508 8.72047 2.6427 8.86371 2.45367 8.88519L0.859375 9.06641V10.9336L2.53176 11.1237C2.71273 11.1442 2.86109 11.2767 2.90199 11.4542C3.1057 12.3388 3.47039 13.169 3.98594 13.922C4.09254 14.0777 4.08512 14.2847 3.96758 14.4323L2.87641 15.8032L4.19676 17.1236L5.61168 15.9974C5.75492 15.8834 5.95461 15.8727 6.10914 15.9705C6.85129 16.4405 7.66215 16.7685 8.51918 16.9454C8.70105 16.983 8.83824 17.1332 8.85922 17.3177L9.06641 19.1406Z" fill="black"/>
<path d="M9.99992 13.1902C8.13734 13.1902 6.62207 11.6749 6.62207 9.81238C6.62207 7.94984 8.13734 6.43457 9.99992 6.43457C11.8625 6.43457 13.3778 7.94984 13.3778 9.81238C13.3778 11.675 11.8625 13.1902 9.99992 13.1902ZM9.99992 7.29398C8.61121 7.29398 7.48145 8.42375 7.48145 9.81242C7.48145 11.2011 8.61121 12.3309 9.99992 12.3309C11.3886 12.3309 12.5184 11.2011 12.5184 9.81242C12.5184 8.42371 11.3886 7.29398 9.99992 7.29398Z" fill="black"/>
</g>
<defs>
<clipPath id="clip0_2062_3415">
<rect width="20" height="20" fill="white"/>
</clipPath>
</defs>
</svg>
