<svg width="512" height="512" viewBox="0 0 512 512" fill="none" xmlns="http://www.w3.org/2000/svg">
<g clip-path="url(#clip0_3109_6566)">
<path d="M0 388.667V458.261C0 471.371 10.629 482 23.74 482C36.851 482 47.48 471.371 47.48 458.26V215.54H10C4.477 215.54 0 220.017 0 225.54V388.667Z" fill="#00FE5E"/>
<path d="M502 0H87.4802C81.9572 0 77.4802 4.477 77.4802 10V473.322C77.4802 494.683 60.1352 512 38.7402 512H458.886C488.22 512 512 488.258 512 458.97V10C512 4.477 507.523 0 502 0ZM289.65 60.07C292.53 60.07 294.931 61.028 295.65 63.545L313.892 125.008L323.373 84.511C324.093 81.276 328.293 79.599 332.373 79.599C336.454 79.599 340.654 81.276 341.374 84.511L350.855 125.008L369.096 63.545C369.816 61.029 372.217 60.07 375.097 60.07C380.497 60.07 387.218 63.424 387.218 67.498C387.218 68.097 387.098 68.696 386.978 69.056L363.096 142.141C361.656 146.334 356.256 148.371 350.735 148.371C345.335 148.371 339.574 146.334 338.614 142.141L332.373 113.745L326.133 142.141C325.173 146.334 319.412 148.371 314.012 148.371C308.491 148.371 302.971 146.334 301.651 142.141L277.769 69.056C277.612 68.5515 277.531 68.0264 277.529 67.498C277.529 63.425 284.25 60.07 289.65 60.07ZM214.169 65.821C214.169 61.987 218.25 60.07 222.33 60.07H265.054C269.015 60.07 270.695 64.263 270.695 68.097C270.695 72.53 268.655 76.364 265.054 76.364H232.89V96.612H250.891C254.492 96.612 256.532 100.087 256.532 103.921C256.532 107.156 254.852 110.99 250.891 110.99H232.89V131.358H265.053C268.654 131.358 270.694 135.192 270.694 139.625C270.694 143.459 269.014 147.652 265.053 147.652H222.329C218.249 147.652 214.168 145.735 214.168 141.901V65.821H214.169ZM135.087 65.821C135.087 61.867 139.768 60.07 144.448 60.07C151.169 60.07 153.689 60.669 158.249 69.415L177.691 106.437V65.702C177.691 61.748 182.371 60.071 187.051 60.071C191.732 60.071 196.412 61.748 196.412 65.702V141.902C196.412 145.736 191.732 147.653 187.051 147.653C182.731 147.653 178.89 146.814 176.61 142.621L153.808 101.166V141.902C153.808 145.736 149.128 147.653 144.447 147.653C139.767 147.653 135.086 145.736 135.086 141.902V65.821H135.087ZM245.561 450.598H147.942C139.658 450.598 132.942 443.882 132.942 435.598C132.942 427.314 139.658 420.598 147.942 420.598H245.561C253.845 420.598 260.561 427.314 260.561 435.598C260.561 443.882 253.845 450.598 245.561 450.598ZM245.561 390.69H147.942C139.658 390.69 132.942 383.974 132.942 375.69C132.942 367.406 139.658 360.69 147.942 360.69H245.561C253.845 360.69 260.561 367.406 260.561 375.69C260.561 383.975 253.845 390.69 245.561 390.69ZM245.561 330.783H147.942C139.658 330.783 132.942 324.067 132.942 315.783C132.942 307.499 139.658 300.783 147.942 300.783H245.561C253.845 300.783 260.561 307.499 260.561 315.783C260.561 324.067 253.845 330.783 245.561 330.783ZM452.013 435.598C452.013 443.882 445.297 450.598 437.013 450.598H305.562C297.278 450.598 290.562 443.882 290.562 435.598V315.783C290.562 307.499 297.278 300.783 305.562 300.783H437.013C445.297 300.783 452.013 307.499 452.013 315.783V435.598ZM437.013 270.876H147.942C139.658 270.876 132.942 264.16 132.942 255.876C132.942 247.592 139.658 240.876 147.942 240.876H437.013C445.297 240.876 452.013 247.592 452.013 255.876C452.013 264.16 445.297 270.876 437.013 270.876ZM437.013 210.968H147.942C139.658 210.968 132.942 204.252 132.942 195.968C132.942 187.684 139.658 180.968 147.942 180.968H437.013C445.297 180.968 452.013 187.684 452.013 195.968C452.013 204.252 445.297 210.968 437.013 210.968ZM423.575 148.851C407.854 148.851 394.653 141.183 394.653 133.275C394.653 129.201 398.253 123.211 402.814 123.211C408.455 123.211 412.055 132.077 423.216 132.077C428.737 132.077 434.857 129.92 434.857 124.169C434.857 109.672 396.814 112.188 396.814 84.152C396.814 66.18 412.535 59.351 427.537 59.351C433.897 59.351 451.419 60.549 451.419 69.894C451.419 73.129 449.259 79.718 443.979 79.718C439.659 79.718 437.378 75.165 427.537 75.165C419.016 75.165 415.536 78.64 415.536 82.354C415.536 94.335 453.579 92.059 453.579 122.251C453.578 139.505 440.977 148.851 423.575 148.851Z" fill="#00FE5E"/>
</g>
<defs>
<clipPath id="clip0_3109_6566">
<rect width="512" height="512" fill="white"/>
</clipPath>
</defs>
</svg>
