<svg width="16" height="16" viewBox="0 0 16 16" fill="none" xmlns="http://www.w3.org/2000/svg">
<g clip-path="url(#clip0_1601_1646)">
<path d="M8.00003 16C12.4183 16 16.0001 12.4183 16.0001 7.99997C16.0001 3.58168 12.4183 0 8.00003 0C3.5818 0 0 3.58174 0 8.00003C0 12.4183 3.58174 16 8.00003 16ZM8.00003 1.27999C11.7053 1.27999 14.72 4.29468 14.72 7.99997C14.72 11.7053 11.7053 14.72 8.00003 14.72C4.29474 14.72 1.28004 11.7053 1.28004 7.99997C1.28004 4.29468 4.29439 1.27999 8.00003 1.27999Z" fill="#010002"/>
<path d="M6.51291 11.7733C6.95481 11.7733 7.31293 11.4152 7.31293 10.9733V4.89328C7.31293 4.45138 6.95487 4.09326 6.51291 4.09326C6.07101 4.09326 5.71289 4.45132 5.71289 4.89328V10.9733C5.71289 11.4152 6.07095 11.7733 6.51291 11.7733ZM9.71288 11.7733C10.1548 11.7733 10.5129 11.4152 10.5129 10.9733V4.89328C10.5129 4.45138 10.1548 4.09326 9.71288 4.09326C9.27092 4.09326 8.91291 4.45138 8.91291 4.89328V10.9733C8.91291 11.4152 9.27098 11.7733 9.71288 11.7733Z" fill="#010002"/>
</g>
<defs>
<clipPath id="clip0_1601_1646">
<rect width="16" height="16" fill="white"/>
</clipPath>
</defs>
</svg>
