<svg width="25" height="25" viewBox="0 0 25 25" fill="none" xmlns="http://www.w3.org/2000/svg">
<path d="M12.4086 13.3173C10.2539 13.3173 8.5 11.5634 8.5 9.40864C8.5 7.25385 10.2538 5.5 12.4086 5.5C14.5634 5.5 16.3173 7.25385 16.3173 9.40864C16.3173 11.5634 14.5634 13.3173 12.4086 13.3173ZM12.4086 5.5313C10.2702 5.5313 8.53125 7.27025 8.53125 9.40869C8.53125 11.5471 10.2702 13.2861 12.4086 13.2861C14.5471 13.2861 16.2861 11.5471 16.2861 9.40869C16.2861 7.27024 14.5471 5.5313 12.4086 5.5313Z" fill="black" stroke="black"/>
<path d="M19.5841 20.4801C18.5254 17.6591 15.789 15.7638 12.7748 15.7638C9.76063 15.7638 7.0242 17.6591 5.96553 20.4801L5 20.1177C5.58753 18.5522 6.62328 17.2132 7.99527 16.2456C9.3988 15.2557 11.0515 14.7325 12.7748 14.7325C14.498 14.7325 16.1508 15.2557 17.5543 16.2456C18.9262 17.2132 19.962 18.5522 20.5495 20.1177L19.5841 20.4801Z" fill="black"/>
</svg>
