<svg width="16" height="16" viewBox="0 0 16 16" fill="none" xmlns="http://www.w3.org/2000/svg">
<g clip-path="url(#clip0_1445_1284)">
<path d="M9.29813 0.586093C9.11253 0.497559 8.89387 0.521026 8.73387 0.650093L3.5456 4.80049H1.06667C0.478933 4.80049 0 5.27943 0 5.86716V10.1338C0 10.7216 0.478933 11.2005 1.06667 11.2005H3.5456L8.7328 15.3509C8.82784 15.4261 8.94547 15.4671 9.06667 15.4672C9.1456 15.4672 9.22453 15.4501 9.29813 15.4149C9.38853 15.3711 9.46479 15.3028 9.51817 15.2177C9.57155 15.1326 9.59991 15.0343 9.6 14.9338V1.06716C9.59991 0.966723 9.57155 0.868339 9.51817 0.783264C9.46479 0.698189 9.38853 0.629859 9.29813 0.586093ZM3.2 10.1338H1.06667V5.86716H3.2V10.1338ZM8.53333 13.8234L4.26667 10.4101V5.59089L8.53333 2.17756V13.8234ZM12.3008 4.22876C12.0907 4.02076 11.7536 4.02396 11.5467 4.23303C11.3397 4.44316 11.3419 4.78023 11.5509 4.98716C12.3563 5.78396 12.8 6.85383 12.8 8.00049C12.8 9.14716 12.3563 10.217 11.5509 11.0138C11.3408 11.2208 11.3387 11.5578 11.5467 11.768C11.5962 11.8181 11.6551 11.8578 11.7202 11.8849C11.7852 11.912 11.8549 11.9259 11.9253 11.9258C12.0608 11.9258 12.1963 11.8746 12.3008 11.7712C13.3109 10.7738 13.8667 9.43516 13.8667 8.00049C13.8667 6.56583 13.3109 5.22716 12.3008 4.22876Z" fill="black"/>
<path d="M13.805 2.72569C13.596 2.51876 13.2578 2.51983 13.0509 2.72889C12.844 2.93796 12.845 3.27609 13.0541 3.48303C14.2658 4.68516 14.9336 6.28943 14.9336 8.00036C14.9336 9.71129 14.2658 11.3156 13.0541 12.5177C12.845 12.7246 12.844 13.0628 13.0509 13.2718C13.1003 13.322 13.1593 13.3618 13.2243 13.3889C13.2893 13.416 13.3591 13.4299 13.4296 13.4297C13.565 13.4297 13.7005 13.3785 13.805 13.275C15.2205 11.8713 16.0002 9.99823 16.0002 8.00036C16.0002 6.00249 15.2205 4.12943 13.805 2.72569Z" fill="black"/>
</g>
<defs>
<clipPath id="clip0_1445_1284">
<rect width="16" height="16" fill="white"/>
</clipPath>
</defs>
</svg>
