<svg width="16" height="16" viewBox="0 0 16 16" fill="none" xmlns="http://www.w3.org/2000/svg">
<g clip-path="url(#clip0_1445_1311)">
<path d="M3.46859 12.5309C0.981273 10.035 0.981273 5.96916 3.46859 3.47331L4.79544 4.80017V0.802545H0.797818L2.34226 2.34698C-0.780752 5.46573 -0.780752 10.5385 2.34226 13.6615C4.31334 15.6283 7.05663 16.3579 9.59941 15.8374V14.1905C7.47901 14.7409 5.12822 14.1905 3.46859 12.5309ZM13.6568 2.34698C11.6857 0.371638 8.94238 -0.357917 6.39961 0.162584V1.80942C8.52001 1.25905 10.8751 1.81795 12.5304 3.47331C15.0263 5.96916 15.0263 10.035 12.5304 12.5309L11.2036 11.204V15.2059H15.2055L13.661 13.6615C16.7798 10.5385 16.7798 5.46573 13.6568 2.34698Z" fill="black"/>
</g>
<defs>
<clipPath id="clip0_1445_1311">
<rect width="16" height="16" fill="white"/>
</clipPath>
</defs>
</svg>
