<svg width="512" height="512" viewBox="0 0 512 512" fill="none" xmlns="http://www.w3.org/2000/svg">
<path d="M455.608 351.36L424.248 320C421.783 317.678 418.868 315.885 415.685 314.73C412.501 313.576 409.114 313.085 405.734 313.287C402.353 313.489 399.05 314.381 396.026 315.907C393.003 317.433 390.323 319.561 388.152 322.16L368.048 310.256C364.132 307.952 360.935 304.601 358.818 300.581C356.701 296.56 355.748 292.029 356.064 287.496L359.624 234.624C360.471 221.773 358.502 208.892 353.856 196.88L296.128 48.248C294.693 44.4623 292.338 41.0935 289.276 38.4456C286.213 35.7976 282.54 33.9539 278.586 33.0807C274.633 32.2075 270.525 32.3323 266.632 33.4439C262.739 34.5556 259.184 36.619 256.288 39.448C253.387 36.4292 249.755 34.2109 245.744 33.008C239.83 31.3023 233.493 31.8621 227.969 34.578C222.445 37.2939 218.132 41.9709 215.872 47.696L158.144 196.336C147.344 219.04 155.184 262.688 155.936 286.944C156.256 291.479 155.303 296.014 153.186 300.038C151.069 304.062 147.871 307.415 143.952 309.72L123.856 321.6C121.724 318.944 119.059 316.764 116.033 315.2C113.007 313.636 109.687 312.723 106.287 312.519C102.887 312.316 99.4817 312.826 96.2908 314.018C93.1 315.21 90.1941 317.057 87.7601 319.44L56.3921 350.816C54.8923 352.316 54.0498 354.351 54.0498 356.472C54.0498 358.593 54.8923 360.628 56.3921 362.128L171.36 477.112C172.86 478.612 174.895 479.454 177.016 479.454C179.137 479.454 181.172 478.612 182.672 477.112L214.032 445.744C218.504 441.229 221.013 435.131 221.013 428.776C221.013 422.421 218.504 416.323 214.032 411.808L210.848 408.608C218.512 402.552 248.336 381 255.856 362.976C263.216 381.264 293.312 402.952 301.136 409.16C298.047 411.555 295.528 414.605 293.762 418.092C291.995 421.578 291.024 425.413 290.92 429.32C290.911 432.472 291.527 435.595 292.733 438.507C293.938 441.42 295.71 444.065 297.944 446.288L329.312 477.656C330.812 479.156 332.847 479.998 334.968 479.998C337.089 479.998 339.124 479.156 340.624 477.656L455.6 362.68C457.1 361.18 457.942 359.145 457.942 357.024C457.942 354.903 457.1 352.868 455.6 351.368L455.608 351.36ZM255.544 255.488C253.321 245.161 253.463 234.464 255.96 224.2C258.518 234.636 258.687 245.514 256.456 256.024C256.024 258.424 255.952 257.08 255.544 255.488ZM256.264 152.592C252.811 148.994 248.431 146.42 243.608 145.152L255.928 91.744L268.384 145.704C263.809 146.901 259.636 149.276 256.264 152.592ZM202.736 434.432L177.024 460.152L73.3601 356.48L99.0721 330.768C100.575 329.274 102.609 328.436 104.728 328.436C106.847 328.436 108.881 329.274 110.384 330.768L202.72 423.12C204.21 424.625 205.046 426.658 205.046 428.776C205.046 430.894 204.21 432.927 202.72 434.432H202.736ZM232.912 368.544C222.57 379.02 211.327 388.567 199.312 397.072L135.52 333.28L152.088 323.48C158.563 319.673 163.847 314.134 167.345 307.487C170.843 300.84 172.417 293.349 171.888 285.856L168.328 233C167.637 222.486 169.248 211.948 173.048 202.12L230.776 53.48C231.582 51.4815 233.108 49.858 235.053 48.9302C236.998 48.0024 239.22 47.8378 241.281 48.469C243.341 49.1002 245.09 50.4812 246.181 52.3392C247.273 54.1972 247.628 56.397 247.176 58.504L227.008 145.888C223.146 147.329 219.663 149.631 216.824 152.62C213.985 155.608 211.865 159.205 210.624 163.136L189.864 228.176C189.523 229.182 189.385 230.247 189.46 231.307C189.534 232.367 189.819 233.402 190.298 234.351C190.777 235.299 191.44 236.143 192.249 236.833C193.057 237.522 193.995 238.044 195.008 238.367C196.02 238.69 197.087 238.809 198.145 238.715C199.204 238.621 200.233 238.317 201.173 237.821C202.113 237.326 202.945 236.647 203.62 235.826C204.295 235.005 204.799 234.058 205.104 233.04L225.872 168C226.781 165.343 228.647 163.12 231.105 161.763C233.564 160.406 236.439 160.013 239.172 160.66C241.904 161.306 244.298 162.947 245.887 165.263C247.476 167.578 248.147 170.402 247.768 173.184L238.72 230.84C235.168 261.304 248.256 277.368 247.936 316.472C248.288 335.656 244.944 357.416 232.912 368.544ZM279.088 369.096C266.944 357.856 263.624 335.808 264.08 316.432C263.88 277.568 276.824 261.728 273.28 231.392L264.24 173.736C263.872 170.959 264.548 168.144 266.137 165.837C267.726 163.53 270.115 161.895 272.841 161.25C275.567 160.604 278.435 160.994 280.89 162.343C283.345 163.692 285.212 165.905 286.128 168.552L306.888 233.592C307.187 234.617 307.687 235.572 308.36 236.4C309.033 237.229 309.866 237.914 310.808 238.416C311.75 238.918 312.783 239.226 313.846 239.323C314.909 239.419 315.981 239.302 316.998 238.978C318.015 238.654 318.957 238.13 319.768 237.436C320.58 236.742 321.244 235.893 321.722 234.938C322.2 233.984 322.482 232.943 322.552 231.878C322.622 230.813 322.478 229.745 322.128 228.736L301.368 163.696C300.127 159.767 298.006 156.173 295.167 153.187C292.328 150.201 288.845 147.902 284.984 146.464L264.816 59.072C264.384 56.9721 264.75 54.7865 265.844 52.9423C266.937 51.098 268.678 49.7276 270.728 49.0987C272.778 48.4698 274.988 48.6277 276.927 49.5414C278.867 50.4552 280.396 52.0591 281.216 54.04L338.944 202.68C342.742 212.503 344.353 223.035 343.664 233.544L340.104 286.416C339.577 293.906 341.151 301.395 344.649 308.039C348.147 314.684 353.43 320.22 359.904 324.024L376.472 333.832L312.696 397.608C300.679 389.105 289.433 379.57 279.088 369.096ZM334.976 460.696L309.272 434.984C308.527 434.243 307.936 433.362 307.533 432.391C307.131 431.42 306.925 430.379 306.928 429.328C306.928 427.184 401.624 331.328 401.624 331.328C403.127 329.837 405.159 329 407.276 329C409.394 329 411.425 329.837 412.928 331.328L438.64 357.032L334.976 460.696Z" fill="#FF7F23"/>
</svg>
