<svg width="512" height="512" viewBox="0 0 512 512" fill="none" xmlns="http://www.w3.org/2000/svg">
<g clip-path="url(#clip0_3109_6614)">
<path d="M21.2138 211.228C16.1184 212.055 11.4277 214.509 7.84355 218.224C4.25942 221.939 1.97465 226.714 1.33114 231.836C-0.426366 247.77 -0.443596 263.847 1.27976 279.785C1.86442 284.984 4.12869 289.85 7.72913 293.646C11.3296 297.442 16.0697 299.961 21.2307 300.819L48.3834 305.265C53.5964 327.468 62.3959 348.673 74.4351 368.044L58.4528 390.367C52.0842 399.002 52.2383 410.819 58.8285 419.286C63.9155 425.51 69.3274 431.46 75.0417 437.113C80.2815 442.361 86.0748 447.634 93.0298 453.479C97.1188 456.624 102.118 458.356 107.276 458.416C112.434 458.476 117.472 456.86 121.633 453.812L144.067 437.718C163.418 449.756 184.602 458.558 206.786 463.778L211.241 490.974C212.066 496.071 214.519 500.764 218.234 504.35C221.949 507.936 226.726 510.222 231.849 510.865C236.76 511.417 241.69 511.796 246.628 512H247.354C251.801 511.997 256.077 510.286 259.3 507.221C260.958 505.637 262.276 503.732 263.175 501.623C264.075 499.514 264.536 497.243 264.53 494.95V426.565C264.48 417.427 257.267 409.936 248.138 409.541C166.463 405.277 102.426 337.81 102.426 256.024C102.426 174.238 166.463 106.77 248.138 102.506C257.281 102.105 264.498 94.5924 264.53 85.4395V17.0885C264.537 14.7931 264.076 12.5205 263.175 10.4093C262.274 8.29816 260.952 6.39274 259.291 4.80941C257.632 3.18223 255.654 1.91667 253.482 1.09265C251.31 0.268623 248.99 -0.0959487 246.67 0.0219575C241.704 0.21824 236.78 0.576267 231.728 1.08846C226.609 1.74812 221.843 4.05417 218.149 7.65891C214.454 11.2637 212.032 15.9717 211.248 21.0731L206.802 48.2427C184.618 53.4671 163.434 62.2723 144.083 74.3121L121.649 58.2523C117.45 55.1818 112.365 53.5654 107.164 53.6486C101.963 53.7318 96.931 55.5099 92.8326 58.7131C86.6458 63.7775 80.7244 69.1578 75.0922 74.8327C69.2873 80.5072 63.8224 86.5193 58.7258 92.8376C55.5563 96.932 53.8026 101.945 53.7288 107.122C53.6549 112.3 55.2649 117.361 58.3163 121.544L74.4014 144.003C62.3725 163.373 53.5844 184.575 48.3834 206.774L21.2138 211.228ZM63.8207 215.99C68.7819 191.888 78.2992 168.956 91.8613 148.424C92.8105 146.981 93.2999 145.285 93.2649 143.559C93.2298 141.833 92.672 140.158 91.6651 138.755L72.201 111.577C71.3241 110.42 70.8389 109.013 70.8159 107.562C70.7929 106.11 71.2332 104.689 72.073 103.504C76.7505 97.7075 81.7684 92.1937 87.1 86.9921C92.279 81.7604 97.7186 76.7934 103.398 72.11C104.588 71.2034 106.042 70.7124 107.537 70.7124C109.032 70.7124 110.487 71.2034 111.676 72.11L138.812 91.5833C140.216 92.5877 141.892 93.1426 143.618 93.1746C145.344 93.2067 147.04 92.7143 148.48 91.7627C168.995 78.1953 191.914 68.6748 216.004 63.7136C217.696 63.3649 219.242 62.5109 220.438 61.2645C221.634 60.0182 222.424 58.4382 222.703 56.7334L228.07 23.8716C228.258 22.4358 228.901 21.0981 229.906 20.0552C230.91 19.0122 232.223 18.319 233.651 18.0775C238.244 17.6 242.852 17.2699 247.466 17.0876L247.279 85.4471C156.43 90.0871 85.1641 165.127 85.2147 256.094C85.2644 347.062 156.613 422.023 247.466 426.563L247.347 494.949C242.802 494.76 238.265 494.41 233.745 493.899C232.311 493.689 230.984 493.021 229.962 491.993C228.941 490.965 228.28 489.634 228.079 488.198L222.703 455.32C222.424 453.615 221.634 452.035 220.438 450.789C219.242 449.542 217.696 448.688 216.004 448.34C191.914 443.375 168.995 433.851 148.48 420.282C147.039 419.332 145.343 418.841 143.617 418.874C141.891 418.908 140.215 419.464 138.812 420.47L111.651 439.96C110.522 440.838 109.142 441.332 107.713 441.37C106.284 441.408 104.88 440.989 103.706 440.173C97.4339 434.891 91.9978 429.934 87.1 425.043C81.8676 419.874 76.9032 414.439 72.2263 408.762C71.3301 407.565 70.8458 406.11 70.8458 404.615C70.8458 403.12 71.3301 401.665 72.2263 400.468L91.6735 373.315C92.6792 371.911 93.2355 370.236 93.2691 368.51C93.3026 366.784 92.8118 365.088 91.8613 363.646C78.2983 343.118 68.7809 320.188 63.8207 296.089C63.4724 294.398 62.6196 292.853 61.3749 291.657C60.1302 290.461 58.5521 289.671 56.8489 289.39L23.9955 284.005C22.5074 283.759 21.1406 283.033 20.1037 281.938C19.0668 280.842 18.4168 279.438 18.2527 277.938C16.6545 263.261 16.6717 248.452 18.3041 233.779C18.5109 232.344 19.1773 231.014 20.2034 229.99C21.2295 228.965 22.56 228.301 23.9955 228.096L56.8396 222.72C58.5491 222.44 60.1328 221.646 61.3799 220.443C62.6271 219.241 63.4784 217.688 63.8207 215.99Z" fill="#003BFF"/>
<path d="M486.395 230.419C481.12 230.441 475.979 232.093 471.678 235.148C467.377 238.202 464.124 242.512 462.365 247.486H264.531V221.886H401.063C415.201 221.886 426.662 210.424 426.662 196.286V152.05C438.417 147.894 445.468 135.874 443.36 123.586C441.251 111.297 430.596 102.315 418.129 102.315C405.661 102.315 395.006 111.297 392.897 123.586C390.789 135.874 397.84 147.894 409.595 152.05V196.286C409.595 200.999 405.775 204.82 401.061 204.82H264.531V179.22H358.396C363.109 179.22 366.929 175.399 366.929 170.686C366.929 165.973 363.109 162.152 358.396 162.152H264.531V145.086H315.73C329.869 145.086 341.331 133.625 341.331 119.486V66.7176C353.086 62.562 360.137 50.5416 358.028 38.2532C355.92 25.9649 345.265 16.9822 332.797 16.9822C320.329 16.9822 309.674 25.9649 307.566 38.2532C305.457 50.5416 312.508 62.562 324.263 66.7176V119.487C324.263 124.2 320.443 128.021 315.73 128.021H262.277C260.84 125.35 258.663 123.15 256.007 121.685C253.35 120.22 250.328 119.552 247.302 119.761C175.392 124.316 119.4 183.967 119.4 256.02C119.4 328.074 175.392 387.724 247.302 392.279H248.3C251.161 392.303 253.974 391.547 256.436 390.091C258.899 388.636 260.919 386.537 262.277 384.019H315.73C320.442 384.019 324.263 387.84 324.263 392.553V445.323C312.508 449.478 305.457 461.499 307.566 473.787C309.674 486.075 320.329 495.058 332.797 495.058C345.265 495.058 355.92 486.075 358.028 473.787C360.137 461.499 353.086 449.478 341.331 445.323V392.553C341.331 378.415 329.87 366.953 315.73 366.953H264.531V349.886H358.396C363.109 349.886 366.929 346.066 366.929 341.354C366.929 336.641 363.109 332.82 358.396 332.82H264.531V307.221H401.063C405.775 307.221 409.597 311.041 409.597 315.753V359.989C397.842 364.145 390.79 376.166 392.899 388.454C395.008 400.742 405.662 409.725 418.13 409.725C430.598 409.725 441.253 400.742 443.361 388.454C445.47 376.166 438.419 364.145 426.664 359.989V315.753C426.664 301.615 415.203 290.154 401.065 290.154H264.531V264.552H462.365C466.726 276.794 479.579 283.814 492.236 280.867C504.892 277.92 513.323 265.946 511.829 253.036C510.333 240.129 499.39 230.396 486.395 230.419ZM418.129 119.487C422.842 119.487 426.662 123.308 426.662 128.021C426.662 132.734 422.842 136.555 418.129 136.555C413.417 136.555 409.597 132.734 409.597 128.021C409.597 123.308 413.416 119.487 418.129 119.487ZM332.797 34.1549C337.509 34.1549 341.331 37.9752 341.331 42.6886C341.331 47.4019 337.51 51.2214 332.797 51.2214C328.084 51.2214 324.264 47.401 324.264 42.6886C324.264 37.9761 328.084 34.1549 332.797 34.1549ZM332.797 477.884C328.084 477.884 324.264 474.063 324.264 469.35C324.264 464.637 328.084 460.817 332.797 460.817C337.509 460.817 341.331 464.637 341.331 469.35C341.331 474.063 337.509 477.884 332.797 477.884ZM418.129 392.551C413.417 392.551 409.597 388.731 409.597 384.018C409.597 379.304 413.417 375.485 418.129 375.485C422.842 375.485 426.662 379.305 426.662 384.018C426.662 388.73 422.842 392.551 418.129 392.551ZM136.532 256.019C136.603 193.38 184.99 141.406 247.464 136.861V375.178C184.99 370.633 136.603 318.658 136.532 256.019ZM486.395 264.552C481.683 264.552 477.862 260.732 477.862 256.019C477.862 251.305 481.682 247.486 486.395 247.486C491.109 247.486 494.929 251.306 494.929 256.019C494.929 260.731 491.108 264.552 486.395 264.552Z" fill="#003BFF"/>
</g>
<defs>
<clipPath id="clip0_3109_6614">
<rect width="512" height="512" fill="white"/>
</clipPath>
</defs>
</svg>
