<svg width="20" height="20" viewBox="0 0 512 512" fill="none" xmlns="http://www.w3.org/2000/svg">
<path fill-rule="evenodd" clip-rule="evenodd" d="M364.067 47.0583C402.77 52.4423 437.252 77.8184 454.01 113.252C459.095 124.004 462.913 136.526 464.429 147.42C465.902 158.012 465.906 352.931 464.433 363.519C462.849 374.909 459.983 385.192 455.667 394.972C442.107 425.701 415.739 449.481 383.64 459.929C366.235 465.595 368.759 465.486 255.001 465.486C139.506 465.486 144.342 465.718 125.501 459.286C91.0017 447.509 63.0167 419.021 51.5887 384.047C45.8137 366.371 46.0007 370.648 46.0007 256.486C46.0007 142.728 45.8917 145.252 51.5577 127.847C65.2407 85.8093 100.983 54.9003 144.501 47.4713C154.369 45.7873 352.249 45.4153 364.067 47.0583ZM146.001 82.6353C130.511 85.9723 116.463 93.7563 104.961 105.375C87.2337 123.282 80.5007 141.93 80.5007 173.117V187.986H255.501H430.501V171.051C430.501 152.497 429.268 144.245 424.846 133.191C417.085 113.792 403.624 99.1833 385.001 89.9503C366.633 80.8423 376.769 81.5313 258.001 81.3163C167.68 81.1533 152.022 81.3373 146.001 82.6353ZM80.7477 292.236C81.1247 369.791 80.7937 365.993 88.6657 382.984C100.251 407.988 123.779 425.572 151.501 429.945C155.479 430.573 184.867 430.974 227.251 430.978L296.501 430.986V326.986V222.986H188.456H80.4117L80.7477 292.236ZM331.501 326.986V430.986H342.37C348.348 430.986 357.16 430.302 361.953 429.466C395.525 423.612 422.102 397.938 428.917 364.778C430.27 358.194 430.501 347.293 430.501 290.028V222.986H381.001H331.501V326.986Z" fill="#999999"/>
</svg>
