<svg width="16" height="16" viewBox="0 0 16 16" fill="none" xmlns="http://www.w3.org/2000/svg">
<g clip-path="url(#clip0_1965_2959)">
<path d="M9.31219 0.0317427C9.19056 -0.024476 9.04737 -0.00494475 8.94528 0.0818053L3.85091 4.41206H1.64141C0.736344 4.41209 0 5.1484 0 6.05349V9.94649C0 10.8516 0.736344 11.5879 1.64141 11.5879H3.85087L8.94525 15.9181C9.00863 15.972 9.08784 16 9.16794 16C9.21684 16 9.26606 15.9895 9.31216 15.9682C9.43378 15.912 9.51163 15.7902 9.51163 15.6562V0.343743C9.51166 0.209743 9.43378 0.0879615 9.31219 0.0317427ZM3.63347 10.9004H1.64141C1.11544 10.9004 0.6875 10.4725 0.6875 9.94649V6.05349C0.6875 5.52749 1.11544 5.09959 1.64141 5.09959H3.63347V10.9004ZM8.82416 14.9129L4.32097 11.0852V4.91474L8.82416 1.08709V14.9129Z" fill="black"/>
<path d="M11.7632 12.2367C11.5733 12.2367 11.4194 12.0828 11.4194 11.8929C11.4194 11.7031 11.5733 11.5492 11.7632 11.5492C13.7202 11.5492 15.3124 9.957 15.3124 7.99993C15.3124 6.04287 13.7202 4.45068 11.7632 4.45068C11.5733 4.45068 11.4194 4.29678 11.4194 4.10693C11.4194 3.91709 11.5733 3.76318 11.7632 3.76318C14.0993 3.76318 15.9999 5.66378 15.9999 7.99993C15.9999 10.3361 14.0993 12.2367 11.7632 12.2367Z" fill="black"/>
<path d="M11.7632 9.64145C11.5733 9.64145 11.4194 9.48755 11.4194 9.2977C11.4194 9.10786 11.5733 8.95395 11.7632 8.95395C12.2892 8.95395 12.7171 8.52605 12.7171 8.00005C12.7171 7.47405 12.2892 7.04614 11.7632 7.04614C11.5733 7.04614 11.4194 6.89224 11.4194 6.70239C11.4194 6.51255 11.5733 6.35864 11.7632 6.35864C12.6682 6.35864 13.4046 7.09495 13.4046 8.00005C13.4046 8.90514 12.6682 9.64145 11.7632 9.64145Z" fill="black"/>
</g>
<defs>
<clipPath id="clip0_1965_2959">
<rect width="16" height="16" fill="white"/>
</clipPath>
</defs>
</svg>
