<svg width="24" height="24" viewBox="0 0 24 24" fill="none" xmlns="http://www.w3.org/2000/svg">
<g clip-path="url(#clip0_2030_61)">
<path d="M13.6845 22.5575C13.7005 22.4593 13.7078 22.3599 13.7065 22.2604L13.7065 5.32893L13.8783 5.69812C14.0491 6.059 14.2815 6.38732 14.5651 6.66833L19.3132 11.4164C19.9101 12.0417 20.8704 12.1468 21.5884 11.6654C22.3536 11.1051 22.5197 10.0306 21.9594 9.26537C21.9142 9.20354 21.8648 9.14481 21.8117 9.08957L13.2257 0.503632C12.5555 -0.167359 11.4682 -0.167949 10.7972 0.50229L10.7959 0.503632L2.20997 9.08957C1.54032 9.7611 1.54182 10.8483 2.21335 11.518C2.26621 11.5707 2.32244 11.6199 2.38169 11.6654C3.09974 12.1468 4.06002 12.0417 4.65696 11.4164L9.41357 6.67692C9.66579 6.42499 9.87724 6.13532 10.0403 5.81833L10.2722 5.30317L10.2722 22.166C10.2396 23.0432 10.8524 23.8128 11.7146 23.9776C12.6507 24.1294 13.5327 23.4936 13.6845 22.5575Z" fill="#3CDAD3"/>
</g>
<defs>
<clipPath id="clip0_2030_61">
<rect width="24" height="24" fill="white" transform="translate(24) rotate(90)"/>
</clipPath>
</defs>
</svg>
