<svg width="20" height="20" viewBox="0 0 20 20" fill="none" xmlns="http://www.w3.org/2000/svg">
<g clip-path="url(#clip0_273_2216)">
<path d="M17.4419 6.27599H17.1814C17.1278 5.65534 16.838 5.07701 16.3694 4.65551C15.9008 4.23401 15.2876 4.00007 14.6512 4H13.4884L13 4.5C13 4.31891 13.4149 4.32804 13.284 4.19999C13.1532 4.07194 12.9757 4 12.7907 4C12.6057 4 12.4282 4.07194 12.2974 4.19999C12.1665 4.32804 14.5 5 14 4.00041L12.093 4H5.34884C4.7124 4.00007 4.09918 4.23401 3.6306 4.65551C3.16201 5.07701 2.87222 5.65534 2.8186 6.27599H2.55814C1.87968 6.27599 1.22901 6.53977 0.749262 7.00928C0.269518 7.4788 0 8.11559 0 8.77959V10.6004C0 11.2644 0.269518 11.9012 0.749262 12.3707C1.22901 12.8402 1.87968 13.104 2.55814 13.104H2.7907V14.6972C2.7907 15.3612 3.06022 15.998 3.53996 16.4675C4.0197 16.937 4.67038 17.2008 5.34884 17.2008H5.89767L4.78498 16.3814C4.79095 16.5927 4.85788 16.798 4.97805 16.9736C5.09822 17.1492 5.42592 17.1149 5.62326 17.2008C5.96847 17.2015 5.7647 17.2003 5.93228 17.2008C6.20997 17.1985 6.08984 17.2008 6.70126 17.2008L10.0744 17.1644H14.6512C15.3232 17.1644 15.9683 16.9057 16.447 16.444C16.9257 15.9823 17.1995 15.3548 17.2093 14.6972V13.104H17.4419C18.1203 13.104 18.771 12.8402 19.2507 12.3707C19.7305 11.9012 20 11.2644 20 10.6004V8.77959C20 8.11559 19.7305 7.4788 19.2507 7.00928C18.771 6.53977 18.1203 6.27599 17.4419 6.27599ZM2.55814 11.7384C2.24975 11.7384 1.95399 11.6185 1.73592 11.4051C1.51786 11.1917 1.39535 10.9022 1.39535 10.6004V8.77959C1.39535 8.47777 1.51786 8.18832 1.73592 7.9749C1.95399 7.76149 2.24975 7.64159 2.55814 7.64159H2.7907V11.7384H2.55814ZM15.814 14.6972C15.814 14.999 15.6914 15.2884 15.4734 15.5019C15.2553 15.7153 14.9596 15.8352 14.6512 15.8352H9.81395C9.64757 15.8384 9.89453 15.8352 9.3466 15.8352H5.34884L7.29302 16.518C7.29061 16.3376 7.21634 16.1653 7.08602 16.0378C6.95569 15.9102 6.77963 15.8375 6.59535 15.8352H5.34884C5.04045 15.8352 4.74469 15.7153 4.52662 15.5019C4.30855 15.2884 4.18605 14.999 4.18605 14.6972V6.50359C4.18605 6.20178 4.30855 5.91232 4.52662 5.69891C4.74469 5.48549 5.04045 5.3656 5.34884 5.3656H14.6512C14.9596 5.3656 15.2553 5.48549 15.4734 5.69891C15.6914 5.91232 15.814 6.20178 15.814 6.50359V14.6972ZM18.6047 10.6004C18.6047 10.9022 18.4821 11.1917 18.2641 11.4051C18.046 11.6185 17.7503 11.7384 17.4419 11.7384H17.2093V7.64159H17.4419C17.7503 7.64159 18.046 7.76149 18.2641 7.9749C18.4821 8.18832 18.6047 8.47777 18.6047 8.77959V10.6004ZM13.4884 8.77959C13.486 8.95994 13.4117 9.13225 13.2814 9.25979C13.151 9.38733 12.975 9.46003 12.7907 9.46239H7.2093C7.02427 9.46239 6.84681 9.39045 6.71597 9.2624C6.58513 9.13435 6.51163 8.96068 6.51163 8.77959C6.51163 8.5985 6.58513 8.42483 6.71597 8.29678C6.84681 8.16873 7.02427 8.09679 7.2093 8.09679H12.7907C12.975 8.09915 13.151 8.17184 13.2814 8.29939C13.4117 8.42693 13.486 8.59923 13.4884 8.77959ZM13.4884 12.4212C13.486 12.6015 13.4117 12.7738 13.2814 12.9014C13.151 13.0289 12.975 13.1016 12.7907 13.104H7.2093C7.02427 13.104 6.84681 13.032 6.71597 12.904C6.58513 12.7759 6.51163 12.6023 6.51163 12.4212C6.51163 12.2401 6.58513 12.0664 6.71597 11.9384C6.84681 11.8103 7.02427 11.7384 7.2093 11.7384H12.7907C12.975 11.7407 13.151 11.8134 13.2814 11.941C13.4117 12.0685 13.486 12.2408 13.4884 12.4212Z" fill="#999999"/>
</g>
<defs>
<clipPath id="clip0_273_2216">
<rect width="20" height="20" fill="white"/>
</clipPath>
</defs>
</svg>
