<svg width="16" height="16" viewBox="0 0 16 16" fill="none" xmlns="http://www.w3.org/2000/svg">
<path d="M3.63434 14.6668H9.69834C10.8637 14.6668 11.8197 13.7922 11.969 12.6668H12.365C12.9751 12.6661 13.5601 12.4234 13.9915 11.992C14.4229 11.5606 14.6656 10.9756 14.6663 10.3655V3.63483C14.6656 3.02469 14.4229 2.43975 13.9915 2.00832C13.5601 1.57689 12.9751 1.3342 12.365 1.3335H6.30101C5.69087 1.3342 5.10593 1.57689 4.6745 2.00832C4.24307 2.43975 4.00038 3.02469 3.99967 3.63483V4.00016H3.63434C3.02421 4.00087 2.43926 4.24356 2.00783 4.67499C1.5764 5.10642 1.33371 5.69136 1.33301 6.3015V12.3655C1.33371 12.9756 1.5764 13.5606 2.00783 13.992C2.43926 14.4234 3.02421 14.6661 3.63434 14.6668ZM5.33301 3.63483C5.33301 3.1015 5.76701 2.66683 6.30101 2.66683H12.365C12.8983 2.66683 13.333 3.10083 13.333 3.63483V10.3655C13.333 10.8988 12.899 11.3335 12.365 11.3335H11.9997V6.3015C11.999 5.69136 11.7563 5.10642 11.3249 4.67499C10.8934 4.24356 10.3085 4.00087 9.69834 4.00016H5.33301V3.63483ZM2.66634 6.3015C2.66634 5.76816 3.10034 5.3335 3.63434 5.3335H9.69834C10.2317 5.3335 10.6663 5.7675 10.6663 6.3015V12.3655C10.6663 12.8988 10.2323 13.3335 9.69834 13.3335H3.63434C3.10101 13.3335 2.66634 12.8995 2.66634 12.3655V6.3015Z" fill="black"/>
</svg>
