<svg width="16" height="16" viewBox="0 0 16 16" fill="none" xmlns="http://www.w3.org/2000/svg">
<g clip-path="url(#clip0_1388_2022)">
<path d="M13.1427 8.00012C12.8271 8.00012 12.5712 8.25595 12.5712 8.57155V14.2857C12.5712 14.6013 12.3154 14.8572 11.9998 14.8572H1.71426C1.39866 14.8572 1.14283 14.6013 1.14283 14.2857V2.85733C1.14283 2.54173 1.39866 2.2859 1.71426 2.2859H8.57131C8.88691 2.2859 9.14275 2.03006 9.14275 1.71447C9.14275 1.39887 8.88691 1.14307 8.57131 1.14307H1.71426C0.767501 1.14307 0 1.91057 0 2.85733V14.2857C0 15.2325 0.767501 16 1.71426 16H11.9998C12.9466 16 13.7141 15.2325 13.7141 14.2857V8.57152C13.7141 8.25595 13.4583 8.00012 13.1427 8.00012Z" fill="black"/>
<path d="M15.3603 0.640782C15.1572 0.437601 14.916 0.276435 14.6506 0.166489C14.3851 0.0565434 14.1006 -2.71379e-05 13.8133 9.17338e-06C13.5258 -0.000826312 13.2411 0.0554164 12.9756 0.165475C12.71 0.275534 12.469 0.437218 12.2665 0.64115L4.73967 8.1673C4.67723 8.23022 4.63012 8.30667 4.60196 8.39072L3.45913 11.8193C3.35939 12.1187 3.52127 12.4422 3.8207 12.542C3.87879 12.5613 3.93963 12.5712 4.00083 12.5712C4.06218 12.5711 4.12313 12.5613 4.1814 12.5421L7.60992 11.3993C7.69413 11.3712 7.77064 11.3238 7.83335 11.261L15.3601 3.73426C16.2144 2.88007 16.2145 1.49507 15.3603 0.640782ZM14.5521 2.92681L7.12364 10.3553L4.90423 11.0964L5.64307 8.87986L13.0744 1.45141C13.4829 1.04367 14.1447 1.04434 14.5525 1.45288C14.7472 1.64804 14.857 1.91226 14.8578 2.18797C14.8582 2.32521 14.8313 2.46115 14.7789 2.58796C14.7264 2.71477 14.6493 2.82994 14.5521 2.92681Z" fill="black"/>
</g>
<defs>
<clipPath id="clip0_1388_2022">
<rect width="16" height="16" fill="white"/>
</clipPath>
</defs>
</svg>
