<svg width="512" height="512" viewBox="0 0 512 512" fill="none" xmlns="http://www.w3.org/2000/svg">
<path d="M455.032 237.656L446.448 246.232C446.035 236.085 441.76 226.479 434.5 219.379C427.239 212.279 417.54 208.221 407.386 208.035C397.232 207.849 387.391 211.549 379.875 218.379C372.359 225.208 367.736 234.651 366.952 244.776L359.832 237.656C355.259 233.292 349.181 230.858 342.86 230.858C336.539 230.858 330.461 233.292 325.888 237.656C321.388 242.157 318.861 248.26 318.861 254.624C318.861 260.988 321.388 267.091 325.888 271.592L331.152 276.848C332.661 278.305 334.681 279.112 336.779 279.093C338.877 279.075 340.883 278.234 342.366 276.751C343.85 275.267 344.691 273.261 344.709 271.163C344.727 269.066 343.921 267.045 342.464 265.536L337.2 260.28C335.7 258.78 334.857 256.745 334.857 254.624C334.857 252.503 335.7 250.468 337.2 248.968C338.725 247.513 340.752 246.701 342.86 246.701C344.968 246.701 346.995 247.513 348.52 248.968L373.488 273.936C382.489 282.937 394.698 287.994 407.428 287.994C420.158 287.994 432.366 282.937 441.368 273.936L466.344 248.968C467.865 247.508 469.891 246.693 472 246.693C474.108 246.693 476.135 247.508 477.656 248.968C479.156 250.468 479.998 252.503 479.998 254.624C479.998 256.745 479.156 258.78 477.656 260.28L444.688 293.256C440.217 297.704 436.672 302.994 434.26 308.82C431.847 314.647 430.614 320.894 430.632 327.2V344H382.632V325.6C382.647 319.295 381.412 313.049 378.998 307.224C376.584 301.399 373.039 296.11 368.568 291.664L365.088 288.184C363.588 286.683 361.553 285.839 359.431 285.838C357.308 285.838 355.273 286.68 353.772 288.18C352.271 289.68 351.427 291.715 351.426 293.837C351.425 295.959 352.268 297.995 353.768 299.496L357.256 302.976C360.237 305.94 362.601 309.465 364.21 313.349C365.82 317.232 366.643 321.396 366.632 325.6V449.72C362.158 451.483 358.316 454.55 355.606 458.523C352.896 462.496 351.441 467.191 351.432 472V488C351.432 490.122 352.275 492.157 353.775 493.657C355.275 495.157 357.31 496 359.432 496H455.432C457.553 496 459.588 495.157 461.089 493.657C462.589 492.157 463.432 490.122 463.432 488V472C463.414 466.911 461.776 461.961 458.755 457.865C455.735 453.77 451.488 450.743 446.632 449.224V384C446.632 381.878 445.789 379.843 444.289 378.343C442.788 376.843 440.753 376 438.632 376C436.51 376 434.475 376.843 432.975 378.343C431.475 379.843 430.632 381.878 430.632 384V448H414.632V392C414.632 389.878 413.789 387.843 412.289 386.343C410.788 384.843 408.753 384 406.632 384C404.51 384 402.475 384.843 400.975 386.343C399.475 387.843 398.632 389.878 398.632 392V448H382.632V360H438.632C440.753 360 442.788 359.157 444.289 357.657C445.789 356.157 446.632 354.122 446.632 352V327.2C446.62 322.996 447.442 318.831 449.05 314.946C450.658 311.061 453.02 307.534 456 304.568L488.968 271.6C491.197 269.371 492.965 266.725 494.171 263.813C495.378 260.901 495.999 257.78 495.999 254.628C495.999 251.476 495.378 248.355 494.171 245.443C492.965 242.531 491.197 239.885 488.968 237.656C484.395 233.295 478.319 230.861 472 230.861C465.681 230.861 459.604 233.295 455.032 237.656ZM406.632 224C411.378 224 416.019 225.408 419.965 228.045C423.912 230.682 426.988 234.43 428.805 238.816C430.621 243.201 431.097 248.027 430.171 252.682C429.245 257.338 426.959 261.614 423.602 264.971C420.246 268.327 415.969 270.613 411.314 271.539C406.658 272.465 401.833 271.99 397.447 270.173C393.062 268.357 389.314 265.28 386.676 261.334C384.039 257.387 382.632 252.747 382.632 248C382.632 241.635 385.16 235.53 389.661 231.029C394.162 226.529 400.267 224 406.632 224ZM439.432 464C441.553 464 443.588 464.843 445.089 466.343C446.589 467.843 447.432 469.878 447.432 472V480H415.432V464H439.432ZM399.432 464V480H367.432V472C367.432 469.878 368.275 467.843 369.775 466.343C371.275 464.843 373.31 464 375.432 464H399.432ZM152.168 237.656L145.048 244.776C144.263 234.651 139.64 225.208 132.124 218.379C124.608 211.549 114.767 207.849 104.614 208.035C94.4598 208.221 84.7608 212.279 77.5 219.379C70.2391 226.479 65.965 236.085 65.5518 246.232L56.9758 237.656C52.4028 233.292 46.3247 230.858 40.0038 230.858C33.6828 230.858 27.6047 233.292 23.0318 237.656C18.5325 242.157 16.0049 248.26 16.0049 254.624C16.0049 260.988 18.5325 267.091 23.0318 271.592L55.9998 304.568C58.9795 307.534 61.3416 311.061 62.9496 314.946C64.5576 318.831 65.3795 322.996 65.3678 327.2V449.224C60.5112 450.743 56.2647 453.77 53.2441 457.865C50.2234 461.961 48.5855 466.911 48.5678 472V488C48.5678 490.122 49.4106 492.157 50.9109 493.657C52.4112 495.157 54.446 496 56.5678 496H152.568C154.689 496 156.724 495.157 158.225 493.657C159.725 492.157 160.568 490.122 160.568 488V472C160.556 467.192 159.101 462.499 156.391 458.528C153.681 454.556 149.841 451.491 145.368 449.728V384C145.368 381.878 144.525 379.843 143.025 378.343C141.524 376.843 139.489 376 137.368 376C135.246 376 133.211 376.843 131.711 378.343C130.211 379.843 129.368 381.878 129.368 384V448H113.368V392C113.368 389.878 112.525 387.843 111.025 386.343C109.524 384.843 107.489 384 105.368 384C103.246 384 101.211 384.843 99.7109 386.343C98.2106 387.843 97.3678 389.878 97.3678 392V448H81.3678V360H137.368C139.489 360 141.524 359.157 143.025 357.657C144.525 356.157 145.368 354.122 145.368 352V325.6C145.357 321.394 146.181 317.229 147.792 313.344C149.403 309.459 151.768 305.932 154.752 302.968L158.232 299.488C158.995 298.749 159.603 297.865 160.021 296.889C160.439 295.912 160.658 294.862 160.665 293.8C160.673 292.738 160.469 291.685 160.066 290.702C159.662 289.719 159.067 288.827 158.314 288.077C157.562 287.327 156.668 286.734 155.685 286.333C154.701 285.933 153.647 285.732 152.585 285.742C151.523 285.753 150.473 285.975 149.498 286.396C148.523 286.816 147.641 287.427 146.904 288.192L143.432 291.664C138.961 296.11 135.416 301.399 133.002 307.224C130.588 313.049 129.352 319.295 129.368 325.6V344H81.3678V327.2C81.3845 320.895 80.1509 314.649 77.7382 308.824C75.3256 302.999 71.7817 297.711 67.3118 293.264L34.3358 260.272C32.8384 258.772 31.9975 256.739 31.9975 254.62C31.9975 252.501 32.8384 250.468 34.3358 248.968C35.8568 247.508 37.8835 246.693 39.9918 246.693C42.1001 246.693 44.1267 247.508 45.6478 248.968L70.6158 273.936C79.6174 282.937 91.8259 287.994 104.556 287.994C117.286 287.994 129.494 282.937 138.496 273.936L163.472 248.968C164.993 247.508 167.019 246.693 169.128 246.693C171.236 246.693 173.263 247.508 174.784 248.968C176.284 250.468 177.126 252.503 177.126 254.624C177.126 256.745 176.284 258.78 174.784 260.28L169.528 265.536C168.028 267.037 167.185 269.073 167.186 271.195C167.187 273.317 168.031 275.352 169.532 276.852C171.033 278.352 173.068 279.194 175.191 279.194C177.313 279.193 179.348 278.349 180.848 276.848L186.096 271.6C188.325 269.371 190.093 266.725 191.299 263.813C192.506 260.901 193.127 257.78 193.127 254.628C193.127 251.476 192.506 248.355 191.299 245.443C190.093 242.531 188.325 239.885 186.096 237.656C181.524 233.297 175.449 230.865 169.132 230.865C162.815 230.865 156.74 233.297 152.168 237.656ZM136.568 464C138.689 464 140.724 464.843 142.225 466.343C143.725 467.843 144.568 469.878 144.568 472V480H112.568V464H136.568ZM96.5678 464V480H64.5678V472C64.5678 469.878 65.4106 467.843 66.9109 466.343C68.4112 464.843 70.446 464 72.5678 464H96.5678ZM105.368 224C110.115 224 114.755 225.408 118.701 228.045C122.648 230.682 125.724 234.43 127.541 238.816C129.357 243.201 129.833 248.027 128.907 252.682C127.981 257.338 125.695 261.614 122.338 264.971C118.982 268.327 114.705 270.613 110.05 271.539C105.394 272.465 100.569 271.99 96.1834 270.173C91.7979 268.357 88.0496 265.28 85.4125 261.334C82.7753 257.387 81.3678 252.747 81.3678 248C81.3678 241.635 83.8963 235.53 88.3972 231.029C92.8981 226.529 99.0026 224 105.368 224Z" fill="#0910FF"/>
<path d="M295.2 377.224V312C295.2 309.878 294.357 307.843 292.857 306.343C291.357 304.843 289.322 304 287.2 304C285.078 304 283.043 304.843 281.543 306.343C280.043 307.843 279.2 309.878 279.2 312V376H263.2V320C263.2 317.878 262.357 315.843 260.857 314.343C259.357 312.843 257.322 312 255.2 312C253.078 312 251.043 312.843 249.543 314.343C248.043 315.843 247.2 317.878 247.2 320V376H231.2V288H287.2C289.322 288 291.357 287.157 292.857 285.657C294.357 284.157 295.2 282.122 295.2 280V255.2C295.189 250.996 296.012 246.832 297.622 242.949C299.231 239.065 301.595 235.54 304.576 232.576L337.544 199.6C341.916 195.074 344.335 189.011 344.28 182.718C344.225 176.426 341.701 170.406 337.252 165.956C332.802 161.507 326.782 158.983 320.49 158.928C314.197 158.873 308.134 161.292 303.608 165.664L295.016 174.24C294.6 164.094 290.324 154.489 283.062 147.391C275.799 140.293 266.1 136.237 255.947 136.054C245.793 135.87 235.953 139.571 228.439 146.402C220.924 153.232 216.303 162.675 215.52 172.8L208.4 165.68C203.887 161.239 197.803 158.761 191.471 158.786C185.14 158.811 179.075 161.337 174.598 165.814C170.12 170.29 167.593 176.354 167.566 182.686C167.54 189.017 170.016 195.102 174.456 199.616L179.712 204.872C181.212 206.373 183.247 207.217 185.369 207.218C187.491 207.218 189.527 206.376 191.028 204.876C192.529 203.376 193.373 201.341 193.374 199.219C193.374 197.097 192.532 195.061 191.032 193.56L185.776 188.304C184.319 186.795 183.512 184.774 183.531 182.677C183.549 180.579 184.39 178.573 185.873 177.089C187.357 175.606 189.363 174.765 191.461 174.747C193.558 174.728 195.579 175.535 197.088 176.992L222.056 201.96C226.513 206.418 231.805 209.954 237.629 212.367C243.453 214.78 249.696 216.022 256 216.022C262.304 216.022 268.547 214.78 274.371 212.367C280.195 209.954 285.487 206.418 289.944 201.96L314.912 176.992C315.65 176.228 316.533 175.618 317.509 175.199C318.485 174.78 319.535 174.559 320.597 174.55C321.659 174.541 322.712 174.743 323.696 175.145C324.679 175.548 325.572 176.142 326.323 176.893C327.074 177.644 327.668 178.537 328.071 179.52C328.473 180.504 328.675 181.557 328.666 182.619C328.657 183.681 328.436 184.731 328.017 185.707C327.598 186.683 326.988 187.566 326.224 188.304L293.256 221.28C288.787 225.724 285.243 231.01 282.83 236.832C280.417 242.654 279.184 248.898 279.2 255.2V272H231.2V253.6C231.217 247.296 229.984 241.051 227.572 235.226C225.161 229.401 221.619 224.112 217.152 219.664L213.664 216.184C212.164 214.683 210.129 213.839 208.007 213.838C205.885 213.838 203.849 214.68 202.348 216.18C200.847 217.68 200.003 219.715 200.002 221.837C200.002 223.959 200.844 225.995 202.344 227.496L205.832 230.976C208.811 233.941 211.172 237.467 212.78 241.35C214.388 245.234 215.211 249.397 215.2 253.6V377.728C210.727 379.491 206.887 382.556 204.176 386.528C201.466 390.499 200.011 395.192 200 400V416C200 418.122 200.843 420.157 202.343 421.657C203.843 423.157 205.878 424 208 424H304C306.122 424 308.157 423.157 309.657 421.657C311.157 420.157 312 418.122 312 416V400C311.984 394.911 310.346 389.96 307.325 385.864C304.304 381.769 300.057 378.742 295.2 377.224ZM255.2 152C259.947 152 264.587 153.408 268.534 156.045C272.48 158.682 275.557 162.43 277.373 166.816C279.19 171.201 279.665 176.027 278.739 180.682C277.813 185.338 275.527 189.614 272.171 192.971C268.814 196.327 264.538 198.613 259.882 199.539C255.227 200.465 250.401 199.99 246.016 198.173C241.63 196.357 237.882 193.28 235.245 189.334C232.608 185.387 231.2 180.747 231.2 176C231.2 169.635 233.729 163.53 238.229 159.029C242.73 154.529 248.835 152 255.2 152ZM216 400C216 397.878 216.843 395.843 218.343 394.343C219.843 392.843 221.878 392 224 392H248V408H216V400ZM296 408H264V392H288C290.122 392 292.157 392.843 293.657 394.343C295.157 395.843 296 397.878 296 400V408ZM72 48H80V56C80 58.1217 80.8429 60.1566 82.3431 61.6569C83.8434 63.1571 85.8783 64 88 64C90.1217 64 92.1566 63.1571 93.6569 61.6569C95.1571 60.1566 96 58.1217 96 56V48H104C106.122 48 108.157 47.1571 109.657 45.6569C111.157 44.1566 112 42.1217 112 40C112 37.8783 111.157 35.8434 109.657 34.3431C108.157 32.8429 106.122 32 104 32H96V24C96 21.8783 95.1571 19.8434 93.6569 18.3431C92.1566 16.8429 90.1217 16 88 16C85.8783 16 83.8434 16.8429 82.3431 18.3431C80.8429 19.8434 80 21.8783 80 24V32H72C69.8783 32 67.8434 32.8429 66.3431 34.3431C64.8429 35.8434 64 37.8783 64 40C64 42.1217 64.8429 44.1566 66.3431 45.6569C67.8434 47.1571 69.8783 48 72 48ZM24 144H32V152C32 154.122 32.8429 156.157 34.3431 157.657C35.8434 159.157 37.8783 160 40 160C42.1217 160 44.1566 159.157 45.6569 157.657C47.1571 156.157 48 154.122 48 152V144H56C58.1217 144 60.1566 143.157 61.6569 141.657C63.1571 140.157 64 138.122 64 136C64 133.878 63.1571 131.843 61.6569 130.343C60.1566 128.843 58.1217 128 56 128H48V120C48 117.878 47.1571 115.843 45.6569 114.343C44.1566 112.843 42.1217 112 40 112C37.8783 112 35.8434 112.843 34.3431 114.343C32.8429 115.843 32 117.878 32 120V128H24C21.8783 128 19.8434 128.843 18.3431 130.343C16.8429 131.843 16 133.878 16 136C16 138.122 16.8429 140.157 18.3431 141.657C19.8434 143.157 21.8783 144 24 144Z" fill="#0910FF"/>
<path d="M80 112C84.4183 112 88 108.418 88 104C88 99.5817 84.4183 96 80 96C75.5817 96 72 99.5817 72 104C72 108.418 75.5817 112 80 112Z" fill="#0910FF"/>
<path d="M24 104C28.4183 104 32 100.418 32 96C32 91.5817 28.4183 88 24 88C19.5817 88 16 91.5817 16 96C16 100.418 19.5817 104 24 104Z" fill="#0910FF"/>
<path d="M130.76 72C135.178 72 138.76 68.4183 138.76 64C138.76 59.5817 135.178 56 130.76 56C126.341 56 122.76 59.5817 122.76 64C122.76 68.4183 126.341 72 130.76 72Z" fill="#0910FF"/>
<path d="M294.928 48H302.928V56C302.928 58.1217 303.771 60.1566 305.271 61.6569C306.771 63.1571 308.806 64 310.928 64C313.05 64 315.085 63.1571 316.585 61.6569C318.085 60.1566 318.928 58.1217 318.928 56V48H326.928C329.05 48 331.085 47.1571 332.585 45.6569C334.085 44.1566 334.928 42.1217 334.928 40C334.928 37.8783 334.085 35.8434 332.585 34.3431C331.085 32.8429 329.05 32 326.928 32H318.928V24C318.928 21.8783 318.085 19.8434 316.585 18.3431C315.085 16.8429 313.05 16 310.928 16C308.806 16 306.771 16.8429 305.271 18.3431C303.771 19.8434 302.928 21.8783 302.928 24V32H294.928C292.806 32 290.771 32.8429 289.271 34.3431C287.771 35.8434 286.928 37.8783 286.928 40C286.928 42.1217 287.771 44.1566 289.271 45.6569C290.771 47.1571 292.806 48 294.928 48ZM176 48H184V56C184 58.1217 184.843 60.1566 186.343 61.6569C187.843 63.1571 189.878 64 192 64C194.122 64 196.157 63.1571 197.657 61.6569C199.157 60.1566 200 58.1217 200 56V48H208C210.122 48 212.157 47.1571 213.657 45.6569C215.157 44.1566 216 42.1217 216 40C216 37.8783 215.157 35.8434 213.657 34.3431C212.157 32.8429 210.122 32 208 32H200V24C200 21.8783 199.157 19.8434 197.657 18.3431C196.157 16.8429 194.122 16 192 16C189.878 16 187.843 16.8429 186.343 18.3431C184.843 19.8434 184 21.8783 184 24V32H176C173.878 32 171.843 32.8429 170.343 34.3431C168.843 35.8434 168 37.8783 168 40C168 42.1217 168.843 44.1566 170.343 45.6569C171.843 47.1571 173.878 48 176 48ZM420 60H428V68C428 70.1217 428.843 72.1566 430.343 73.6569C431.843 75.1571 433.878 76 436 76C438.122 76 440.157 75.1571 441.657 73.6569C443.157 72.1566 444 70.1217 444 68V60H452C454.122 60 456.157 59.1571 457.657 57.6569C459.157 56.1566 460 54.1217 460 52C460 49.8783 459.157 47.8434 457.657 46.3431C456.157 44.8429 454.122 44 452 44H444V36C444 33.8783 443.157 31.8434 441.657 30.3431C440.157 28.8429 438.122 28 436 28C433.878 28 431.843 28.8429 430.343 30.3431C428.843 31.8434 428 33.8783 428 36V44H420C417.878 44 415.843 44.8429 414.343 46.3431C412.843 47.8434 412 49.8783 412 52C412 54.1217 412.843 56.1566 414.343 57.6569C415.843 59.1571 417.878 60 420 60Z" fill="#0910FF"/>
<path d="M488 64C492.418 64 496 60.4183 496 56C496 51.5817 492.418 48 488 48C483.582 48 480 51.5817 480 56C480 60.4183 483.582 64 488 64Z" fill="#0910FF"/>
<path d="M40 56C44.4183 56 48 52.4183 48 48C48 43.5817 44.4183 40 40 40C35.5817 40 32 43.5817 32 48C32 52.4183 35.5817 56 40 56Z" fill="#0910FF"/>
<path d="M400 32C404.418 32 408 28.4183 408 24C408 19.5817 404.418 16 400 16C395.582 16 392 19.5817 392 24C392 28.4183 395.582 32 400 32Z" fill="#0910FF"/>
<path d="M256 32C260.418 32 264 28.4183 264 24C264 19.5817 260.418 16 256 16C251.582 16 248 19.5817 248 24C248 28.4183 251.582 32 256 32Z" fill="#0910FF"/>
<path d="M247.664 72C252.082 72 255.664 68.4183 255.664 64C255.664 59.5817 252.082 56 247.664 56C243.246 56 239.664 59.5817 239.664 64C239.664 68.4183 243.246 72 247.664 72Z" fill="#0910FF"/>
<path d="M464 112C468.418 112 472 108.418 472 104C472 99.5817 468.418 96 464 96C459.582 96 456 99.5817 456 104C456 108.418 459.582 112 464 112Z" fill="#0910FF"/>
<path d="M341.472 143.584C343.485 144.255 345.682 144.1 347.579 143.152C349.477 142.204 350.921 140.54 351.592 138.528L375.592 66.528C376.263 64.5124 376.105 62.3129 375.154 60.4136C374.203 58.5142 372.536 57.0705 370.52 56.4C368.505 55.7296 366.305 55.8873 364.406 56.8384C362.507 57.7896 361.063 59.4564 360.392 61.472L336.392 133.472C336.062 134.47 335.931 135.522 336.007 136.571C336.084 137.619 336.366 138.641 336.837 139.58C337.309 140.52 337.961 141.356 338.757 142.043C339.552 142.73 340.475 143.254 341.472 143.584ZM384 152C385.201 152.002 386.387 151.733 387.47 151.214C388.553 150.694 389.506 149.938 390.256 149L422.256 109C423.582 107.343 424.196 105.227 423.962 103.118C423.728 101.008 422.665 99.0781 421.008 97.752C419.351 96.4259 417.235 95.8124 415.126 96.0465C413.016 96.2805 411.086 97.343 409.76 99L377.76 139C376.819 140.176 376.228 141.595 376.057 143.092C375.886 144.589 376.141 146.103 376.793 147.462C377.445 148.82 378.468 149.967 379.743 150.77C381.018 151.573 382.494 151.999 384 152ZM454.144 138.872C452.786 137.243 450.837 136.22 448.724 136.028C446.612 135.836 444.51 136.491 442.88 137.848L394.88 177.848C393.249 179.206 392.223 181.156 392.03 183.27C391.836 185.384 392.49 187.488 393.848 189.12C395.206 190.752 397.157 191.777 399.271 191.971C401.385 192.164 403.489 191.51 405.12 190.152L453.12 150.152C453.929 149.479 454.597 148.654 455.087 147.722C455.576 146.791 455.877 145.772 455.972 144.724C456.067 143.677 455.955 142.62 455.641 141.616C455.328 140.612 454.819 139.679 454.144 138.872ZM185.344 132.44C185.927 133.314 186.677 134.065 187.55 134.649C188.423 135.234 189.403 135.64 190.433 135.846C191.464 136.052 192.525 136.053 193.555 135.848C194.586 135.644 195.566 135.239 196.44 134.656C197.314 134.073 198.065 133.323 198.649 132.45C199.234 131.577 199.641 130.597 199.846 129.567C200.052 128.537 200.053 127.476 199.849 126.445C199.645 125.414 199.239 124.434 198.656 123.56L166.656 75.56C165.479 73.7947 163.648 72.5696 161.567 72.154C159.486 71.7384 157.326 72.1665 155.56 73.344C153.795 74.5216 152.57 76.3522 152.154 78.4331C151.739 80.514 152.167 82.6747 153.344 84.44L185.344 132.44ZM106.344 98.344C104.845 99.8442 104.002 101.879 104.002 104C104.002 106.121 104.845 108.156 106.344 109.656L154.344 157.656C155.853 159.113 157.874 159.92 159.972 159.901C162.069 159.883 164.076 159.042 165.559 157.559C167.042 156.075 167.883 154.069 167.902 151.971C167.92 149.874 167.114 147.853 165.656 146.344L117.656 98.344C116.156 96.8443 114.122 96.0017 112 96.0017C109.879 96.0017 107.845 96.8443 106.344 98.344ZM122.344 189.656C123.853 191.113 125.874 191.92 127.972 191.901C130.069 191.883 132.076 191.042 133.559 189.559C135.042 188.075 135.883 186.069 135.902 183.971C135.92 181.874 135.114 179.853 133.656 178.344L93.6563 138.344C92.1475 136.887 90.1267 136.08 88.0291 136.099C85.9315 136.117 83.925 136.958 82.4418 138.441C80.9585 139.925 80.1172 141.931 80.0989 144.029C80.0807 146.126 80.8871 148.147 82.3443 149.656L122.344 189.656ZM448 208C449.449 207.998 450.871 207.603 452.112 206.856L492.112 182.856C493.033 182.325 493.839 181.616 494.482 180.771C495.126 179.925 495.594 178.959 495.861 177.931C496.127 176.902 496.186 175.83 496.033 174.778C495.881 173.727 495.521 172.716 494.973 171.805C494.426 170.894 493.702 170.101 492.845 169.473C491.988 168.845 491.014 168.394 489.981 168.146C488.948 167.898 487.875 167.859 486.826 168.03C485.777 168.202 484.773 168.58 483.872 169.144L443.872 193.144C442.373 194.046 441.211 195.414 440.563 197.039C439.916 198.664 439.819 200.456 440.287 202.142C440.755 203.827 441.763 205.313 443.156 206.371C444.549 207.429 446.251 208.001 448 208ZM42.3443 213.656C43.0823 214.42 43.9651 215.03 44.9411 215.449C45.9171 215.868 46.9669 216.089 48.0291 216.098C49.0914 216.107 50.1448 215.905 51.128 215.503C52.1111 215.1 53.0043 214.506 53.7555 213.755C54.5066 213.004 55.1007 212.111 55.5029 211.128C55.9052 210.144 56.1076 209.091 56.0983 208.029C56.0891 206.967 55.8684 205.917 55.4491 204.941C55.0299 203.965 54.4204 203.082 53.6563 202.344L29.6563 178.344C28.1475 176.887 26.1267 176.08 24.0291 176.099C21.9315 176.117 19.925 176.958 18.4418 178.441C16.9585 179.925 16.1172 181.931 16.0989 184.029C16.0807 186.126 16.8871 188.147 18.3443 189.656L42.3443 213.656ZM208.568 74.968L224.568 114.968C224.958 115.944 225.536 116.834 226.27 117.586C227.003 118.339 227.878 118.939 228.844 119.354C229.81 119.768 230.847 119.989 231.898 120.002C232.949 120.015 233.992 119.822 234.968 119.432C235.944 119.042 236.834 118.464 237.587 117.73C238.339 116.997 238.94 116.122 239.354 115.157C239.769 114.191 239.989 113.153 240.002 112.102C240.016 111.051 239.822 110.008 239.432 109.032L223.432 69.032C223.043 68.056 222.464 67.1664 221.731 66.4139C220.997 65.6613 220.123 65.0606 219.157 64.6461C218.191 64.2316 217.153 64.0113 216.102 63.9979C215.052 63.9845 214.008 64.1783 213.032 64.568C212.056 64.9578 211.167 65.536 210.414 66.2696C209.662 67.0031 209.061 67.8778 208.646 68.8435C207.809 70.7939 207.781 72.9969 208.568 74.968ZM264 112C264 114.122 264.843 116.157 266.343 117.657C267.844 119.157 269.879 120 272 120C274.122 120 276.157 119.157 277.657 117.657C279.157 116.157 280 114.122 280 112V88C280 85.8783 279.157 83.8435 277.657 82.3432C276.157 80.8429 274.122 80 272 80C269.879 80 267.844 80.8429 266.343 82.3432C264.843 83.8435 264 85.8783 264 88V112ZM315.576 96.84C314.636 96.37 313.613 96.0898 312.564 96.0155C311.516 95.9413 310.463 96.0744 309.466 96.4072C308.469 96.7401 307.547 97.2661 306.753 97.9554C305.96 98.6446 305.31 99.4835 304.84 100.424L296.84 116.424C296.361 117.365 296.073 118.391 295.992 119.444C295.911 120.497 296.04 121.555 296.37 122.558C296.7 123.561 297.225 124.488 297.916 125.287C298.606 126.086 299.448 126.74 300.392 127.212C301.337 127.684 302.365 127.964 303.419 128.037C304.472 128.109 305.529 127.973 306.53 127.635C307.53 127.297 308.453 126.764 309.247 126.068C310.04 125.371 310.688 124.524 311.152 123.576L319.152 107.576C319.623 106.636 319.903 105.613 319.978 104.565C320.053 103.517 319.921 102.464 319.588 101.467C319.256 100.47 318.731 99.5484 318.043 98.7545C317.354 97.9605 316.516 97.31 315.576 96.84ZM50.3443 162.344C48.8446 163.844 48.002 165.879 48.002 168C48.002 170.121 48.8446 172.156 50.3443 173.656L66.3443 189.656C67.8531 191.113 69.874 191.92 71.9715 191.901C74.0691 191.883 76.0756 191.042 77.5589 189.559C79.0421 188.075 79.8835 186.069 79.9017 183.971C79.9199 181.874 79.1136 179.853 77.6563 178.344L61.6563 162.344C60.1561 160.844 58.1216 160.002 56.0003 160.002C53.879 160.002 51.8446 160.844 50.3443 162.344Z" fill="#0910FF"/>
</svg>
