<svg width="16" height="16" viewBox="0 0 16 16" fill="none" xmlns="http://www.w3.org/2000/svg">
<g clip-path="url(#clip0_954_358)">
<path d="M11.8315 9.0936C10.755 7.79385 9.39429 7.07804 7.99998 7.07804C6.60566 7.07804 5.24495 7.79385 4.16851 9.0936C3.20088 10.2619 2.62326 11.7343 2.62326 13.0322C2.62326 13.6627 2.81601 14.1429 3.19613 14.4597C3.57132 14.7723 4.06666 14.878 4.61929 14.878C5.20732 14.878 5.86026 14.7583 6.50179 14.6406C7.06238 14.5377 7.59188 14.4406 8.00001 14.4406C8.35226 14.4406 8.84892 14.5328 9.37463 14.6304C10.6033 14.8585 11.9959 15.117 12.8004 14.4481C13.1828 14.1302 13.3767 13.6538 13.3767 13.0322C13.3768 11.7343 12.7991 10.2619 11.8315 9.0936ZM12.201 13.7273C11.7347 14.115 10.5209 13.8897 9.5457 13.7087C8.97629 13.6029 8.43848 13.5031 7.99995 13.5031C7.50654 13.5031 6.93632 13.6077 6.33257 13.7185C5.39723 13.89 4.23316 14.1036 3.79616 13.7394C3.73791 13.6909 3.56066 13.5432 3.56066 13.0322C3.56066 11.962 4.07023 10.6819 4.89045 9.69157C5.7856 8.61076 6.88991 8.01551 7.99991 8.01551C9.10991 8.01551 10.2142 8.61076 11.1094 9.69157C11.9296 10.6819 12.4392 11.962 12.4392 13.0322C12.4393 13.5292 12.2599 13.6783 12.201 13.7273ZM11.9415 2.03585C11.5477 1.45513 10.9837 1.12213 10.3941 1.12213C9.80457 1.12213 9.2406 1.4552 8.84673 2.03585C8.48491 2.56932 8.28563 3.26988 8.28563 4.00851C8.28563 4.74713 8.48488 5.4477 8.84673 5.98116C9.2406 6.56185 9.8046 6.89491 10.3941 6.89491C10.9837 6.89491 11.5477 6.56185 11.9415 5.98116C12.3034 5.4477 12.5026 4.74713 12.5026 4.00851C12.5026 3.26988 12.3034 2.56929 11.9415 2.03585ZM11.1657 5.45495C11.0384 5.6426 10.7689 5.95745 10.3941 5.95745C10.0194 5.95745 9.74988 5.64263 9.62257 5.45495C9.3687 5.08063 9.2231 4.55341 9.2231 4.00851C9.2231 3.46357 9.36873 2.93638 9.62257 2.56207C9.74985 2.37441 10.0194 2.05957 10.3941 2.05957C10.7689 2.05957 11.0384 2.37438 11.1657 2.56207C11.4196 2.93638 11.5652 3.4636 11.5652 4.00851C11.5651 4.55341 11.4196 5.08063 11.1657 5.45495ZM7.15326 2.03582C6.75938 1.4551 6.19541 1.12207 5.60585 1.12207C5.01629 1.12207 4.45229 1.45513 4.05845 2.03582C3.69663 2.56929 3.49735 3.26985 3.49735 4.00848C3.49735 4.7471 3.6966 5.44766 4.05845 5.98113C4.45232 6.56185 5.01629 6.89491 5.60585 6.89491C6.19541 6.89491 6.75938 6.56185 7.15326 5.98113C7.51507 5.44766 7.71435 4.74713 7.71435 4.00848C7.71432 3.26985 7.51507 2.56926 7.15326 2.03582ZM6.37735 5.45495C6.25007 5.6426 5.98057 5.95745 5.60582 5.95745C5.23104 5.95745 4.96154 5.6426 4.83426 5.45495C4.58038 5.08063 4.43479 4.55341 4.43479 4.00851C4.43479 3.46357 4.58041 2.93638 4.83426 2.56207C4.96154 2.37441 5.23104 2.05957 5.60582 2.05957C5.9806 2.05957 6.25007 2.37438 6.37735 2.56207C6.63123 2.93638 6.77682 3.4636 6.77682 4.00851C6.77682 4.55341 6.63123 5.08063 6.37735 5.45495ZM15.9068 6.5667C15.748 6.02657 15.4077 5.6341 14.9485 5.46163C14.579 5.32285 14.1619 5.34638 13.7741 5.52791C13.2395 5.77804 12.8026 6.29454 12.5754 6.94495C12.3898 7.47645 12.3666 8.03823 12.5103 8.52688C12.6691 9.06701 13.0094 9.45948 13.4686 9.63195C13.6275 9.69163 13.7952 9.72129 13.9655 9.72129C14.1914 9.72129 14.422 9.66913 14.6431 9.56566C15.1776 9.31554 15.6145 8.79904 15.8417 8.14866V8.14863C16.0274 7.61716 16.0505 7.05535 15.9068 6.5667ZM14.9567 7.83948C14.8143 8.24701 14.5485 8.57488 14.2457 8.71657C14.1344 8.76863 13.9664 8.81748 13.7982 8.75432C13.3924 8.60185 13.2345 7.90079 13.4604 7.2541C13.6028 6.84657 13.8686 6.5187 14.1714 6.37698C14.2452 6.34245 14.3439 6.30935 14.451 6.30935C14.5055 6.30935 14.5622 6.31791 14.6189 6.3392C15.0247 6.4917 15.1826 7.19276 14.9567 7.83948ZM3.42457 6.94488C3.19735 6.29448 2.76045 5.77801 2.22595 5.52788C1.83804 5.34635 1.42091 5.32285 1.05145 5.4616C0.592258 5.6341 0.251914 6.02657 0.093133 6.56666C-0.0505232 7.05532 -0.027367 7.61713 0.158289 8.1486V8.14863C0.385539 8.79904 0.822414 9.31551 1.35691 9.56563C1.57804 9.6691 1.80863 9.72126 2.03448 9.72126C2.20485 9.72126 2.37254 9.69157 2.53141 9.63191C2.99066 9.45941 3.33098 9.06695 3.48976 8.52685C3.63335 8.03823 3.6102 7.47641 3.42457 6.94488ZM2.20173 8.75432C2.03357 8.81748 1.86557 8.76863 1.75426 8.71657C1.45148 8.57488 1.18566 8.24701 1.04332 7.83948V7.83951C0.817414 7.19279 0.975258 6.49176 1.38113 6.33926C1.54926 6.2761 1.71729 6.32495 1.82863 6.37701C2.13145 6.51873 2.39723 6.8466 2.53957 7.2541C2.76548 7.90082 2.6076 8.60185 2.20173 8.75432Z" fill="#3CDAD3"/>
</g>
<defs>
<clipPath id="clip0_954_358">
<rect width="16" height="16" fill="white"/>
</clipPath>
</defs>
</svg>
