<svg width="26" height="26" viewBox="0 0 26 26" fill="none" xmlns="http://www.w3.org/2000/svg">
<g clip-path="url(#clip0_444_81)">
<path d="M20.3069 6.45162C18.5694 4.70148 16.259 3.73761 13.8014 3.73761C11.3437 3.73761 9.03338 4.70148 7.29586 6.45162C5.5592 8.20094 4.60275 10.5265 4.60275 13C4.60275 14.4525 4.94524 15.8944 5.59272 17.1818C5.28582 18.413 4.42196 19.4389 3.25714 19.9444C2.99595 20.0502 2.91387 20.4127 3.10388 20.6207C3.86453 21.4952 4.96259 21.9968 6.11651 21.9968C7.16948 21.9968 8.16945 21.5822 8.91458 20.8484C10.3779 21.7746 12.0593 22.2624 13.8013 22.2624C16.259 22.2624 18.5693 21.2985 20.3069 19.5484C22.0435 17.799 23 15.4734 23 13C23 10.5265 22.0436 8.20094 20.3069 6.45162ZM13.8014 21.403C12.1098 21.403 10.4811 20.8955 9.09159 19.9355L9.09155 19.9356C8.91107 19.8106 8.66187 19.8414 8.51811 20.0129C7.91892 20.7275 7.04358 21.1373 6.11655 21.1373C5.39977 21.1373 4.71038 20.8901 4.1578 20.4463C5.33438 19.7451 6.18034 18.5747 6.46736 17.2142C6.49005 17.1066 6.46994 17.0001 6.41915 16.9118C5.7932 15.7148 5.4622 14.3626 5.4622 13C5.4622 8.36665 9.20316 4.59705 13.8014 4.59705C18.3996 4.59705 22.1406 8.36661 22.1406 13C22.1406 17.6334 18.3996 21.403 13.8014 21.403Z" fill="#999999"/>
<path d="M17.7653 12.1477H9.83744C9.60011 12.1477 9.40771 11.9553 9.40771 11.7179C9.40771 11.4806 9.60011 11.2882 9.83744 11.2882H17.7653C18.0026 11.2882 18.195 11.4806 18.195 11.7179C18.195 11.9553 18.0026 12.1477 17.7653 12.1477Z" fill="#999999"/>
<path d="M15.4598 15.2625H9.83744C9.60011 15.2625 9.40771 15.0701 9.40771 14.8327C9.40771 14.5954 9.60011 14.403 9.83744 14.403H15.4598C15.6972 14.403 15.8896 14.5954 15.8896 14.8327C15.8896 15.0701 15.6972 15.2625 15.4598 15.2625Z" fill="#999999"/>
</g>
<defs>
<clipPath id="clip0_444_81">
<rect width="20" height="20" fill="white" transform="translate(3 3)"/>
</clipPath>
</defs>
</svg>
