<svg width="12" height="12" viewBox="0 0 12 12" fill="none" xmlns="http://www.w3.org/2000/svg">
<path d="M9.9375 1.5H7.875V1.125C7.875 0.503672 7.37133 0 6.75 0H5.25C4.62867 0 4.125 0.503672 4.125 1.125V1.5H2.0625C1.54474 1.5 1.125 1.91974 1.125 2.4375V3.1875C1.125 3.39462 1.29288 3.5625 1.5 3.5625H10.5C10.7071 3.5625 10.875 3.39462 10.875 3.1875V2.4375C10.875 1.91974 10.4553 1.5 9.9375 1.5ZM4.875 1.125C4.875 0.918281 5.04328 0.75 5.25 0.75H6.75C6.95672 0.75 7.125 0.918281 7.125 1.125V1.5H4.875V1.125ZM1.83666 4.3125C1.8208 4.3125 1.8051 4.31572 1.79053 4.32196C1.77595 4.32821 1.76279 4.33734 1.75185 4.34882C1.7409 4.3603 1.73241 4.37388 1.72686 4.38874C1.72132 4.4036 1.71885 4.41943 1.71961 4.43527L2.02898 10.9284C2.05758 11.5294 2.55117 12 3.15258 12H8.84742C9.44883 12 9.94242 11.5294 9.97102 10.9284L10.2804 4.43527C10.2811 4.41943 10.2787 4.4036 10.2731 4.38874C10.2676 4.37388 10.2591 4.3603 10.2482 4.34882C10.2372 4.33734 10.224 4.32821 10.2095 4.32196C10.1949 4.31572 10.1792 4.3125 10.1633 4.3125H1.83666ZM7.5 5.25C7.5 5.04281 7.66781 4.875 7.875 4.875C8.08219 4.875 8.25 5.04281 8.25 5.25V10.125C8.25 10.3322 8.08219 10.5 7.875 10.5C7.66781 10.5 7.5 10.3322 7.5 10.125V5.25ZM5.625 5.25C5.625 5.04281 5.79281 4.875 6 4.875C6.20719 4.875 6.375 5.04281 6.375 5.25V10.125C6.375 10.3322 6.20719 10.5 6 10.5C5.79281 10.5 5.625 10.3322 5.625 10.125V5.25ZM3.75 5.25C3.75 5.04281 3.91781 4.875 4.125 4.875C4.33219 4.875 4.5 5.04281 4.5 5.25V10.125C4.5 10.3322 4.33219 10.5 4.125 10.5C3.91781 10.5 3.75 10.3322 3.75 10.125V5.25Z" fill="#2ADCD4"/>
</svg>
