<svg width="32" height="32" viewBox="0 0 32 32" fill="none" xmlns="http://www.w3.org/2000/svg">
<rect width="32" height="32" rx="4" fill="#EF264A"/>
<path d="M21.9833 11.9433L18.4783 8.35499C18.0516 7.92749 17.4533 7.67166 16.7699 7.67166H11.7258C10.4441 7.58582 9.33326 8.69666 9.33326 9.97832V21.9408C9.33271 22.2552 9.39424 22.5667 9.51433 22.8572C9.63443 23.1478 9.81071 23.4118 10.0331 23.6341C10.2554 23.8564 10.5195 24.0326 10.8101 24.1526C11.1007 24.2726 11.4122 24.334 11.7266 24.3333H20.2733C20.5877 24.334 20.8991 24.2726 21.1897 24.1526C21.4803 24.0326 21.7444 23.8564 21.9668 23.6341C22.1891 23.4118 22.3654 23.1478 22.4855 22.8572C22.6056 22.5667 22.6671 22.2552 22.6666 21.9408V13.5675C22.6666 12.9692 22.4099 12.3708 21.9833 11.9433ZM13.4358 14.4217H15.9999C16.3416 14.4217 16.6833 14.6783 16.6833 15.105C16.6833 15.5325 16.4274 15.7883 15.9999 15.7883H13.4358C13.3457 15.7896 13.2563 15.7727 13.1728 15.7388C13.0893 15.7049 13.0135 15.6546 12.9498 15.5909C12.8861 15.5272 12.8358 15.4514 12.8019 15.3679C12.768 15.2845 12.7512 15.1951 12.7524 15.105C12.7524 14.6775 13.0941 14.4217 13.4358 14.4217ZM18.5641 19.2067H13.4358C13.0941 19.2067 12.7524 18.95 12.7524 18.5233C12.7524 18.0967 13.0083 17.84 13.4358 17.84H18.5641C18.9058 17.84 19.2474 18.0958 19.2474 18.5233C19.2474 18.9508 18.9058 19.2067 18.5641 19.2067Z" fill="white"/>
</svg>
