<svg width="100" height="100" viewBox="0 0 100 100" fill="none" xmlns="http://www.w3.org/2000/svg">
<path d="M57.4512 19.9871C54.8705 19.9871 52.3535 20.2637 49.9262 20.7844C50.0201 19.6057 50.0684 18.423 50.0684 17.2393V9.29668L49.3213 8.4623C49.0119 8.1168 41.5918 0 28.3887 0C15.1855 0 7.76543 8.1168 7.45605 8.4623L6.70898 9.29668V17.2393C6.70898 26.5697 9.6623 35.8408 15.0424 43.4596V100H41.7352V88.0316C46.4832 90.3582 51.817 91.6668 57.4514 91.6668C77.2135 91.6668 93.2912 75.5891 93.2912 55.827C93.2912 36.0648 77.2133 19.9871 57.4512 19.9871ZM20.9018 94.1406V65.4297H35.8756V94.1406H20.9018ZM12.5684 11.6504C14.466 9.95527 19.9281 5.85938 28.3887 5.85938C36.8695 5.85938 42.31 9.94473 44.209 11.6477V17.2393C44.209 25.1656 41.7627 33.043 37.2945 39.5832H31.3184V27.0832H25.459V39.5832H19.483C15.0146 33.0428 12.5684 25.1656 12.5684 17.2393V11.6504ZM87.4316 55.8268C87.4316 56.949 87.3676 58.0564 87.2469 59.1471H80.6607V52.5064H87.2469C87.3676 53.5973 87.4316 54.7045 87.4316 55.8268ZM41.735 46.5371C44.9191 41.1707 50.7715 37.5652 57.4512 37.5652C65.5316 37.5652 72.4019 42.841 74.8014 50.1285V61.5256C72.4019 68.8129 65.5316 74.0889 57.4512 74.0889C50.7715 74.0889 44.9191 70.4832 41.735 65.117V46.5371ZM20.9018 45.4428H35.8756V59.5703H20.9018V45.4428ZM57.4512 25.8463C70.7816 25.8463 82.106 34.5924 85.9922 46.6471H79.7557C76.1369 37.8869 67.5029 31.7057 57.4512 31.7057C53.6146 31.7057 49.9855 32.6074 46.7619 34.2078C47.6922 31.8928 48.4354 29.5027 48.9785 27.0674C51.6666 26.2742 54.5096 25.8463 57.4512 25.8463ZM57.4512 85.8072C51.6918 85.8072 46.3078 84.1732 41.735 81.3471V74.11C45.9596 77.7465 51.4529 79.9479 57.4512 79.9479C67.5029 79.9479 76.1369 73.7668 79.7557 65.0064H85.9922C82.106 77.0611 70.7816 85.8072 57.4512 85.8072Z" fill="#B63DEE"/>
</svg>
