<svg width="16" height="16" viewBox="0 0 16 16" fill="none" xmlns="http://www.w3.org/2000/svg">
<g clip-path="url(#clip0_954_223)">
<path d="M15.9914 10.0132C15.9516 9.09646 15.7921 8.08009 15.553 7.12352C15.3138 6.2068 15.0149 5.34986 14.6562 4.69222C13.2612 2.24099 11.7466 2.61963 9.93309 3.09792C9.35516 3.23742 8.73737 3.39685 8.09965 3.45664H7.90036C7.26264 3.39685 6.64485 3.23742 6.06692 3.09792C4.25341 2.63956 2.73883 2.24099 1.34382 4.71215C0.985106 5.36979 0.666247 6.22673 0.447031 7.14345C0.207887 8.10002 0.0484573 9.11639 0.00859988 10.0331C-0.0312575 11.0495 0.0683859 11.7868 0.287602 12.305C0.506817 12.7833 0.825676 13.0822 1.24418 13.2018C1.62282 13.3014 2.06126 13.2616 2.51962 13.0623C3.29683 12.7434 4.19363 12.0658 5.07049 11.2488C5.68828 10.6509 6.84414 10.352 8.00001 10.352C9.15587 10.352 10.3117 10.6509 10.9295 11.2488C11.8064 12.0658 12.7032 12.7434 13.4804 13.0623C13.9388 13.2416 14.3772 13.3014 14.7558 13.2018C15.1544 13.0822 15.4932 12.8032 15.7124 12.285C15.9316 11.7868 16.0313 11.0495 15.9914 10.0132ZM15.0348 12.006C14.9153 12.285 14.7558 12.4445 14.5565 12.5043C14.3373 12.5641 14.0583 12.5242 13.7395 12.4046C13.042 12.1256 12.2249 11.5078 11.4277 10.7505C10.6705 9.99325 9.33523 9.6146 8.00001 9.6146C6.66478 9.6146 5.32956 9.99325 4.55234 10.7107C3.73527 11.468 2.91819 12.1057 2.24061 12.3648C1.92175 12.4843 1.64275 12.5441 1.42354 12.4644C1.22425 12.4046 1.06482 12.2452 0.945248 11.9662C0.785819 11.5875 0.706104 10.9698 0.745961 10.053C0.785819 9.1961 0.92532 8.21959 1.16446 7.30288C1.38368 6.44594 1.66268 5.64879 2.00147 5.05093C3.09755 3.07799 4.37298 3.39685 5.88756 3.79543C6.50535 3.95485 7.14307 4.11428 7.84058 4.17407H8.13951C8.85694 4.11428 9.49466 3.95485 10.1124 3.79543C11.627 3.41678 12.9025 3.07799 13.9985 5.05093C14.3373 5.64879 14.6163 6.42601 14.8355 7.30288C15.0548 8.21959 15.2142 9.17617 15.254 10.053C15.2939 10.9698 15.2142 11.5875 15.0348 12.006Z" fill="#1BBD45"/>
<path d="M6.16683 6.12719C5.96755 5.94783 5.7284 5.80833 5.4494 5.7884C5.42947 5.52933 5.3099 5.27025 5.13054 5.09089L5.11061 5.07097C4.8914 4.85175 4.6124 4.73218 4.29354 4.73218C3.97468 4.73218 3.67575 4.87168 3.47646 5.07097C3.2971 5.25032 3.1576 5.5094 3.13767 5.7884C2.85867 5.80833 2.61953 5.9279 2.42024 6.10726L2.40031 6.12719C2.1811 6.3464 2.06152 6.6254 2.06152 6.94426C2.06152 7.26312 2.20102 7.56205 2.40031 7.76134C2.5996 7.96063 2.83874 8.0802 3.13767 8.10013C3.1576 8.37913 3.27717 8.6382 3.47646 8.81756C3.69568 9.03678 3.97468 9.15635 4.29354 9.15635C4.6124 9.15635 4.91133 9.01685 5.11061 8.81756C5.28997 8.61827 5.42947 8.37913 5.4494 8.10013C5.7284 8.0802 5.98748 7.96063 6.16683 7.76134C6.38605 7.54212 6.50562 7.26312 6.50562 6.94426C6.50562 6.6254 6.36612 6.32647 6.16683 6.12719ZM5.66862 7.24319C5.5889 7.32291 5.48926 7.36277 5.36969 7.36277H5.09068C4.8914 7.36277 4.71204 7.52219 4.71204 7.74141V8.00048C4.71204 8.12006 4.67218 8.2197 4.59247 8.29941C4.51275 8.37913 4.41311 8.41899 4.29354 8.41899C4.17396 8.41899 4.07432 8.37913 3.99461 8.29941C3.91489 8.2197 3.87503 8.12006 3.87503 8.00048V7.72148C3.87503 7.52219 3.7156 7.34284 3.49639 7.34284H3.21739C3.09782 7.34284 2.99817 7.30298 2.91846 7.22326C2.85867 7.16348 2.79888 7.06383 2.79888 6.94426C2.79888 6.82469 2.83874 6.72505 2.91846 6.64533L2.93839 6.6254C3.0181 6.56562 3.11774 6.52576 3.21739 6.52576H3.49639C3.69568 6.52576 3.87503 6.36633 3.87503 6.14711V5.86811C3.87503 5.74854 3.91489 5.6489 3.99461 5.56918C4.07432 5.48947 4.17396 5.44961 4.29354 5.44961C4.41311 5.44961 4.51275 5.48947 4.59247 5.56918L4.6124 5.58911C4.67218 5.66883 4.71204 5.76847 4.71204 5.86811V6.14711C4.71204 6.3464 4.87147 6.52576 5.09068 6.52576H5.36969C5.48926 6.52576 5.5889 6.56562 5.66862 6.64533C5.74833 6.72505 5.78819 6.82469 5.78819 6.94426C5.78819 7.06383 5.74833 7.16348 5.66862 7.24319Z" fill="#1BBD45"/>
<path d="M11.468 6.2268C11.8532 6.2268 12.1655 5.91451 12.1655 5.52929C12.1655 5.14407 11.8532 4.83179 11.468 4.83179C11.0828 4.83179 10.7705 5.14407 10.7705 5.52929C10.7705 5.91451 11.0828 6.2268 11.468 6.2268Z" fill="#1BBD45"/>
<path d="M11.468 9.05663C11.8532 9.05663 12.1655 8.74435 12.1655 8.35913C12.1655 7.9739 11.8532 7.66162 11.468 7.66162C11.0828 7.66162 10.7705 7.9739 10.7705 8.35913C10.7705 8.74435 11.0828 9.05663 11.468 9.05663Z" fill="#1BBD45"/>
<path d="M10.053 7.64159C10.4382 7.64159 10.7505 7.32931 10.7505 6.94409C10.7505 6.55887 10.4382 6.24658 10.053 6.24658C9.66775 6.24658 9.35547 6.55887 9.35547 6.94409C9.35547 7.32931 9.66775 7.64159 10.053 7.64159Z" fill="#1BBD45"/>
<path d="M12.8821 7.64159C13.2673 7.64159 13.5796 7.32931 13.5796 6.94409C13.5796 6.55887 13.2673 6.24658 12.8821 6.24658C12.4969 6.24658 12.1846 6.55887 12.1846 6.94409C12.1846 7.32931 12.4969 7.64159 12.8821 7.64159Z" fill="#1BBD45"/>
</g>
<defs>
<clipPath id="clip0_954_223">
<rect width="16" height="16" fill="white"/>
</clipPath>
</defs>
</svg>
