<svg width="20" height="20" viewBox="0 0 20 20" fill="none" xmlns="http://www.w3.org/2000/svg">
<path d="M1.87503 7.50002H15.8617L14.3371 9.02459C14.1613 9.20041 14.0625 9.43888 14.0625 9.68752C14.0625 9.93617 14.1613 10.1746 14.3371 10.3505C14.5129 10.5263 14.7514 10.625 15 10.625C15.2487 10.625 15.4871 10.5263 15.663 10.3505L18.788 7.22545C18.875 7.1384 18.9441 7.03505 18.9912 6.9213C19.0383 6.80755 19.0626 6.68564 19.0626 6.56252C19.0626 6.43941 19.0383 6.31749 18.9912 6.20375C18.9441 6.09 18.875 5.98665 18.788 5.89959L15.663 2.77459C15.4871 2.59877 15.2487 2.5 15 2.5C14.7514 2.5 14.5129 2.59877 14.3371 2.77459C14.1613 2.95041 14.0625 3.18888 14.0625 3.43752C14.0625 3.68617 14.1613 3.92463 14.3371 4.10045L15.8617 5.62502H1.87503C1.62639 5.62502 1.38794 5.7238 1.21212 5.89961C1.03631 6.07543 0.937534 6.31388 0.937534 6.56252C0.937534 6.81116 1.03631 7.04962 1.21212 7.22544C1.38794 7.40125 1.62639 7.50002 1.87503 7.50002ZM18.125 12.5H4.13835L5.66296 10.9755C5.83878 10.7996 5.93756 10.5612 5.93756 10.3125C5.93756 10.0639 5.83878 9.82541 5.66296 9.64959C5.48714 9.47377 5.24868 9.375 5.00003 9.375C4.75139 9.375 4.51292 9.47377 4.3371 9.64959L1.2121 12.7746C1.12504 12.8616 1.05598 12.965 1.00887 13.0787C0.961751 13.1925 0.9375 13.3144 0.9375 13.4375C0.9375 13.5606 0.961751 13.6826 1.00887 13.7963C1.05598 13.91 1.12504 14.0134 1.2121 14.1005L4.3371 17.2255C4.51292 17.4013 4.75139 17.5 5.00003 17.5C5.24868 17.5 5.48714 17.4013 5.66296 17.2255C5.83878 17.0496 5.93756 16.8112 5.93756 16.5625C5.93756 16.3139 5.83878 16.0754 5.66296 15.8996L4.13835 14.375H18.125C18.3737 14.375 18.6121 14.2762 18.7879 14.1004C18.9638 13.9246 19.0625 13.6862 19.0625 13.4375C19.0625 13.1889 18.9638 12.9504 18.7879 12.7746C18.6121 12.5988 18.3737 12.5 18.125 12.5Z" fill="black"/>
</svg>
