<svg width="100" height="100" viewBox="0 0 100 100" fill="none" xmlns="http://www.w3.org/2000/svg">
<path d="M97.0703 24.9349H2.92969V75.0652H97.0703V24.9349Z" stroke="#71C841" stroke-width="5.85938" stroke-miterlimit="10" stroke-linecap="square"/>
<path d="M54.0287 24.935L13.1549 11.4473L8.73163 24.8516" stroke="#71C841" stroke-width="5.85938" stroke-miterlimit="10"/>
<path d="M45.9713 75.0651L86.8451 88.5528L91.2959 75.0651" stroke="#71C841" stroke-width="5.85938" stroke-miterlimit="10"/>
<path d="M15.0391 24.9349C15.0391 31.6228 9.61758 37.0443 2.92969 37.0443" stroke="#71C841" stroke-width="5.85938" stroke-miterlimit="10" stroke-linecap="square"/>
<path d="M97.0703 37.0443C90.3824 37.0443 84.9609 31.6228 84.9609 24.9349" stroke="#71C841" stroke-width="5.85938" stroke-miterlimit="10" stroke-linecap="square"/>
<path d="M2.92969 62.9557C9.61758 62.9557 15.0391 68.3772 15.0391 75.0651" stroke="#71C841" stroke-width="5.85938" stroke-miterlimit="10" stroke-linecap="square"/>
<path d="M84.9609 75.0651C84.9609 68.3772 90.3824 62.9557 97.0703 62.9557" stroke="#71C841" stroke-width="5.85938" stroke-miterlimit="10" stroke-linecap="square"/>
<path d="M50 62.1744C56.7237 62.1744 62.1744 56.7237 62.1744 50C62.1744 43.2762 56.7237 37.8256 50 37.8256C43.2763 37.8256 37.8256 43.2762 37.8256 50C37.8256 56.7237 43.2763 62.1744 50 62.1744Z" stroke="#71C841" stroke-width="5.85938" stroke-miterlimit="10" stroke-linecap="square"/>
<path d="M23.0469 50H18.4897" stroke="#71C841" stroke-width="5.85938" stroke-miterlimit="10" stroke-linecap="square"/>
<path d="M81.7709 50H77.2135" stroke="#71C841" stroke-width="5.85938" stroke-miterlimit="10" stroke-linecap="square"/>
</svg>
