<svg width="20" height="20" viewBox="0 0 20 20" fill="none" xmlns="http://www.w3.org/2000/svg">
<g clip-path="url(#clip0_2062_3420)">
<path d="M18.9192 16.7698C18.4076 16.7698 17.9914 16.3536 17.9914 15.842V8.73488C17.9914 5.67508 15.9955 3.00234 13.097 2.12145V2.01875C13.097 0.905625 12.1914 0 11.0783 0C9.96512 0 9.05949 0.905625 9.05949 2.01879V2.12156C7.88031 2.48059 6.82133 3.14816 5.98043 4.0657L6.61398 4.64637C7.41758 3.76953 8.44812 3.1534 9.59422 2.86465C9.78512 2.81652 9.91891 2.64484 9.91891 2.44797V2.01879C9.91891 1.37949 10.439 0.859375 11.0783 0.859375C11.7176 0.859375 12.2377 1.37945 12.2377 2.01879V2.44793C12.2377 2.6448 12.3715 2.81652 12.5624 2.86461C15.2529 3.54254 17.132 5.95648 17.132 8.73488V15.842C17.132 16.1815 17.2272 16.4991 17.3922 16.7698H4.7643C4.92934 16.4991 5.02449 16.1815 5.02449 15.842V10.8664H4.16512V15.842C4.16512 16.3536 3.74891 16.7698 3.2373 16.7698C3 16.7698 2.80762 16.9622 2.80762 17.1995C2.80762 17.4368 3 17.6292 3.2373 17.6292H9.05949V17.9813C9.05949 19.0944 9.96512 20 11.0783 20C12.1914 20 13.097 19.0944 13.097 17.9813V17.6292H18.9192C19.1565 17.6292 19.3489 17.4368 19.3489 17.1995C19.3489 16.9622 19.1565 16.7698 18.9192 16.7698ZM12.2377 17.9812C12.2377 18.6205 11.7176 19.1406 11.0783 19.1406C10.439 19.1406 9.91887 18.6205 9.91887 17.9812V17.6292H12.2377V17.9812Z" fill="black"/>
<path d="M4.13623 6.72681H4.56674V8.46567C4.56674 8.70298 4.75912 8.89536 4.99643 8.89536C5.23373 8.89536 5.42611 8.70298 5.42611 8.46567V6.29712C5.42611 6.05981 5.23373 5.86743 4.99643 5.86743H4.13623C3.89893 5.86743 3.70654 6.05981 3.70654 6.29712C3.70654 6.53442 3.89893 6.72681 4.13623 6.72681Z" fill="black"/>
<path d="M4.56605 11.2962C2.4075 11.2962 0.651367 9.54008 0.651367 7.38152C0.651367 5.22293 2.4075 3.4668 4.56605 3.4668C6.72461 3.4668 8.48074 5.22293 8.48074 7.38152C8.4807 9.54008 6.72461 11.2962 4.56605 11.2962ZM4.56605 4.32617C2.88137 4.32617 1.51074 5.6968 1.51074 7.38152C1.51074 9.06621 2.88133 10.4368 4.56605 10.4368C6.25074 10.4368 7.62137 9.06621 7.62137 7.38152C7.62133 5.6968 6.25074 4.32617 4.56605 4.32617Z" fill="black"/>
</g>
<defs>
<clipPath id="clip0_2062_3420">
<rect width="20" height="20" fill="white"/>
</clipPath>
</defs>
</svg>
