<svg width="12" height="12" viewBox="0 0 12 12" fill="none" xmlns="http://www.w3.org/2000/svg">
<g clip-path="url(#clip0_1383_5013)">
<path d="M5.9998 10.2748C4.82116 10.2748 3.75244 9.79528 2.97832 9.02116L4.1104 7.8892C4.28176 7.71784 4.16044 7.4248 3.91816 7.4248H0.788565C0.658937 7.4248 0.534619 7.4763 0.442959 7.56796C0.351299 7.65962 0.299805 7.78394 0.299805 7.91356V11.0432C0.299805 11.2856 0.592845 11.4068 0.764205 11.2354L1.97116 10.0284C3.0034 11.0604 4.42828 11.6998 5.9998 11.6998C8.95288 11.6998 11.3886 9.44236 11.6722 6.5626C11.702 6.2602 11.4588 5.9998 11.155 5.9998H10.765C10.4987 5.9998 10.2784 6.20164 10.2495 6.46636C10.0163 8.60488 8.1994 10.2748 5.9998 10.2748ZM5.9998 0.299805C3.0466 0.299805 0.610965 2.55712 0.327405 5.437C0.297645 5.7394 0.540765 5.9998 0.844605 5.9998H1.2346C1.50088 5.9998 1.7212 5.79796 1.75012 5.53324C1.98328 3.39472 3.8002 1.7248 5.9998 1.7248C7.17844 1.7248 8.24716 2.20432 9.02129 2.97832L7.8892 4.1104C7.71784 4.28176 7.83916 4.5748 8.08144 4.5748H11.211C11.3407 4.5748 11.465 4.52331 11.5567 4.43165C11.6483 4.33999 11.6998 4.21567 11.6998 4.08604V0.956445C11.6998 0.714045 11.4068 0.592845 11.2354 0.764205L10.0284 1.97116C8.9962 0.939165 7.57132 0.299805 5.9998 0.299805Z" fill="#3CDAD3"/>
</g>
<defs>
<clipPath id="clip0_1383_5013">
<rect width="12" height="12" fill="white"/>
</clipPath>
</defs>
</svg>
