<svg width="20" height="20" viewBox="0 0 20 20" fill="none" xmlns="http://www.w3.org/2000/svg">
<path d="M8.08916 15.9343C8.01195 16.012 7.92015 16.0736 7.81904 16.1157C7.71793 16.1577 7.6095 16.1794 7.49999 16.1794C7.39049 16.1794 7.28206 16.1577 7.18095 16.1157C7.07984 16.0736 6.98804 16.012 6.91083 15.9343L2.20583 11.2285C1.97149 10.9941 1.83984 10.6762 1.83984 10.3448C1.83984 10.0133 1.97149 9.69542 2.20583 9.46101L2.79499 8.87184C3.0294 8.6375 3.34729 8.50586 3.67874 8.50586C4.0102 8.50586 4.32808 8.6375 4.56249 8.87184L7.49999 11.8093L15.4375 3.87184C15.6719 3.6375 15.9898 3.50586 16.3212 3.50586C16.6527 3.50586 16.9706 3.6375 17.205 3.87184L17.7942 4.46101C18.0285 4.69542 18.1601 5.0133 18.1601 5.34476C18.1601 5.67621 18.0285 5.9941 17.7942 6.22851L8.08916 15.9343Z" fill="#3CDAD3"/>
</svg>
