<svg width="20" height="20" viewBox="0 0 20 20" fill="none" xmlns="http://www.w3.org/2000/svg">
<path d="M16.7836 15.6084L14.0811 12.9059C14.9052 11.8315 15.3511 10.5149 15.3495 9.16086C15.3495 7.50669 14.7053 5.95211 13.5357 4.78252C12.9621 4.20571 12.2798 3.7484 11.5282 3.43707C10.7767 3.12574 9.97087 2.96657 9.1574 2.96877C7.50365 2.96877 5.94906 3.61294 4.77906 4.78252C2.36531 7.19669 2.36531 11.125 4.77906 13.5392C5.35266 14.116 6.03499 14.5733 6.78653 14.8847C7.53808 15.196 8.34392 15.3552 9.1574 15.3529C10.5299 15.3529 11.8303 14.9034 12.9028 14.0842L15.6053 16.7871C15.7678 16.9496 15.9811 17.0313 16.1945 17.0313C16.4078 17.0313 16.6211 16.9496 16.7836 16.7871C16.8611 16.7097 16.9225 16.6178 16.9644 16.5167C17.0063 16.4156 17.0278 16.3072 17.0278 16.1977C17.0278 16.0883 17.0063 15.9799 16.9644 15.8787C16.9225 15.7776 16.8611 15.6857 16.7836 15.6084ZM5.95781 12.3609C4.19323 10.5963 4.19365 7.72544 5.95781 5.96086C6.37713 5.53943 6.87585 5.20534 7.42513 4.97791C7.9744 4.75047 8.56332 4.63421 9.15781 4.63586C9.75224 4.63422 10.3411 4.75049 10.8903 4.97792C11.4395 5.20536 11.9382 5.53944 12.3574 5.96086C12.7789 6.38011 13.1131 6.87881 13.3406 7.42809C13.5681 7.97737 13.6844 8.56633 13.6828 9.16086C13.6828 10.3696 13.212 11.5059 12.3574 12.3609C11.5028 13.2159 10.3666 13.6859 9.1574 13.6859C7.94906 13.6859 6.8124 13.215 5.9574 12.3609H5.95781Z" fill="#B3B3B3"/>
</svg>
