<svg width="26" height="26" viewBox="0 0 26 26" fill="none" xmlns="http://www.w3.org/2000/svg">
<g clip-path="url(#clip0_444_81)">
<path d="M21.2989 14.1592C20.5093 14.1592 19.8438 14.7 19.6528 15.4305H18.4948L16.369 14.4302L15.3594 14.9053L17.3891 15.8604L12.9956 17.9279L8.60218 15.8604L10.6318 14.9053L9.62224 14.4302L7.40959 15.4715C7.08315 15.6232 7.08194 16.0973 7.40959 16.2494L12.8126 18.792C12.8706 18.8193 12.9331 18.8329 12.9957 18.8329C13.0582 18.8329 13.1207 18.8193 13.1787 18.792L18.4948 16.2903H19.6529C20.1952 18.1952 22.9489 17.8613 23.0001 15.8604C23 14.9224 22.2369 14.1592 21.2989 14.1592ZM21.2989 16.7018C20.8349 16.7018 20.4574 16.3244 20.4574 15.8604C20.5037 14.7442 22.0942 14.7445 22.1403 15.8604C22.1403 16.3244 21.7628 16.7018 21.2989 16.7018Z" fill="#999999"/>
<path d="M7.40962 10.5285L12.8127 13.0711C12.8706 13.0984 12.9331 13.112 12.9957 13.112C13.0583 13.112 13.1208 13.0984 13.1788 13.0711L18.4948 10.5694H19.6529C19.8438 11.3 20.5094 11.8407 21.2989 11.8407C23.5558 11.7473 23.5551 8.53148 21.2989 8.43839C20.5094 8.43839 19.8438 8.97914 19.6529 9.70969H18.4948L13.1788 7.20797C13.0628 7.15341 12.9286 7.15341 12.8127 7.20797L7.40965 9.75057C7.08353 9.90138 7.08185 10.3769 7.40962 10.5285ZM21.2989 9.29811C21.7628 9.29811 22.1403 9.67558 22.1403 10.1395C22.0941 11.2558 20.5035 11.2555 20.4574 10.1395C20.4575 9.67558 20.8349 9.29811 21.2989 9.29811ZM12.9957 8.07202L17.3891 10.1395L12.9957 12.207L8.60221 10.1395L12.9957 8.07202Z" fill="#999999"/>
<path d="M18.5816 12.611L16.369 11.5698L15.3594 12.0449L17.389 13L12.9955 15.0675L8.60209 13L10.6317 12.0449L9.62211 11.5698L7.49641 12.5701H6.33844C6.1475 11.8396 5.48193 11.2988 4.6924 11.2988C2.43551 11.3923 2.43622 14.6081 4.6924 14.7012C5.48197 14.7012 6.1475 14.1605 6.33844 13.4299H7.49649L12.8126 15.9316C12.8705 15.9589 12.9331 15.9725 12.9956 15.9725C13.0582 15.9725 13.1207 15.9589 13.1787 15.9316L18.5817 13.389C18.9076 13.2384 18.9095 12.7626 18.5816 12.611ZM4.69236 13.8415C4.22841 13.8415 3.85094 13.464 3.85094 13C3.89717 11.8838 5.48775 11.8841 5.53383 13C5.53383 13.464 5.15632 13.8415 4.69236 13.8415Z" fill="#999999"/>
</g>
<defs>
<clipPath id="clip0_444_81">
<rect width="20" height="20" fill="white" transform="translate(3 3)"/>
</clipPath>
</defs>
</svg>
