<svg width="100" height="100" viewBox="0 0 100 100" fill="none" xmlns="http://www.w3.org/2000/svg">
<g clip-path="url(#clip0_1514_448)">
<path d="M96.6146 19.8149C101.135 15.2762 101.128 7.89867 96.598 3.36918C92.1373 -1.15738 84.5779 -1.0941 80.1174 3.38481L62.1297 21.4534L38.6236 19.8756L44.5309 13.944L40.3789 9.80981L30.8723 19.3557L12.7842 18.1416L0 30.7053L39.4832 44.2018L25.4463 58.3018L10.9145 61.1178L0 71.2487L20.3812 79.7051L28.8109 100L38.9506 89.1803L41.8904 74.7852L55.9738 60.6383L69.6246 100L82.1363 87.2086L80.8469 69.1133L90.2537 59.6676L86.102 55.5329L80.2945 61.3641L78.6217 37.8883L96.6146 19.8149ZM15.0535 24.1666L56.6426 26.958L44.0691 39.5834L11.0266 28.2102L15.0535 24.1666ZM36.5004 71.8942L33.5613 86.2862L30.7793 89.075L24.8436 75.2459L10.9982 69.293L13.7787 66.5313L28.3283 63.7118L84.2693 7.51938C86.5 5.27934 90.2184 5.2852 92.4549 7.51254C94.7045 9.76215 94.708 13.426 92.4627 15.6807L36.5004 71.8942ZM76.1021 84.9643L72.0752 89.0077L60.5691 56.0223L73.1398 43.395L76.1021 84.9643Z" fill="#549BFF"/>
</g>
<defs>
<clipPath id="clip0_1514_448">
<rect width="100" height="100" fill="white"/>
</clipPath>
</defs>
</svg>
