<svg width="270" height="190" viewBox="0 0 270 190" fill="none" xmlns="http://www.w3.org/2000/svg">
<g clip-path="url(#clip0_2032_88)">
<g clip-path="url(#clip1_2032_88)">
<g filter="url(#filter0_b_2032_88)">
<rect width="270" height="160" fill="#B3B3B3" fill-opacity="0.82"/>
<rect width="270" height="160" fill="#383838" style="mix-blend-mode:color-dodge"/>
</g>
</g>
<path d="M31.6481 36.2075C28.1618 36.2075 25.9787 33.875 25.9787 30.0068C25.9787 26.147 28.1784 23.8145 31.6481 23.8145C34.5285 23.8145 36.7199 25.6406 36.9108 28.3218H34.4704C34.2379 26.8525 33.109 25.8896 31.6481 25.8896C29.7555 25.8896 28.5353 27.4751 28.5353 29.9985C28.5353 32.5552 29.7389 34.1323 31.6564 34.1323C33.1422 34.1323 34.213 33.2607 34.4787 31.8413H36.9191C36.6369 34.5142 34.5866 36.2075 31.6481 36.2075ZM37.8919 36V24.022H40.2742V28.687H40.324C40.7972 27.5664 41.7684 26.9355 43.1214 26.9355C45.097 26.9355 46.2259 28.2139 46.2259 30.2725V36H43.8021V30.7871C43.8021 29.6416 43.2376 28.9443 42.1336 28.9443C40.9881 28.9443 40.3157 29.7495 40.3157 30.9199V36H37.8919ZM50.7847 34.3896C51.8389 34.3896 52.7104 33.7007 52.7104 32.7378V32.0903L50.8345 32.2065C49.9297 32.2729 49.415 32.6797 49.415 33.3105C49.415 33.9746 49.9629 34.3896 50.7847 34.3896ZM49.9878 36.1411C48.2944 36.1411 47.0078 35.0454 47.0078 33.4434C47.0078 31.8247 48.2529 30.8867 50.4692 30.7539L52.7104 30.6211V30.0317C52.7104 29.2017 52.1294 28.7202 51.2163 28.7202C50.3115 28.7202 49.7388 29.1685 49.6226 29.8242H47.4062C47.4976 28.0977 48.9668 26.9106 51.3242 26.9106C53.6069 26.9106 55.0928 28.0894 55.0928 29.8823V36H52.752V34.6387H52.7021C52.2041 35.585 51.1001 36.1411 49.9878 36.1411ZM56.8791 25.0513H59.3029V27.1016H60.9465V28.9277H59.3029V33.186C59.3029 33.8667 59.6349 34.1904 60.3488 34.1904C60.5646 34.1904 60.7887 34.1738 60.9382 34.1489V35.9336C60.6891 35.9917 60.2741 36.0332 59.7844 36.0332C57.6926 36.0332 56.8791 35.3359 56.8791 33.6011V28.9277H55.6257V27.1016H56.8791V25.0513ZM61.6039 32.5884H64.0194C64.1356 33.5762 65.1649 34.2236 66.493 34.2236C67.8295 34.2236 68.7425 33.5845 68.7425 32.7046C68.7425 31.9243 68.1698 31.4927 66.7254 31.1689L65.1649 30.8286C62.9569 30.3555 61.8695 29.2349 61.8695 27.4834C61.8695 25.2754 63.7787 23.8145 66.4515 23.8145C69.2406 23.8145 70.9921 25.2505 71.0336 27.417H68.6844C68.6014 26.4043 67.7132 25.79 66.4598 25.79C65.223 25.79 64.3929 26.3794 64.3929 27.2676C64.3929 28.0063 64.974 28.4214 66.3519 28.7368L67.8046 29.0439C70.2035 29.5586 71.2494 30.5879 71.2494 32.4141C71.2494 34.7383 69.3651 36.2075 66.3934 36.2075C63.513 36.2075 61.6786 34.8379 61.6039 32.5884ZM77.9414 36H75.4346V31.5259L71.2676 24.022H73.9986L76.6797 29.1353H76.7378L79.4273 24.022H82.1167L77.9414 31.5259V36ZM98.1239 27.1016L95.7665 36H93.185L91.5746 29.708H91.5248L89.9228 36H87.3744L85.0087 27.1016H87.4491L88.7939 33.7007H88.8437L90.4208 27.1016H92.745L94.3305 33.7007H94.3803L95.7333 27.1016H98.1239ZM102.591 36.1909C99.9019 36.1909 98.1837 34.4644 98.1837 31.5425C98.1837 28.6621 99.9268 26.9106 102.591 26.9106C105.256 26.9106 106.999 28.6538 106.999 31.5425C106.999 34.4727 105.281 36.1909 102.591 36.1909ZM102.591 34.3398C103.778 34.3398 104.534 33.3354 104.534 31.5508C104.534 29.7827 103.77 28.7617 102.591 28.7617C101.413 28.7617 100.641 29.7827 100.641 31.5508C100.641 33.3354 101.396 34.3398 102.591 34.3398ZM116.04 27.1016V36H113.699V34.3979H113.65C113.21 35.5186 112.33 36.166 110.985 36.166C109.059 36.166 107.781 34.9126 107.781 32.8374V27.1016H110.205V32.3311C110.205 33.5181 110.794 34.1489 111.865 34.1489C112.944 34.1489 113.616 33.377 113.616 32.1982V27.1016H116.04ZM117.246 36V24.022H119.669V36H117.246ZM124.178 36.1411C121.954 36.1411 120.551 34.3813 120.551 31.5342C120.551 28.7119 121.962 26.9604 124.195 26.9604C125.482 26.9604 126.478 27.6411 126.909 28.6289H126.959V24.022H129.383V36H126.992V34.4727H126.951C126.519 35.4521 125.49 36.1411 124.178 36.1411ZM125 28.9028C123.78 28.9028 123.033 29.9238 123.033 31.5508C123.033 33.186 123.78 34.1904 125 34.1904C126.204 34.1904 126.976 33.1777 126.976 31.5508C126.976 29.9321 126.204 28.9028 125 28.9028ZM133.57 36V24.022H135.994V36H133.57ZM137.24 36V27.1016H139.664V36H137.24ZM138.452 26.1221C137.722 26.1221 137.157 25.5659 137.157 24.8687C137.157 24.1631 137.722 23.6152 138.452 23.6152C139.183 23.6152 139.747 24.1631 139.747 24.8687C139.747 25.5659 139.183 26.1221 138.452 26.1221ZM143.368 30.6709L146.389 27.1016H149.137L145.742 30.9199L149.303 36H146.514L143.966 32.3809L143.335 33.0615V36H140.911V24.022H143.335V30.6709H143.368ZM153.148 28.7036C152.085 28.7036 151.322 29.5088 151.239 30.6211H155.016C154.966 29.4839 154.227 28.7036 153.148 28.7036ZM155.049 33.2773H157.273C157.008 35.0205 155.414 36.1909 153.214 36.1909C150.475 36.1909 148.832 34.4395 148.832 31.5923C148.832 28.7534 150.492 26.9106 153.123 26.9106C155.713 26.9106 157.348 28.6621 157.348 31.3682V32.1069H151.214V32.2563C151.214 33.5264 152.019 34.3979 153.256 34.3979C154.144 34.3979 154.825 33.958 155.049 33.2773ZM161.759 25.0513H164.183V27.1016H165.827V28.9277H164.183V33.186C164.183 33.8667 164.515 34.1904 165.229 34.1904C165.445 34.1904 165.669 34.1738 165.818 34.1489V35.9336C165.569 35.9917 165.154 36.0332 164.664 36.0332C162.573 36.0332 161.759 35.3359 161.759 33.6011V28.9277H160.506V27.1016H161.759V25.0513ZM170.676 36.1909C167.986 36.1909 166.268 34.4644 166.268 31.5425C166.268 28.6621 168.011 26.9106 170.676 26.9106C173.34 26.9106 175.084 28.6538 175.084 31.5425C175.084 34.4727 173.365 36.1909 170.676 36.1909ZM170.676 34.3398C171.863 34.3398 172.618 33.3354 172.618 31.5508C172.618 29.7827 171.855 28.7617 170.676 28.7617C169.497 28.7617 168.725 29.7827 168.725 31.5508C168.725 33.3354 169.481 34.3398 170.676 34.3398ZM178.698 29.7163C178.698 28.0229 180.167 26.9106 182.45 26.9106C184.683 26.9106 186.135 28.0396 186.168 29.7661H183.935C183.886 29.0522 183.313 28.6123 182.416 28.6123C181.578 28.6123 181.03 28.9941 181.03 29.5669C181.03 30.0068 181.412 30.3057 182.192 30.4883L183.894 30.8535C185.679 31.252 186.401 31.9575 186.401 33.2856C186.401 35.0371 184.79 36.1909 182.441 36.1909C180.067 36.1909 178.606 35.0454 178.474 33.3105H180.839C180.955 34.0576 181.545 34.4893 182.508 34.4893C183.429 34.4893 183.985 34.124 183.985 33.543C183.985 33.0947 183.686 32.8457 182.89 32.6548L181.246 32.2896C179.561 31.9077 178.698 31.0278 178.698 29.7163ZM191.175 28.7036C190.113 28.7036 189.349 29.5088 189.266 30.6211H193.043C192.993 29.4839 192.254 28.7036 191.175 28.7036ZM193.076 33.2773H195.301C195.035 35.0205 193.441 36.1909 191.242 36.1909C188.503 36.1909 186.859 34.4395 186.859 31.5923C186.859 28.7534 188.519 26.9106 191.15 26.9106C193.74 26.9106 195.376 28.6621 195.376 31.3682V32.1069H189.241V32.2563C189.241 33.5264 190.046 34.3979 191.283 34.3979C192.171 34.3979 192.852 33.958 193.076 33.2773ZM196.199 36V27.1016H198.54V28.687H198.59C199.063 27.583 200.001 26.9355 201.37 26.9355C203.346 26.9355 204.458 28.1807 204.458 30.2642V36H202.034V30.7705C202.034 29.6084 201.487 28.9443 200.399 28.9443C199.312 28.9443 198.623 29.7412 198.623 30.895V36H196.199ZM208.868 36.1411C206.643 36.1411 205.24 34.3813 205.24 31.5342C205.24 28.7119 206.651 26.9604 208.884 26.9604C210.171 26.9604 211.167 27.6411 211.599 28.6289H211.648V24.022H214.072V36H211.682V34.4727H211.64C211.208 35.4521 210.179 36.1411 208.868 36.1411ZM209.689 28.9028C208.469 28.9028 207.722 29.9238 207.722 31.5508C207.722 33.186 208.469 34.1904 209.689 34.1904C210.893 34.1904 211.665 33.1777 211.665 31.5508C211.665 29.9321 210.893 28.9028 209.689 28.9028ZM219.338 39.2954C219.255 39.2954 218.5 39.2871 218.425 39.2705V37.4028C218.5 37.4194 218.94 37.4194 219.031 37.4194C219.919 37.4194 220.359 37.1372 220.525 36.4316C220.525 36.3984 220.617 36.0415 220.6 36.0083L217.504 27.1016H220.168L222.061 34.0576H222.102L223.995 27.1016H226.552L223.489 36.1992C222.725 38.4819 221.613 39.2954 219.338 39.2954ZM230.836 36.1909C228.147 36.1909 226.429 34.4644 226.429 31.5425C226.429 28.6621 228.172 26.9106 230.836 26.9106C233.501 26.9106 235.244 28.6538 235.244 31.5425C235.244 34.4727 233.526 36.1909 230.836 36.1909ZM230.836 34.3398C232.023 34.3398 232.779 33.3354 232.779 31.5508C232.779 29.7827 232.015 28.7617 230.836 28.7617C229.658 28.7617 228.886 29.7827 228.886 31.5508C228.886 33.3354 229.641 34.3398 230.836 34.3398ZM244.285 27.1016V36H241.945V34.3979H241.895C241.455 35.5186 240.575 36.166 239.23 36.166C237.304 36.166 236.026 34.9126 236.026 32.8374V27.1016H238.45V32.3311C238.45 33.5181 239.039 34.1489 240.11 34.1489C241.189 34.1489 241.862 33.377 241.862 32.1982V27.1016H244.285ZM89.9584 58V49.1016H92.2992V50.687H92.349C92.8222 49.583 93.7602 48.9355 95.1298 48.9355C97.1054 48.9355 98.2177 50.1807 98.2177 52.2642V58H95.7939V52.7705C95.7939 51.6084 95.246 50.9443 94.1586 50.9443C93.0712 50.9443 92.3822 51.7412 92.3822 52.895V58H89.9584ZM103.407 58.1909C100.718 58.1909 98.9996 56.4644 98.9996 53.5425C98.9996 50.6621 100.743 48.9106 103.407 48.9106C106.072 48.9106 107.815 50.6538 107.815 53.5425C107.815 56.4727 106.097 58.1909 103.407 58.1909ZM103.407 56.3398C104.594 56.3398 105.35 55.3354 105.35 53.5508C105.35 51.7827 104.586 50.7617 103.407 50.7617C102.229 50.7617 101.457 51.7827 101.457 53.5508C101.457 55.3354 102.212 56.3398 103.407 56.3398ZM109.286 47.0513H111.71V49.1016H113.353V50.9277H111.71V55.186C111.71 55.8667 112.042 56.1904 112.756 56.1904C112.971 56.1904 113.196 56.1738 113.345 56.1489V57.9336C113.096 57.9917 112.681 58.0332 112.191 58.0332C110.099 58.0332 109.286 57.3359 109.286 55.6011V50.9277H108.033V49.1016H109.286V47.0513ZM114.293 58V49.1016H116.717V58H114.293ZM115.505 48.1221C114.774 48.1221 114.21 47.5659 114.21 46.8687C114.21 46.1631 114.774 45.6152 115.505 45.6152C116.235 45.6152 116.8 46.1631 116.8 46.8687C116.8 47.5659 116.235 48.1221 115.505 48.1221ZM118.553 58V50.9277H117.341V49.1431H118.553V48.4707C118.553 46.7275 119.375 45.9141 121.483 45.9141C121.931 45.9141 122.438 45.9639 122.72 46.022V47.624C122.546 47.5908 122.305 47.5742 122.064 47.5742C121.267 47.5742 120.919 47.9229 120.919 48.5537V49.1431H122.687V50.9277H120.977V58H118.553ZM123.576 58V49.1016H126V58H123.576ZM124.788 48.1221C124.058 48.1221 123.493 47.5659 123.493 46.8687C123.493 46.1631 124.058 45.6152 124.788 45.6152C125.519 45.6152 126.083 46.1631 126.083 46.8687C126.083 47.5659 125.519 48.1221 124.788 48.1221ZM135.274 52.4136H133.024C132.883 51.4756 132.261 50.8115 131.265 50.8115C130.069 50.8115 129.322 51.8242 129.322 53.5425C129.322 55.2939 130.069 56.29 131.273 56.29C132.244 56.29 132.875 55.709 133.024 54.7378H135.282C135.158 56.8379 133.589 58.1909 131.248 58.1909C128.567 58.1909 126.865 56.4478 126.865 53.5425C126.865 50.687 128.567 48.9106 131.231 48.9106C133.639 48.9106 135.166 50.3965 135.274 52.4136ZM139.459 56.3896C140.513 56.3896 141.385 55.7007 141.385 54.7378V54.0903L139.509 54.2065C138.604 54.2729 138.09 54.6797 138.09 55.3105C138.09 55.9746 138.637 56.3896 139.459 56.3896ZM138.662 58.1411C136.969 58.1411 135.682 57.0454 135.682 55.4434C135.682 53.8247 136.927 52.8867 139.144 52.7539L141.385 52.6211V52.0317C141.385 51.2017 140.804 50.7202 139.891 50.7202C138.986 50.7202 138.413 51.1685 138.297 51.8242H136.081C136.172 50.0977 137.641 48.9106 139.999 48.9106C142.281 48.9106 143.767 50.0894 143.767 51.8823V58H141.426V56.6387H141.377C140.879 57.585 139.775 58.1411 138.662 58.1411ZM145.554 47.0513H147.977V49.1016H149.621V50.9277H147.977V55.186C147.977 55.8667 148.309 56.1904 149.023 56.1904C149.239 56.1904 149.463 56.1738 149.613 56.1489V57.9336C149.364 57.9917 148.949 58.0332 148.459 58.0332C146.367 58.0332 145.554 57.3359 145.554 55.6011V50.9277H144.3V49.1016H145.554V47.0513ZM150.561 58V49.1016H152.984V58H150.561ZM151.773 48.1221C151.042 48.1221 150.478 47.5659 150.478 46.8687C150.478 46.1631 151.042 45.6152 151.773 45.6152C152.503 45.6152 153.067 46.1631 153.067 46.8687C153.067 47.5659 152.503 48.1221 151.773 48.1221ZM158.257 58.1909C155.568 58.1909 153.849 56.4644 153.849 53.5425C153.849 50.6621 155.592 48.9106 158.257 48.9106C160.922 48.9106 162.665 50.6538 162.665 53.5425C162.665 56.4727 160.947 58.1909 158.257 58.1909ZM158.257 56.3398C159.444 56.3398 160.199 55.3354 160.199 53.5508C160.199 51.7827 159.436 50.7617 158.257 50.7617C157.078 50.7617 156.306 51.7827 156.306 53.5508C156.306 55.3354 157.062 56.3398 158.257 56.3398ZM163.488 58V49.1016H165.829V50.687H165.879C166.352 49.583 167.29 48.9355 168.66 48.9355C170.635 48.9355 171.747 50.1807 171.747 52.2642V58H169.324V52.7705C169.324 51.6084 168.776 50.9443 167.688 50.9443C166.601 50.9443 165.912 51.7412 165.912 52.895V58H163.488ZM172.704 51.7163C172.704 50.0229 174.173 48.9106 176.456 48.9106C178.689 48.9106 180.141 50.0396 180.174 51.7661H177.941C177.892 51.0522 177.319 50.6123 176.422 50.6123C175.584 50.6123 175.036 50.9941 175.036 51.5669C175.036 52.0068 175.418 52.3057 176.198 52.4883L177.9 52.8535C179.685 53.252 180.407 53.9575 180.407 55.2856C180.407 57.0371 178.796 58.1909 176.447 58.1909C174.073 58.1909 172.612 57.0454 172.48 55.3105H174.845C174.962 56.0576 175.551 56.4893 176.514 56.4893C177.435 56.4893 177.991 56.124 177.991 55.543C177.991 55.0947 177.692 54.8457 176.896 54.6548L175.252 54.2896C173.567 53.9077 172.704 53.0278 172.704 51.7163Z" fill="black"/>
<path d="M19.9631 77H18.8332V67.8403H19.9441L24.9587 75.0322H25.0159V67.8403H26.1457V77H25.0349L20.0203 69.8335H19.9631V77ZM30.4075 77.1143C28.5794 77.1143 27.348 75.8003 27.348 73.6992C27.348 71.5918 28.5794 70.2842 30.4075 70.2842C32.2293 70.2842 33.4608 71.5918 33.4608 73.6992C33.4608 75.8003 32.2293 77.1143 30.4075 77.1143ZM30.4075 76.1431C31.5755 76.1431 32.3372 75.2544 32.3372 73.6992C32.3372 72.144 31.5755 71.2554 30.4075 71.2554C29.2396 71.2554 28.4715 72.144 28.4715 73.6992C28.4715 75.2544 29.2396 76.1431 30.4075 76.1431ZM34.8534 68.8052H35.9579V70.3984H37.2401V71.3062H35.9579V75.229C35.9579 75.832 36.2118 76.105 36.7768 76.105C36.9037 76.105 37.1576 76.0859 37.2338 76.0732V77C37.1005 77.0317 36.7958 77.0508 36.5355 77.0508C35.3231 77.0508 34.8534 76.5557 34.8534 75.2861V71.3062H33.8695V70.3984H34.8534V68.8052ZM38.3979 77V70.3984H39.5024V77H38.3979ZM38.9502 69.2876C38.5757 69.2876 38.2646 68.9766 38.2646 68.6021C38.2646 68.2212 38.5757 67.9165 38.9502 67.9165C39.331 67.9165 39.6421 68.2212 39.6421 68.6021C39.6421 68.9766 39.331 69.2876 38.9502 69.2876ZM41.2696 77V71.3062H40.3492V70.3984H41.2696V69.6621C41.2696 68.3926 41.8599 67.7896 43.0787 67.7896C43.3262 67.7896 43.5928 67.8149 43.7515 67.8403V68.7354C43.6182 68.7163 43.4341 68.6973 43.2501 68.6973C42.6534 68.6973 42.3677 69.0146 42.3677 69.6685V70.3984H43.7198V71.3062H42.3741V77H41.2696ZM44.8395 77V70.3984H45.944V77H44.8395ZM45.3917 69.2876C45.0172 69.2876 44.7062 68.9766 44.7062 68.6021C44.7062 68.2212 45.0172 67.9165 45.3917 67.9165C45.7726 67.9165 46.0836 68.2212 46.0836 68.6021C46.0836 68.9766 45.7726 69.2876 45.3917 69.2876ZM52.8401 72.563H51.761C51.6023 71.8457 51.0437 71.2554 50.0725 71.2554C48.9299 71.2554 48.1555 72.2012 48.1555 73.6992C48.1555 75.2354 48.9426 76.1431 50.0852 76.1431C50.9865 76.1431 51.5769 75.667 51.7673 74.8735H52.8528C52.6814 76.1875 51.5769 77.1143 50.0788 77.1143C48.2507 77.1143 47.032 75.8257 47.032 73.6992C47.032 71.6172 48.2444 70.2842 50.0661 70.2842C51.7165 70.2842 52.7004 71.376 52.8401 72.563ZM55.9656 76.1748C57.0066 76.1748 57.8064 75.4448 57.8064 74.4927V73.9531L56.0418 74.061C55.1531 74.1182 54.6453 74.5117 54.6453 75.1338C54.6453 75.7622 55.1722 76.1748 55.9656 76.1748ZM55.7181 77.1143C54.4041 77.1143 53.5218 76.3208 53.5218 75.1338C53.5218 74.0039 54.3914 73.293 55.9148 73.2041L57.8064 73.0962V72.5439C57.8064 71.7378 57.2732 71.2554 56.3592 71.2554C55.5086 71.2554 54.9754 71.6553 54.8357 72.3027H53.7693C53.8455 71.1602 54.823 70.2842 56.3846 70.2842C57.9334 70.2842 58.9109 71.1221 58.9109 72.436V77H57.8636V75.8638H57.8382C57.4446 76.6191 56.6067 77.1143 55.7181 77.1143ZM60.5892 68.8052H61.6937V70.3984H62.976V71.3062H61.6937V75.229C61.6937 75.832 61.9476 76.105 62.5126 76.105C62.6395 76.105 62.8934 76.0859 62.9696 76.0732V77C62.8363 77.0317 62.5316 77.0508 62.2714 77.0508C61.059 77.0508 60.5892 76.5557 60.5892 75.2861V71.3062H59.6054V70.3984H60.5892V68.8052ZM64.1338 77V70.3984H65.2382V77H64.1338ZM64.686 69.2876C64.3115 69.2876 64.0005 68.9766 64.0005 68.6021C64.0005 68.2212 64.3115 67.9165 64.686 67.9165C65.0669 67.9165 65.3779 68.2212 65.3779 68.6021C65.3779 68.9766 65.0669 69.2876 64.686 69.2876ZM69.3858 77.1143C67.5577 77.1143 66.3262 75.8003 66.3262 73.6992C66.3262 71.5918 67.5577 70.2842 69.3858 70.2842C71.2076 70.2842 72.439 71.5918 72.439 73.6992C72.439 75.8003 71.2076 77.1143 69.3858 77.1143ZM69.3858 76.1431C70.5538 76.1431 71.3155 75.2544 71.3155 73.6992C71.3155 72.144 70.5538 71.2554 69.3858 71.2554C68.2178 71.2554 67.4497 72.144 67.4497 73.6992C67.4497 75.2544 68.2178 76.1431 69.3858 76.1431ZM73.4762 77V70.3984H74.5172V71.4521H74.5426C74.9108 70.7412 75.6154 70.2842 76.6373 70.2842C78.0846 70.2842 78.9225 71.2173 78.9225 72.7153V77H77.818V72.9121C77.818 71.8457 77.3165 71.2617 76.3009 71.2617C75.2599 71.2617 74.5807 71.998 74.5807 73.1152V77H73.4762ZM80.1374 72.2202C80.1374 71.0903 81.1467 70.2842 82.6003 70.2842C83.965 70.2842 84.968 71.0967 85.0188 72.2139H83.965C83.8889 71.5791 83.3747 71.1855 82.5622 71.1855C81.7561 71.1855 81.2229 71.5854 81.2229 72.1631C81.2229 72.6201 81.572 72.9248 82.321 73.1152L83.343 73.3628C84.676 73.6992 85.1584 74.1816 85.1584 75.1528C85.1584 76.3018 84.073 77.1143 82.5305 77.1143C81.0832 77.1143 80.0739 76.3271 79.9597 75.1592H81.0642C81.1848 75.8447 81.7053 76.2129 82.6003 76.2129C83.4953 76.2129 84.0476 75.832 84.0476 75.2354C84.0476 74.7656 83.7746 74.5117 83.0319 74.3149L81.8703 74.0166C80.7087 73.7183 80.1374 73.1216 80.1374 72.2202ZM88.8133 77V70.3984H89.8544V71.4521H89.8797C90.1908 70.7539 90.8636 70.2842 91.7523 70.2842C92.6537 70.2842 93.3202 70.7412 93.6058 71.541H93.6312C93.9994 70.7539 94.7738 70.2842 95.7005 70.2842C97.0082 70.2842 97.8524 71.1348 97.8524 72.4424V77H96.7479V72.6963C96.7479 71.7949 96.2464 71.2617 95.3768 71.2617C94.5008 71.2617 93.8851 71.9092 93.8851 72.8042V77H92.7806V72.5757C92.7806 71.7822 92.2474 71.2617 91.4286 71.2617C90.5526 71.2617 89.9178 71.9473 89.9178 72.8613V77H88.8133ZM101.359 76.1748C102.4 76.1748 103.2 75.4448 103.2 74.4927V73.9531L101.435 74.061C100.546 74.1182 100.039 74.5117 100.039 75.1338C100.039 75.7622 100.565 76.1748 101.359 76.1748ZM101.111 77.1143C99.7973 77.1143 98.915 76.3208 98.915 75.1338C98.915 74.0039 99.7846 73.293 101.308 73.2041L103.2 73.0962V72.5439C103.2 71.7378 102.666 71.2554 101.752 71.2554C100.902 71.2554 100.369 71.6553 100.229 72.3027H99.1625C99.2387 71.1602 100.216 70.2842 101.778 70.2842C103.327 70.2842 104.304 71.1221 104.304 72.436V77H103.257V75.8638H103.231C102.838 76.6191 102 77.1143 101.111 77.1143ZM106.173 79.4692C106.04 79.4692 105.817 79.4565 105.697 79.4312V78.5044C105.817 78.5298 105.989 78.5361 106.128 78.5361C106.744 78.5361 107.087 78.2378 107.341 77.4697L107.493 77.0063L105.056 70.3984H106.236L108.064 75.8955H108.084L109.912 70.3984H111.073L108.477 77.4634C107.912 79.0059 107.366 79.4692 106.173 79.4692ZM114.512 77V70.3984H115.617V77H114.512ZM115.065 69.2876C114.69 69.2876 114.379 68.9766 114.379 68.6021C114.379 68.2212 114.69 67.9165 115.065 67.9165C115.445 67.9165 115.757 68.2212 115.757 68.6021C115.757 68.9766 115.445 69.2876 115.065 69.2876ZM117.029 77V70.3984H118.07V71.4521H118.095C118.463 70.7412 119.168 70.2842 120.19 70.2842C121.637 70.2842 122.475 71.2173 122.475 72.7153V77H121.37V72.9121C121.37 71.8457 120.869 71.2617 119.853 71.2617C118.812 71.2617 118.133 71.998 118.133 73.1152V77H117.029ZM129.288 72.563H128.209C128.051 71.8457 127.492 71.2554 126.521 71.2554C125.378 71.2554 124.604 72.2012 124.604 73.6992C124.604 75.2354 125.391 76.1431 126.534 76.1431C127.435 76.1431 128.025 75.667 128.216 74.8735H129.301C129.13 76.1875 128.025 77.1143 126.527 77.1143C124.699 77.1143 123.48 75.8257 123.48 73.6992C123.48 71.6172 124.693 70.2842 126.514 70.2842C128.165 70.2842 129.149 71.376 129.288 72.563ZM130.294 77V67.8403H131.398V77H130.294ZM138.231 70.3984V77H137.184V75.9272H137.158C136.765 76.689 136.079 77.1143 135.063 77.1143C133.623 77.1143 132.778 76.1812 132.778 74.6831V70.3984H133.883V74.4863C133.883 75.5591 134.384 76.1367 135.406 76.1367C136.479 76.1367 137.126 75.4004 137.126 74.2769V70.3984H138.231ZM142.087 77.1143C140.404 77.1143 139.262 75.7686 139.262 73.6992C139.262 71.6299 140.398 70.2842 142.061 70.2842C143.007 70.2842 143.769 70.7476 144.162 71.4712H144.188V67.8403H145.292V77H144.238V75.8828H144.219C143.794 76.6445 143.039 77.1143 142.087 77.1143ZM142.296 71.2554C141.128 71.2554 140.392 72.2075 140.392 73.6992C140.392 75.1973 141.128 76.1431 142.296 76.1431C143.432 76.1431 144.194 75.1782 144.194 73.6992C144.194 72.2266 143.432 71.2554 142.296 71.2554ZM149.351 71.2427C148.316 71.2427 147.592 72.0361 147.523 73.1343H151.109C151.084 72.0298 150.392 71.2427 149.351 71.2427ZM151.084 75.1084H152.169C151.979 76.2637 150.861 77.1143 149.421 77.1143C147.529 77.1143 146.38 75.8003 146.38 73.7246C146.38 71.6743 147.548 70.2842 149.37 70.2842C151.153 70.2842 152.252 71.5791 152.252 73.5786V73.9976H147.516V74.061C147.516 75.3242 148.259 76.1558 149.446 76.1558C150.284 76.1558 150.9 75.7305 151.084 75.1084ZM158.052 76.1748C159.093 76.1748 159.893 75.4448 159.893 74.4927V73.9531L158.128 74.061C157.24 74.1182 156.732 74.5117 156.732 75.1338C156.732 75.7622 157.259 76.1748 158.052 76.1748ZM157.805 77.1143C156.491 77.1143 155.608 76.3208 155.608 75.1338C155.608 74.0039 156.478 73.293 158.001 73.2041L159.893 73.0962V72.5439C159.893 71.7378 159.36 71.2554 158.446 71.2554C157.595 71.2554 157.062 71.6553 156.922 72.3027H155.856C155.932 71.1602 156.909 70.2842 158.471 70.2842C160.02 70.2842 160.997 71.1221 160.997 72.436V77H159.95V75.8638H159.925C159.531 76.6191 158.693 77.1143 157.805 77.1143ZM162.377 77V67.8403H163.482V77H162.377ZM167.54 71.2427C166.506 71.2427 165.782 72.0361 165.712 73.1343H169.299C169.273 72.0298 168.582 71.2427 167.54 71.2427ZM169.273 75.1084H170.359C170.168 76.2637 169.051 77.1143 167.61 77.1143C165.719 77.1143 164.57 75.8003 164.57 73.7246C164.57 71.6743 165.738 70.2842 167.56 70.2842C169.343 70.2842 170.441 71.5791 170.441 73.5786V73.9976H165.706V74.061C165.706 75.3242 166.449 76.1558 167.636 76.1558C168.474 76.1558 169.089 75.7305 169.273 75.1084ZM171.479 77V70.3984H172.52V71.4775H172.545C172.761 70.7476 173.37 70.2842 174.145 70.2842C174.335 70.2842 174.5 70.3159 174.589 70.3286V71.4014C174.5 71.3696 174.265 71.3379 173.999 71.3379C173.142 71.3379 172.583 71.9536 172.583 72.8867V77H171.479ZM175.766 68.8052H176.87V70.3984H178.152V71.3062H176.87V75.229C176.87 75.832 177.124 76.105 177.689 76.105C177.816 76.105 178.07 76.0859 178.146 76.0732V77C178.013 77.0317 177.708 77.0508 177.448 77.0508C176.236 77.0508 175.766 76.5557 175.766 75.2861V71.3062H174.782V70.3984H175.766V68.8052ZM179.139 72.2202C179.139 71.0903 180.148 70.2842 181.602 70.2842C182.967 70.2842 183.969 71.0967 184.02 72.2139H182.967C182.89 71.5791 182.376 71.1855 181.564 71.1855C180.758 71.1855 180.224 71.5854 180.224 72.1631C180.224 72.6201 180.573 72.9248 181.322 73.1152L182.344 73.3628C183.677 73.6992 184.16 74.1816 184.16 75.1528C184.16 76.3018 183.074 77.1143 181.532 77.1143C180.085 77.1143 179.075 76.3271 178.961 75.1592H180.066C180.186 75.8447 180.707 76.2129 181.602 76.2129C182.497 76.2129 183.049 75.832 183.049 75.2354C183.049 74.7656 182.776 74.5117 182.033 74.3149L180.872 74.0166C179.71 73.7183 179.139 73.1216 179.139 72.2202ZM185.984 78.8218H185.064L185.68 75.5908H186.854L185.984 78.8218ZM190.287 72.2202C190.287 71.0903 191.296 70.2842 192.749 70.2842C194.114 70.2842 195.117 71.0967 195.168 72.2139H194.114C194.038 71.5791 193.524 71.1855 192.711 71.1855C191.905 71.1855 191.372 71.5854 191.372 72.1631C191.372 72.6201 191.721 72.9248 192.47 73.1152L193.492 73.3628C194.825 73.6992 195.308 74.1816 195.308 75.1528C195.308 76.3018 194.222 77.1143 192.68 77.1143C191.232 77.1143 190.223 76.3271 190.109 75.1592H191.213C191.334 75.8447 191.854 76.2129 192.749 76.2129C193.645 76.2129 194.197 75.832 194.197 75.2354C194.197 74.7656 193.924 74.5117 193.181 74.3149L192.02 74.0166C190.858 73.7183 190.287 73.1216 190.287 72.2202ZM199.112 77.1143C197.284 77.1143 196.053 75.8003 196.053 73.6992C196.053 71.5918 197.284 70.2842 199.112 70.2842C200.934 70.2842 202.166 71.5918 202.166 73.6992C202.166 75.8003 200.934 77.1143 199.112 77.1143ZM199.112 76.1431C200.28 76.1431 201.042 75.2544 201.042 73.6992C201.042 72.144 200.28 71.2554 199.112 71.2554C197.944 71.2554 197.176 72.144 197.176 73.6992C197.176 75.2544 197.944 76.1431 199.112 76.1431ZM208.624 70.3984V77H207.576V75.9272H207.551C207.157 76.689 206.472 77.1143 205.456 77.1143C204.015 77.1143 203.171 76.1812 203.171 74.6831V70.3984H204.276V74.4863C204.276 75.5591 204.777 76.1367 205.799 76.1367C206.872 76.1367 207.519 75.4004 207.519 74.2769V70.3984H208.624ZM209.978 77V70.3984H211.019V71.4521H211.045C211.413 70.7412 212.117 70.2842 213.139 70.2842C214.587 70.2842 215.424 71.2173 215.424 72.7153V77H214.32V72.9121C214.32 71.8457 213.819 71.2617 212.803 71.2617C211.762 71.2617 211.083 71.998 211.083 73.1152V77H209.978ZM219.255 77.1143C217.573 77.1143 216.43 75.7686 216.43 73.6992C216.43 71.6299 217.566 70.2842 219.229 70.2842C220.175 70.2842 220.937 70.7476 221.33 71.4712H221.356V67.8403H222.46V77H221.407V75.8828H221.387C220.962 76.6445 220.207 77.1143 219.255 77.1143ZM219.464 71.2554C218.296 71.2554 217.56 72.2075 217.56 73.6992C217.56 75.1973 218.296 76.1431 219.464 76.1431C220.6 76.1431 221.362 75.1782 221.362 73.6992C221.362 72.2266 220.6 71.2554 219.464 71.2554ZM223.758 72.2202C223.758 71.0903 224.767 70.2842 226.221 70.2842C227.585 70.2842 228.588 71.0967 228.639 72.2139H227.585C227.509 71.5791 226.995 71.1855 226.182 71.1855C225.376 71.1855 224.843 71.5854 224.843 72.1631C224.843 72.6201 225.192 72.9248 225.941 73.1152L226.963 73.3628C228.296 73.6992 228.779 74.1816 228.779 75.1528C228.779 76.3018 227.693 77.1143 226.151 77.1143C224.703 77.1143 223.694 76.3271 223.58 75.1592H224.684C224.805 75.8447 225.326 76.2129 226.221 76.2129C227.116 76.2129 227.668 75.832 227.668 75.2354C227.668 74.7656 227.395 74.5117 226.652 74.3149L225.491 74.0166C224.329 73.7183 223.758 73.1216 223.758 72.2202ZM234.611 76.1748C235.652 76.1748 236.452 75.4448 236.452 74.4927V73.9531L234.687 74.061C233.798 74.1182 233.291 74.5117 233.291 75.1338C233.291 75.7622 233.817 76.1748 234.611 76.1748ZM234.363 77.1143C233.049 77.1143 232.167 76.3208 232.167 75.1338C232.167 74.0039 233.037 73.293 234.56 73.2041L236.452 73.0962V72.5439C236.452 71.7378 235.918 71.2554 235.004 71.2554C234.154 71.2554 233.621 71.6553 233.481 72.3027H232.415C232.491 71.1602 233.468 70.2842 235.03 70.2842C236.579 70.2842 237.556 71.1221 237.556 72.436V77H236.509V75.8638H236.483C236.09 76.6191 235.252 77.1143 234.363 77.1143ZM238.879 77V70.3984H239.92V71.4521H239.945C240.314 70.7412 241.018 70.2842 242.04 70.2842C243.487 70.2842 244.325 71.2173 244.325 72.7153V77H243.221V72.9121C243.221 71.8457 242.719 71.2617 241.704 71.2617C240.663 71.2617 239.983 71.998 239.983 73.1152V77H238.879ZM248.155 77.1143C246.473 77.1143 245.331 75.7686 245.331 73.6992C245.331 71.6299 246.467 70.2842 248.13 70.2842C249.076 70.2842 249.838 70.7476 250.231 71.4712H250.257V67.8403H251.361V77H250.307V75.8828H250.288C249.863 76.6445 249.108 77.1143 248.155 77.1143ZM248.365 71.2554C247.197 71.2554 246.461 72.2075 246.461 73.6992C246.461 75.1973 247.197 76.1431 248.365 76.1431C249.501 76.1431 250.263 75.1782 250.263 73.6992C250.263 72.2266 249.501 71.2554 248.365 71.2554ZM98.3779 95V88.3984H99.4824V95H98.3779ZM98.9302 87.2876C98.5557 87.2876 98.2446 86.9766 98.2446 86.6021C98.2446 86.2212 98.5557 85.9165 98.9302 85.9165C99.3111 85.9165 99.6221 86.2212 99.6221 86.6021C99.6221 86.9766 99.3111 87.2876 98.9302 87.2876ZM106.379 90.563H105.299C105.141 89.8457 104.582 89.2554 103.611 89.2554C102.468 89.2554 101.694 90.2012 101.694 91.6992C101.694 93.2354 102.481 94.1431 103.624 94.1431C104.525 94.1431 105.115 93.667 105.306 92.8735H106.391C106.22 94.1875 105.115 95.1143 103.617 95.1143C101.789 95.1143 100.57 93.8257 100.57 91.6992C100.57 89.6172 101.783 88.2842 103.605 88.2842C105.255 88.2842 106.239 89.376 106.379 90.563ZM110.063 95.1143C108.235 95.1143 107.003 93.8003 107.003 91.6992C107.003 89.5918 108.235 88.2842 110.063 88.2842C111.884 88.2842 113.116 89.5918 113.116 91.6992C113.116 93.8003 111.884 95.1143 110.063 95.1143ZM110.063 94.1431C111.231 94.1431 111.992 93.2544 111.992 91.6992C111.992 90.144 111.231 89.2554 110.063 89.2554C108.895 89.2554 108.127 90.144 108.127 91.6992C108.127 93.2544 108.895 94.1431 110.063 94.1431ZM114.153 95V88.3984H115.194V89.4521H115.219C115.588 88.7412 116.292 88.2842 117.314 88.2842C118.761 88.2842 119.599 89.2173 119.599 90.7153V95H118.495V90.9121C118.495 89.8457 117.993 89.2617 116.978 89.2617C115.937 89.2617 115.258 89.998 115.258 91.1152V95H114.153ZM120.814 90.2202C120.814 89.0903 121.824 88.2842 123.277 88.2842C124.642 88.2842 125.645 89.0967 125.696 90.2139H124.642C124.566 89.5791 124.052 89.1855 123.239 89.1855C122.433 89.1855 121.9 89.5854 121.9 90.1631C121.9 90.6201 122.249 90.9248 122.998 91.1152L124.02 91.3628C125.353 91.6992 125.835 92.1816 125.835 93.1528C125.835 94.3018 124.75 95.1143 123.207 95.1143C121.76 95.1143 120.751 94.3271 120.637 93.1592H121.741C121.862 93.8447 122.382 94.2129 123.277 94.2129C124.172 94.2129 124.724 93.832 124.724 93.2354C124.724 92.7656 124.451 92.5117 123.709 92.3149L122.547 92.0166C121.386 91.7183 120.814 91.1216 120.814 90.2202ZM132.772 95.1143C131.807 95.1143 131.052 94.6445 130.626 93.8828H130.601V95H129.547V85.8403H130.652V89.5029H130.677C131.09 88.7476 131.858 88.2842 132.791 88.2842C134.454 88.2842 135.578 89.6299 135.578 91.6992C135.578 93.7749 134.46 95.1143 132.772 95.1143ZM132.556 89.2554C131.439 89.2554 130.646 90.2329 130.646 91.6992C130.646 93.1719 131.439 94.1431 132.556 94.1431C133.724 94.1431 134.448 93.21 134.448 91.6992C134.448 90.2012 133.724 89.2554 132.556 89.2554ZM138.798 94.1748C139.839 94.1748 140.639 93.4448 140.639 92.4927V91.9531L138.875 92.061C137.986 92.1182 137.478 92.5117 137.478 93.1338C137.478 93.7622 138.005 94.1748 138.798 94.1748ZM138.551 95.1143C137.237 95.1143 136.355 94.3208 136.355 93.1338C136.355 92.0039 137.224 91.293 138.748 91.2041L140.639 91.0962V90.5439C140.639 89.7378 140.106 89.2554 139.192 89.2554C138.341 89.2554 137.808 89.6553 137.669 90.3027H136.602C136.678 89.1602 137.656 88.2842 139.217 88.2842C140.766 88.2842 141.744 89.1221 141.744 90.436V95H140.696V93.8638H140.671C140.277 94.6191 139.44 95.1143 138.551 95.1143ZM145.568 95.1143C143.885 95.1143 142.743 93.7686 142.743 91.6992C142.743 89.6299 143.879 88.2842 145.542 88.2842C146.488 88.2842 147.25 88.7476 147.643 89.4712H147.669V85.8403H148.773V95H147.719V93.8828H147.7C147.275 94.6445 146.52 95.1143 145.568 95.1143ZM145.777 89.2554C144.609 89.2554 143.873 90.2075 143.873 91.6992C143.873 93.1973 144.609 94.1431 145.777 94.1431C146.913 94.1431 147.675 93.1782 147.675 91.6992C147.675 90.2266 146.913 89.2554 145.777 89.2554ZM152.87 94.0796C154.019 94.0796 154.787 93.1274 154.787 91.6738C154.787 90.2202 154.019 89.2554 152.87 89.2554C151.734 89.2554 150.991 90.1948 150.991 91.6738C150.991 93.1528 151.734 94.0796 152.87 94.0796ZM152.908 97.4883C151.454 97.4883 150.305 96.6694 150.121 95.5459H151.258C151.473 96.1489 152.127 96.5488 152.952 96.5488C154.095 96.5488 154.787 95.8887 154.787 94.9048V93.8638H154.761C154.355 94.5811 153.574 95.0508 152.648 95.0508C150.966 95.0508 149.861 93.7241 149.861 91.6738C149.861 89.6045 150.966 88.2842 152.673 88.2842C153.606 88.2842 154.381 88.7412 154.819 89.5093H154.838V88.3984H155.891V94.8667C155.891 96.4409 154.73 97.4883 152.908 97.4883ZM159.899 89.2427C158.865 89.2427 158.141 90.0361 158.071 91.1343H161.658C161.632 90.0298 160.94 89.2427 159.899 89.2427ZM161.632 93.1084H162.718C162.527 94.2637 161.41 95.1143 159.969 95.1143C158.077 95.1143 156.929 93.8003 156.929 91.7246C156.929 89.6743 158.096 88.2842 159.918 88.2842C161.702 88.2842 162.8 89.5791 162.8 91.5786V91.9976H158.065V92.061C158.065 93.3242 158.807 94.1558 159.994 94.1558C160.832 94.1558 161.448 93.7305 161.632 93.1084ZM163.723 90.2202C163.723 89.0903 164.732 88.2842 166.186 88.2842C167.551 88.2842 168.554 89.0967 168.604 90.2139H167.551C167.475 89.5791 166.96 89.1855 166.148 89.1855C165.342 89.1855 164.809 89.5854 164.809 90.1631C164.809 90.6201 165.158 90.9248 165.907 91.1152L166.929 91.3628C168.262 91.6992 168.744 92.1816 168.744 93.1528C168.744 94.3018 167.659 95.1143 166.116 95.1143C164.669 95.1143 163.66 94.3271 163.545 93.1592H164.65C164.77 93.8447 165.291 94.2129 166.186 94.2129C167.081 94.2129 167.633 93.832 167.633 93.2354C167.633 92.7656 167.36 92.5117 166.618 92.3149L165.456 92.0166C164.294 91.7183 163.723 91.1216 163.723 90.2202ZM170.746 95.0635C170.34 95.0635 170.022 94.7461 170.022 94.3398C170.022 93.9336 170.34 93.6162 170.746 93.6162C171.152 93.6162 171.47 93.9336 171.47 94.3398C171.47 94.7461 171.152 95.0635 170.746 95.0635Z" fill="black"/>
<mask id="path-4-inside-1_2032_88" fill="white">
<path d="M0 116H134.833V160H0V116Z"/>
</mask>
<path d="M0 116.333H134.833V115.667H0V116.333Z" fill="#808080" fill-opacity="0.55" mask="url(#path-4-inside-1_2032_88)"/>
<path d="M24.6361 132.022H29.2098C32.8041 132.022 34.9208 134.164 34.9208 137.965C34.9208 141.767 32.8041 144 29.2098 144H24.6361V132.022ZM27.1429 134.089V141.925H28.911C31.1522 141.925 32.3641 140.563 32.3641 137.974C32.3641 135.467 31.119 134.089 28.911 134.089H27.1429ZM39.9859 144.191C37.2964 144.191 35.5782 142.464 35.5782 139.542C35.5782 136.662 37.3213 134.911 39.9859 134.911C42.6504 134.911 44.3936 136.654 44.3936 139.542C44.3936 142.473 42.6753 144.191 39.9859 144.191ZM39.9859 142.34C41.1729 142.34 41.9283 141.335 41.9283 139.551C41.9283 137.783 41.1646 136.762 39.9859 136.762C38.8072 136.762 38.0352 137.783 38.0352 139.551C38.0352 141.335 38.7906 142.34 39.9859 142.34ZM45.217 144V135.102H47.5578V136.687H47.6076C48.0808 135.583 49.0188 134.936 50.3884 134.936C52.364 134.936 53.4763 136.181 53.4763 138.264V144H51.0525V138.771C51.0525 137.608 50.5046 136.944 49.4172 136.944C48.3298 136.944 47.6408 137.741 47.6408 138.895V144H45.217ZM56.1093 136.695H54.2997L54.9223 132.022H57.2216L56.1093 136.695ZM59.232 133.051H61.6558V135.102H63.2994V136.928H61.6558V141.186C61.6558 141.867 61.9879 142.19 62.7017 142.19C62.9175 142.19 63.1417 142.174 63.2911 142.149V143.934C63.0421 143.992 62.627 144.033 62.1373 144.033C60.0455 144.033 59.232 143.336 59.232 141.601V136.928H57.9786V135.102H59.232V133.051ZM75.1894 144L74.2763 141.095H70.0678L69.1547 144H66.5815L70.7402 132.022H73.6869L77.8539 144H75.1894ZM72.143 134.313L70.6074 139.219H73.7367L72.2011 134.313H72.143ZM78.503 144V132.022H80.9269V144H78.503ZM82.1902 144V132.022H84.6141V144H82.1902ZM89.9033 144.191C87.2138 144.191 85.4956 142.464 85.4956 139.542C85.4956 136.662 87.2387 134.911 89.9033 134.911C92.5678 134.911 94.311 136.654 94.311 139.542C94.311 142.473 92.5927 144.191 89.9033 144.191ZM89.9033 142.34C91.0903 142.34 91.8457 141.335 91.8457 139.551C91.8457 137.783 91.082 136.762 89.9033 136.762C88.7246 136.762 87.9526 137.783 87.9526 139.551C87.9526 141.335 88.708 142.34 89.9033 142.34ZM107.536 135.102L105.178 144H102.597L100.986 137.708H100.937L99.3346 144H96.7863L94.4206 135.102H96.861L98.2057 141.701H98.2555L99.8327 135.102H102.157L103.742 141.701H103.792L105.145 135.102H107.536Z" fill="#3CDAD3"/>
<rect width="0.33333" height="44" transform="translate(134.833 116)" fill="#808080" fill-opacity="0.55"/>
<mask id="path-7-inside-2_2032_88" fill="white">
<path d="M135.167 116H270V160H135.167V116Z"/>
</mask>
<path d="M135.167 116.333H270V115.667H135.167V116.333Z" fill="#808080" fill-opacity="0.55" mask="url(#path-7-inside-2_2032_88)"/>
<path d="M189.335 144L188.422 141.095H184.213L183.3 144H180.727L184.886 132.022H187.832L191.999 144H189.335ZM186.288 134.313L184.753 139.219H187.882L186.347 134.313H186.288ZM192.649 144V132.022H195.072V144H192.649ZM196.336 144V132.022H198.76V144H196.336ZM204.049 144.191C201.359 144.191 199.641 142.464 199.641 139.542C199.641 136.662 201.384 134.911 204.049 134.911C206.713 134.911 208.456 136.654 208.456 139.542C208.456 142.473 206.738 144.191 204.049 144.191ZM204.049 142.34C205.236 142.34 205.991 141.335 205.991 139.551C205.991 137.783 205.227 136.762 204.049 136.762C202.87 136.762 202.098 137.783 202.098 139.551C202.098 141.335 202.853 142.34 204.049 142.34ZM221.681 135.102L219.324 144H216.742L215.132 137.708H215.082L213.48 144H210.932L208.566 135.102H211.006L212.351 141.701H212.401L213.978 135.102H216.302L217.888 141.701H217.938L219.291 135.102H221.681Z" fill="#3CDAD3"/>
</g>
<g clip-path="url(#clip2_2032_88)">
<path d="M204.685 188.557C204.7 188.459 204.708 188.36 204.707 188.26L204.707 171.329L204.878 171.698C205.049 172.059 205.282 172.387 205.565 172.668L210.313 177.416C210.91 178.042 211.87 178.147 212.588 177.665C213.354 177.105 213.52 176.031 212.959 175.265C212.914 175.204 212.865 175.145 212.812 175.09L204.226 166.504C203.555 165.833 202.468 165.832 201.797 166.502L201.796 166.504L193.21 175.09C192.54 175.761 192.542 176.848 193.213 177.518C193.266 177.571 193.322 177.62 193.382 177.665C194.1 178.147 195.06 178.042 195.657 177.416L200.414 172.677C200.666 172.425 200.877 172.135 201.04 171.818L201.272 171.303L201.272 188.166C201.24 189.043 201.852 189.813 202.715 189.978C203.651 190.129 204.533 189.494 204.685 188.557Z" fill="#3CDAD3"/>
</g>
<defs>
<filter id="filter0_b_2032_88" x="-50" y="-50" width="370" height="260" filterUnits="userSpaceOnUse" color-interpolation-filters="sRGB">
<feFlood flood-opacity="0" result="BackgroundImageFix"/>
<feGaussianBlur in="BackgroundImageFix" stdDeviation="25"/>
<feComposite in2="SourceAlpha" operator="in" result="effect1_backgroundBlur_2032_88"/>
<feBlend mode="normal" in="SourceGraphic" in2="effect1_backgroundBlur_2032_88" result="shape"/>
</filter>
<clipPath id="clip0_2032_88">
<rect width="270" height="160" rx="14" fill="white"/>
</clipPath>
<clipPath id="clip1_2032_88">
<rect width="270" height="160" fill="white"/>
</clipPath>
<clipPath id="clip2_2032_88">
<rect width="24" height="24" fill="white" transform="translate(215 166) rotate(90)"/>
</clipPath>
</defs>
</svg>
