<svg width="52" height="52" viewBox="0 0 52 52" fill="none" xmlns="http://www.w3.org/2000/svg">
    <path d="M26.0042 4.87542C22.5506 4.87091 19.1547 5.75983 16.1463 7.45583C13.138 9.15184 10.6195 11.5972 8.8356 14.5543C7.05172 17.5114 6.06316 20.8797 5.96594 24.332C5.86874 27.7839 6.66618 31.2027 8.28083 34.2553L7.08916 42.922C6.99914 43.538 7.06949 44.1665 7.29344 44.7472C7.51736 45.3281 7.8873 45.8411 8.3675 46.237C8.98025 46.7381 9.74281 47.0202 10.5342 47.0386C10.9252 47.0391 11.3134 46.973 11.6825 46.8436L20.0242 43.962C22.7895 44.8676 25.7189 45.1599 28.6086 44.8191C31.4982 44.4783 34.2792 43.5122 36.758 41.9881C39.2367 40.4641 41.3538 38.4186 42.9623 35.9936C44.5706 33.5687 45.6318 30.8227 46.0719 27.9464C46.5119 25.0702 46.3204 22.1324 45.5105 19.3376C44.7006 16.5428 43.2921 13.9578 41.3824 11.7623C39.4727 9.56686 37.1077 7.81355 34.4521 6.62425C31.7966 5.43494 28.9136 4.83818 26.0042 4.87542ZM26.0042 41.7086C24.1608 41.706 22.3306 41.3984 20.5875 40.7986C20.2455 40.6689 19.8678 40.6689 19.5258 40.7986L10.6642 43.8536C10.6288 43.877 10.5874 43.8894 10.545 43.8894C10.5026 43.8894 10.4612 43.877 10.4258 43.8536C10.3718 43.8107 10.331 43.7533 10.308 43.6883C10.285 43.6231 10.2808 43.5529 10.2958 43.4853L11.5742 34.212C11.6175 33.8605 11.5492 33.5043 11.3792 33.1936C9.5604 29.9833 8.84977 26.2629 9.35716 22.6082C9.86455 18.9533 11.5617 15.5673 14.1862 12.9736C16.8108 10.3799 20.2165 8.72294 23.8772 8.2588C27.5378 7.79466 31.2493 8.5492 34.4382 10.4058C37.6269 12.2624 40.1155 15.1176 41.5189 18.5302C42.9224 21.9428 43.1627 25.7225 42.2029 29.2854C41.2428 32.8483 39.1362 35.9958 36.2081 38.2413C33.2801 40.4869 29.6941 41.7054 26.0042 41.7086ZM29.7959 34.1253C29.7903 34.5547 29.6171 34.9647 29.3136 35.2682C29.01 35.5718 28.6001 35.7449 28.1709 35.7503H23.8376C23.4066 35.7503 22.9932 35.5791 22.6884 35.2745C22.3837 34.9697 22.2126 34.5565 22.2126 34.1253C22.2126 33.6944 22.3837 33.2812 22.6884 32.9763C22.9932 32.6717 23.4066 32.5003 23.8376 32.5003H24.3792V22.7503H23.8376C23.4066 22.7503 22.9932 22.5791 22.6884 22.2745C22.3837 21.9697 22.2126 21.5564 22.2126 21.1254C22.2126 20.6944 22.3837 20.2811 22.6884 19.9764C22.9932 19.6716 23.4066 19.5004 23.8376 19.5004H26.0042C26.4334 19.506 26.8434 19.679 27.1469 19.9826C27.4505 20.2861 27.6236 20.6962 27.6292 21.1254V32.5003H28.1709C28.6001 32.5059 29.01 32.6791 29.3136 32.9826C29.6171 33.2862 29.7903 33.6961 29.7959 34.1253ZM23.2959 15.7088C23.2959 15.2802 23.4229 14.8613 23.661 14.505C23.8991 14.1487 24.2375 13.871 24.6334 13.707C25.0292 13.543 25.4649 13.5001 25.8853 13.5837C26.3054 13.6673 26.6915 13.8737 26.9946 14.1767C27.2975 14.4797 27.504 14.8658 27.5876 15.2861C27.671 15.7063 27.6281 16.142 27.4641 16.5379C27.3003 16.9338 27.0226 17.2722 26.6661 17.5103C26.3099 17.7483 25.8909 17.8754 25.4626 17.8754C24.888 17.8754 24.3368 17.6471 23.9305 17.2408C23.524 16.8345 23.2959 16.2834 23.2959 15.7088Z" fill="#151515"/>
</svg>
