<svg width="512" height="512" viewBox="0 0 512 512" fill="none" xmlns="http://www.w3.org/2000/svg">
<path d="M441.485 51.3C400.855 32.606 348.097 60.077 323.875 112.534C310.158 142.24 307.899 174.478 317.68 200.982C324.68 219.945 337.111 233.987 353.638 241.59C362.171 245.497 371.453 247.498 380.838 247.456C415.438 247.456 452.182 221.646 471.247 180.356C484.964 150.65 487.222 118.411 477.441 91.908C470.445 72.949 458.012 58.907 441.485 51.3ZM441.752 65.018C450.155 70.2214 457.038 77.5491 461.706 86.262L459.844 90.292L435.3 79L441.752 65.018ZM356.958 155.575L366.224 135.507L390.771 146.801L381.505 166.869L356.958 155.575ZM376.475 177.764L367.209 197.831L342.661 186.537L351.927 166.47L376.475 177.764ZM371.254 124.613L380.521 104.545L405.068 115.839L395.8 135.911L371.254 124.613ZM401.673 151.813L426.221 163.107L416.955 183.175L392.407 171.881L401.673 151.813ZM406.704 140.913L415.97 120.846L440.518 132.14L431.251 152.208L406.704 140.913ZM421 109.964L430.266 89.9L454.814 101.194L445.548 121.261L421 109.964ZM401.7 58.676C405.765 57.8305 409.905 57.397 414.057 57.382C419.757 57.3654 425.424 58.2524 430.847 60.01L424.4 73.987L399.847 62.692L401.7 58.676ZM394.815 73.587L419.363 84.881L410.1 104.949L385.551 93.655L394.815 73.587ZM380.1 66.815L383.917 68.571L374.651 88.639L359.923 81.863C365.969 75.9947 372.751 70.9364 380.1 66.815ZM351.347 91.127L369.619 99.534L360.353 119.6L338.772 109.671C342.374 103.11 346.584 96.9015 351.347 91.127ZM333.486 120.449L355.322 130.5L346.056 150.568L326.524 141.581C328.2 134.341 330.53 127.268 333.486 120.449ZM324.426 178.149C323.43 170.065 323.42 161.891 324.396 153.805L341.026 161.456L331.76 181.524L324.426 178.149ZM353.345 227.858C344.943 222.648 338.064 215.316 333.4 206.6L337.632 197.436L362.179 208.73L353.345 227.858ZM393.378 234.241C383.714 236.332 373.671 235.861 364.246 232.875L373.08 213.744L397.627 225.038L393.378 234.241ZM402.658 214.141L378.11 202.851L387.377 182.783L411.924 194.077L402.658 214.141ZM420.886 222.528L413.559 219.157L422.825 199.089L439.434 206.73C433.902 212.717 427.675 218.022 420.886 222.532V222.528ZM447.386 197.182L427.856 188.2L437.122 168.132L458.984 178.19C455.706 184.862 451.826 191.221 447.391 197.186L447.386 197.182ZM463.768 167.182L442.147 157.234L451.414 137.166L469.758 145.607C468.44 152.97 466.436 160.194 463.773 167.184L463.768 167.182ZM471.252 133.082L456.444 126.269L465.71 106.202L469.563 107.974C471.23 116.234 471.799 124.678 471.257 133.087L471.252 133.082Z" fill="#FF002E"/>
<path d="M452.888 26.608C400.856 2.66997 333.706 36.949 303.2 103.024C286.107 140.044 283.372 180.435 295.7 213.838C302.037 231.011 311.871 245.051 324.574 255.313L300.735 306.944L298.147 306.391C295.331 305.788 292.471 305.414 289.596 305.272L285.223 298.934C281.679 293.808 280.16 287.551 280.959 281.371C282.137 272.253 279.897 263.022 274.671 255.459L142.754 64.315C136.96 55.9529 128.091 50.2257 118.086 48.3863C108.081 46.5469 97.7542 48.7451 89.3656 54.5C85.2144 57.3516 81.6665 60.9939 78.9248 65.2185C76.183 69.443 74.3014 74.1668 73.3876 79.1195C72.4738 84.0721 72.5458 89.1564 73.5993 94.0812C74.6529 99.006 76.6674 103.675 79.5276 107.82L156.672 219.6C135.001 215.62 112.67 217.301 91.8398 224.48C71.0094 231.66 52.3846 244.094 37.7676 260.58C23.1505 277.066 13.0362 297.046 8.40311 318.586C3.77007 340.126 4.77522 362.498 11.3213 383.536C17.8674 404.574 29.7328 423.566 45.7693 438.675C61.8059 453.783 81.4708 464.497 102.861 469.779C124.251 475.062 146.643 474.733 167.869 468.826C189.096 462.919 208.438 451.633 224.025 436.061C224.935 435.15 225.832 434.225 226.715 433.286C223.883 441.355 223.413 450.065 225.36 458.391C227.307 466.718 231.59 474.317 237.706 480.294C243.821 486.271 251.516 490.379 259.885 492.134C268.254 493.89 276.951 493.221 284.953 490.205C292.955 487.19 299.93 481.953 305.059 475.111C310.188 468.268 313.258 460.104 313.908 451.578C314.558 443.051 312.761 434.516 308.729 426.975C304.696 419.434 298.595 413.201 291.143 409.007L300.835 411.007L311.643 416.861L338.566 455.875L337.778 456.416C336.291 457.438 335.021 458.743 334.039 460.256C333.057 461.77 332.384 463.462 332.057 465.236C331.73 467.01 331.756 468.831 332.133 470.595C332.511 472.359 333.232 474.031 334.257 475.516C338.481 481.617 344.95 485.796 352.248 487.139C359.547 488.481 367.08 486.878 373.199 482.68L388.979 471.829C392.281 469.554 395.056 466.597 397.118 463.158L403.818 466.787C410.635 470.49 418.617 471.426 426.107 469.399L452.182 462.382C453.747 461.962 455.187 461.17 456.381 460.073C457.574 458.977 458.485 457.608 459.036 456.084C459.588 454.561 459.763 452.926 459.547 451.32C459.331 449.714 458.731 448.183 457.797 446.859L438 418.792L475.035 403.143C475.077 403.126 475.118 403.107 475.159 403.089C476.676 402.408 478 401.363 479.014 400.045C480.029 398.728 480.701 397.18 480.97 395.539C481.24 393.899 481.099 392.217 480.56 390.644C480.021 389.071 479.101 387.656 477.882 386.526L451.458 360.715L480.463 342.229C481.84 341.352 482.983 340.153 483.793 338.735C484.603 337.317 485.057 335.724 485.114 334.092C485.171 332.46 484.83 330.839 484.121 329.368C483.411 327.897 482.355 326.621 481.043 325.65L459.666 309.821C453.845 305.506 446.668 303.427 439.443 303.961L344.743 310.076L362.076 272.535C367.194 273.461 372.386 273.924 377.588 273.92C421.596 273.92 468.024 241.66 491.936 189.874C509.03 152.854 511.764 112.463 499.436 79.06C490.4 54.6 474.31 36.465 452.888 26.608ZM290.118 317.336L273.78 393.506C268.308 392.906 260.457 391.406 255.401 385.03C259.527 372.256 261.622 358.913 261.608 345.489C261.606 340.838 261.354 336.191 260.855 331.567C263.973 322.162 276.471 316.3 290.118 317.336ZM263.088 403.626C256.01 404.579 249.265 407.215 243.418 411.314C246.14 406.801 248.578 402.122 250.718 397.305C254.379 400.214 258.585 402.363 263.088 403.626ZM152.45 231.038C159.822 232.256 167.06 234.178 174.065 236.78C175.347 237.263 176.756 237.292 178.058 236.862C179.359 236.433 180.474 235.571 181.218 234.42V234.413C181.702 233.661 182.012 232.81 182.125 231.922C182.238 231.034 182.151 230.133 181.87 229.283C181.59 228.433 181.122 227.657 180.503 227.012C179.884 226.366 179.128 225.867 178.291 225.551C177.005 225.072 175.711 224.622 174.413 224.186L89.4046 101C87.4403 98.1531 86.0569 94.9467 85.3335 91.5645C84.6101 88.1822 84.5609 84.6905 85.1889 81.2892C85.8168 77.8879 87.1094 74.6439 88.9928 71.7429C90.8762 68.8418 93.3133 66.3408 96.1646 64.383C101.933 60.4263 109.034 58.915 115.913 60.1796C122.793 61.4441 128.892 65.3816 132.877 71.131L264.787 262.276C268.33 267.402 269.849 273.66 269.05 279.84C267.871 288.957 270.112 298.187 275.339 305.75L275.825 306.45C269.258 307.864 263.141 310.876 258.017 315.219C252.479 292.361 240.712 271.485 224.025 254.912C221.538 252.429 218.975 250.071 216.336 247.839C215.737 247.305 215.038 246.896 214.279 246.636C213.52 246.377 212.716 246.273 211.916 246.329C211.116 246.386 210.335 246.602 209.62 246.966C208.905 247.329 208.27 247.833 207.753 248.446C207.236 249.059 206.847 249.77 206.609 250.536C206.371 251.302 206.289 252.108 206.368 252.906C206.448 253.704 206.686 254.479 207.07 255.183C207.453 255.888 207.974 256.508 208.602 257.008C209.47 257.745 210.32 258.508 211.171 259.28L171.18 299.2C163.126 289.982 157.259 279.065 154.015 267.262C150.772 255.459 150.237 243.077 152.45 231.038ZM248.038 326.354C235.972 328.578 223.559 328.054 211.724 324.821C199.888 321.588 188.933 315.729 179.674 307.68L219.674 267.748C234.579 284.141 244.429 304.493 248.038 326.354ZM133.3 229.458C135.704 229.458 138.106 229.533 140.508 229.684C138.08 243.517 138.812 257.72 142.649 271.23C146.486 284.74 153.329 297.208 162.665 307.7L133.3 337.011L55.4196 259.271C76.7909 240.03 104.543 229.406 133.3 229.458ZM16.9996 345.489C16.9218 316.747 27.5985 289.016 46.9306 267.748L124.811 345.489L95.6106 374.636C84.9954 365.379 72.4559 358.596 58.8988 354.779C45.3416 350.961 31.1055 350.203 17.2196 352.56C17.0786 350.215 16.9996 347.858 16.9996 345.489ZM18.5486 364.489C30.6411 362.229 43.088 362.732 54.9587 365.961C66.8294 369.189 77.8168 375.059 87.0996 383.131L46.9286 423.231C31.9943 406.803 22.1373 386.402 18.5486 364.492V364.489ZM114.29 459.964C92.3617 456.39 71.9262 446.579 55.4236 431.704L95.5956 391.604C103.674 400.846 109.553 411.799 112.791 423.639C116.029 435.48 116.541 447.9 114.29 459.967V459.964ZM126.221 461.295C128.567 447.439 127.799 433.234 123.972 419.712C120.146 406.189 113.358 393.688 104.1 383.115L133.3 353.967L211.18 431.707C199.696 442.038 186.267 449.977 171.68 455.058C157.092 460.139 141.638 462.261 126.221 461.3V461.295ZM219.678 423.226L141.8 345.489L171.175 316.167C188.261 331.326 210.309 339.698 233.151 339.7C238.591 339.695 244.021 339.224 249.381 338.292C249.526 340.679 249.608 343.078 249.608 345.492C249.684 374.232 239.008 401.961 219.678 423.229V423.226ZM302.039 448.138C302.038 454.651 300.107 461.017 296.489 466.432C292.87 471.847 287.727 476.067 281.711 478.56C275.694 481.052 269.073 481.704 262.685 480.433C256.298 479.163 250.43 476.026 245.825 471.421C241.22 466.816 238.084 460.949 236.813 454.561C235.543 448.174 236.195 441.553 238.687 435.536C241.179 429.519 245.4 424.376 250.815 420.758C256.23 417.14 262.596 415.208 269.109 415.208C277.84 415.218 286.211 418.69 292.384 424.865C298.558 431.039 302.03 439.41 302.039 448.141V448.138ZM298.323 398.2L285.628 395.487L301.928 319.475L314.623 322.189L298.323 398.2ZM334.928 429.473L358.44 442.209L348.454 449.075L334.928 429.473ZM382.18 461.942L366.4 472.792C362.901 475.192 358.595 476.108 354.422 475.342C350.25 474.575 346.551 472.187 344.134 468.701C344.004 468.515 343.913 468.304 343.865 468.083C343.818 467.861 343.814 467.632 343.856 467.409C343.897 467.185 343.982 466.973 344.106 466.783C344.23 466.592 344.39 466.429 344.578 466.301L370.287 448.623L386.541 457.423C385.4 459.201 383.917 460.736 382.18 461.938V461.942ZM446.393 451.514L422.987 457.814C418.466 459.039 413.647 458.474 409.532 456.237L309.741 402.186L314.241 381.186L421.252 419.986C423.784 420.899 425.973 422.57 427.522 424.772L446.393 451.514ZM467.593 393.262L428.141 409.93L316.785 369.342L319.358 357.342L436.021 365.842C437.119 365.839 438.215 365.764 439.304 365.618L467.593 393.262ZM440.272 315.936C444.646 315.603 448.994 316.857 452.519 319.47L471.634 333.624L443.143 351.784C440.744 353.307 437.919 354.019 435.085 353.815L321.9 345.5L326.669 323.265L440.272 315.936ZM331.11 310.956L322.194 311.532L312.758 309.515L334.57 262.274C337.054 263.743 339.612 265.083 342.234 266.29C344.852 267.492 347.531 268.557 350.261 269.48L331.11 310.956ZM481.032 184.844C453.293 244.918 393.281 276.565 347.25 255.388C328.784 246.888 314.85 231.088 306.95 209.688C295.719 179.25 298.32 142.207 314.089 108.057C335.983 60.64 377.984 30.934 417.346 30.934C427.877 30.8857 438.293 33.1306 447.87 37.513C466.336 46.013 480.27 61.813 488.17 83.213C499.4 113.651 496.8 150.694 481.032 184.844Z" fill="#FF002E"/>
<path d="M108.222 85.293L107.079 83.577C106.648 82.9086 106.088 82.3326 105.432 81.8824C104.777 81.4322 104.038 81.1169 103.26 80.9547C102.481 80.7925 101.678 80.7867 100.897 80.9377C100.116 81.0887 99.3733 81.3934 98.7113 81.8341C98.0493 82.2748 97.4815 82.8427 97.0409 83.5048C96.6003 84.1669 96.2958 84.91 96.145 85.6909C95.9942 86.4718 96.0001 87.2748 96.1625 88.0534C96.3248 88.832 96.6403 89.5705 97.0906 90.226L98.2326 91.942C98.666 92.6053 99.2263 93.1762 99.8814 93.6217C100.537 94.0673 101.273 94.3787 102.05 94.538C102.826 94.6973 103.626 94.7013 104.403 94.5497C105.181 94.3982 105.921 94.0942 106.58 93.6552C107.24 93.2162 107.806 92.6509 108.246 91.992C108.686 91.333 108.991 90.5935 109.143 89.8161C109.296 89.0386 109.293 88.2387 109.135 87.4623C108.977 86.686 108.666 85.9487 108.222 85.293ZM118.358 100.521C117.468 99.2156 116.099 98.3139 114.548 98.0117C112.997 97.7094 111.39 98.0309 110.075 98.9065C108.76 99.7821 107.843 101.141 107.524 102.688C107.205 104.236 107.509 105.846 108.37 107.171L151.136 171.415C151.567 172.083 152.126 172.659 152.782 173.11C153.437 173.56 154.176 173.875 154.955 174.037C155.733 174.199 156.536 174.205 157.317 174.054C158.098 173.903 158.841 173.599 159.503 173.158C160.165 172.717 160.733 172.149 161.173 171.487C161.614 170.825 161.918 170.082 162.069 169.301C162.22 168.52 162.214 167.717 162.052 166.939C161.889 166.16 161.574 165.422 161.124 164.766L118.358 100.521Z" fill="#FF002E"/>
</svg>
