<svg width="512" height="512" viewBox="0 0 512 512" fill="none" xmlns="http://www.w3.org/2000/svg">
<g clip-path="url(#clip0_3109_6618)">
<path d="M184.743 95.179C193.027 95.179 199.743 88.463 199.743 80.179V49.974C199.743 41.69 193.027 34.974 184.743 34.974C176.459 34.974 169.743 41.69 169.743 49.974V80.179C169.743 88.463 176.459 95.179 184.743 95.179ZM48.6611 150.086L22.5021 134.983C15.3271 130.839 6.15307 133.299 2.01208 140.473C-2.12993 147.648 0.328075 156.822 7.50208 160.963L33.6611 176.066C40.8191 180.2 50.0001 177.767 54.1511 170.576C58.2931 163.401 55.8351 154.227 48.6611 150.086ZM33.6611 315.881L7.50208 330.983C0.328075 335.125 -2.12993 344.298 2.01208 351.473C6.17508 358.683 15.3621 361.087 22.5021 356.963L48.6611 341.86C55.8351 337.718 58.2931 328.545 54.1511 321.37C50.0091 314.197 40.8371 311.736 33.6611 315.881ZM335.824 176.066L361.983 160.963C369.157 156.821 371.615 147.648 367.473 140.473C363.331 133.299 354.159 130.839 346.983 134.983L320.824 150.086C313.65 154.228 311.192 163.401 315.334 170.576C319.497 177.786 328.684 180.19 335.824 176.066ZM398.906 267.268C381.735 224.836 340.083 196.78 294.261 196.978C275.484 155.169 233.465 125.973 184.742 125.973C118.574 125.973 64.7431 179.805 64.7431 245.973C64.7431 288.424 86.9111 325.782 120.268 347.12C84.7011 403.308 125.141 476.973 191.678 476.973C427.69 476.727 414.776 477.577 418.886 476.301C471.313 470.388 512 425.922 512 371.974C512 310.367 459.358 262.533 398.906 267.268ZM94.7431 245.974C94.7431 196.348 135.117 155.974 184.743 155.974C218.208 155.974 247.448 174.344 262.954 201.521C215.555 215.41 182.644 258.683 182.116 308.331C167.216 309.966 153.167 315.533 141.067 324.632C113.462 309.243 94.7431 279.758 94.7431 245.974ZM413.212 446.716C407.869 447.15 271.748 446.898 191.678 446.974C142.217 446.974 118.114 385.664 154.915 352.058C165.961 341.971 180.67 336.604 196.698 338.062C206.367 338.934 214.246 330.569 212.911 321.042C205.957 271.411 244.39 226.974 294.6 226.974C331.744 226.974 364.482 251.976 374.212 287.775C376.292 295.424 383.965 300.131 391.724 298.53C438.477 288.861 482 324.601 482 371.974C482 410.73 451.785 443.561 413.212 446.716Z" fill="#00BAFF"/>
</g>
<defs>
<clipPath id="clip0_3109_6618">
<rect width="512" height="512" fill="white"/>
</clipPath>
</defs>
</svg>
